<svg role="img" aria-label="Аркадий Амелин" xmlns="http://www.w3.org/2000/svg" width="3072" height="2048" viewBox="0 0 3072 2048" version="1.1">
	<path d="M 1242.151 218.527 C 1238.893 221.268, 1227.054 239.676, 1216.764 258 C 1213.212 264.325, 1209.414 271.075, 1208.323 273 C 1207.232 274.925, 1204.505 279.875, 1202.261 284 C 1200.018 288.125, 1196.569 294.425, 1194.596 298 C 1192.624 301.575, 1189.770 306.934, 1188.255 309.910 C 1185.287 315.737, 1183.126 317.925, 1155 343.568 C 1134.750 362.030, 1113.176 382.164, 1094.533 400 C 1087.921 406.325, 1077.559 416.220, 1071.506 421.988 C 1040.832 451.218, 943.752 548.300, 896.479 597.019 C 875.995 618.129, 826.039 670.312, 807.966 689.477 C 803.309 694.414, 795.659 702.514, 790.964 707.477 C 786.270 712.440, 778.845 720.314, 774.464 724.976 C 762.608 737.594, 749.830 751.078, 747 753.960 C 745.625 755.360, 739.775 761.679, 734 768.003 C 721.475 781.718, 721.988 781.288, 716.147 782.931 C 707.630 785.326, 648.363 805.198, 635.250 810.055 C 630.029 811.989, 623.777 814.271, 613.750 817.901 C 607.425 820.190, 592.285 825.872, 589.500 827.001 C 588.400 827.447, 582.550 829.705, 576.500 832.018 C 570.450 834.331, 563.592 837.073, 561.261 838.111 C 558.929 839.150, 556.432 840, 555.711 840 C 554.990 840, 553.972 840.380, 553.450 840.844 C 552.927 841.308, 549.800 842.736, 546.500 844.018 C 543.200 845.299, 538.242 847.359, 535.483 848.596 C 532.723 849.834, 528.034 851.804, 525.063 852.975 C 522.092 854.146, 517.600 856.032, 515.081 857.166 C 512.561 858.300, 508.475 860.127, 506 861.226 C 503.525 862.325, 499.124 864.299, 496.220 865.612 C 493.317 866.925, 490.755 868, 490.528 868 C 490.302 868, 485.028 870.400, 478.808 873.334 C 472.589 876.268, 465.700 879.481, 463.500 880.474 C 446.492 888.152, 393.943 914.895, 383 921.443 C 379.975 923.252, 375.475 925.851, 373 927.217 C 303.894 965.356, 244.708 1015.038, 218.338 1057.043 C 211.327 1068.211, 202.270 1087.601, 199.909 1096.500 C 199.471 1098.150, 198.628 1101.300, 198.036 1103.500 C 190.440 1131.709, 193.915 1164.140, 207.359 1190.500 C 217.683 1210.743, 236.709 1231.479, 258.500 1246.238 C 274.552 1257.111, 301.836 1269.955, 323 1276.602 C 331.975 1279.421, 333.700 1279.892, 346 1282.875 C 364.386 1287.335, 383.408 1290.432, 409.500 1293.216 C 424.818 1294.850, 489.756 1294.765, 507 1293.089 C 537.360 1290.137, 561.818 1286.918, 584.500 1282.891 C 600.933 1279.973, 609.774 1278.290, 615.500 1276.990 C 617.700 1276.490, 624 1275.121, 629.500 1273.947 C 638.626 1271.998, 664.438 1265.953, 678 1262.588 C 698.307 1257.550, 736.041 1246.828, 757.500 1240 C 763 1238.250, 770.200 1236.004, 773.500 1235.008 C 782.699 1232.233, 826.083 1217.638, 839 1212.974 C 845.325 1210.690, 855.450 1207.023, 861.500 1204.825 C 867.550 1202.628, 873.400 1200.578, 874.500 1200.270 C 875.600 1199.963, 877.057 1199.275, 877.738 1198.743 C 879.061 1197.708, 878.982 1197.561, 880.828 1204.500 C 890.390 1240.442, 906.431 1266.412, 927.900 1280.710 C 943.495 1291.095, 960.809 1291.014, 970.992 1280.508 C 975.820 1275.527, 974.177 1274, 963.992 1274 C 945.656 1274, 935.564 1261.287, 931.446 1233 C 929.294 1218.217, 929.837 1190.913, 932.568 1176.500 C 932.870 1174.909, 937.808 1172.589, 956.724 1165.155 C 994.173 1150.435, 998.223 1148.890, 998.538 1149.205 C 998.702 1149.368, 998.403 1151.751, 997.876 1154.501 C 990.237 1194.324, 990.554 1223.501, 998.801 1239.593 C 1001.317 1244.500, 1007.209 1250.430, 1011.222 1252.092 C 1014.016 1253.249, 1014.453 1253.158, 1016.144 1251.070 C 1017.165 1249.810, 1018.001 1247.366, 1018.003 1245.639 C 1018.009 1238.802, 1026.783 1200.296, 1033.074 1179.500 C 1034.239 1175.650, 1035.410 1171.568, 1035.678 1170.429 C 1035.946 1169.290, 1038.993 1159.852, 1042.450 1149.455 L 1048.735 1130.551 1054.117 1128.663 C 1057.078 1127.625, 1064.450 1125.046, 1070.500 1122.932 C 1076.550 1120.818, 1088.025 1116.793, 1096 1113.989 C 1103.975 1111.184, 1121.075 1105.341, 1134 1101.004 C 1146.925 1096.667, 1166.950 1089.872, 1178.500 1085.904 C 1190.050 1081.936, 1208.500 1075.598, 1219.500 1071.821 C 1230.500 1068.043, 1247.600 1062.220, 1257.500 1058.880 C 1267.400 1055.541, 1276.850 1052.227, 1278.500 1051.516 C 1280.150 1050.805, 1285.100 1048.868, 1289.500 1047.211 C 1302.146 1042.450, 1317.762 1036.187, 1327 1032.173 C 1341.927 1025.686, 1336.467 1023.633, 1316 1028.037 C 1300.267 1031.423, 1290.184 1033.695, 1285 1035.023 C 1283.075 1035.516, 1278.575 1036.653, 1275 1037.549 C 1268.803 1039.103, 1265.704 1039.864, 1257.250 1041.906 C 1251.073 1043.398, 1234.040 1047.910, 1226.528 1050.044 C 1222.662 1051.143, 1217.700 1052.543, 1215.500 1053.156 C 1213.300 1053.769, 1210.150 1054.657, 1208.500 1055.130 C 1206.850 1055.603, 1202.125 1056.899, 1198 1058.011 C 1193.875 1059.124, 1187.575 1060.911, 1184 1061.984 C 1180.425 1063.057, 1174.350 1064.830, 1170.500 1065.923 C 1156.974 1069.765, 1148.476 1072.215, 1146 1072.988 C 1144.625 1073.417, 1141.700 1074.265, 1139.500 1074.873 C 1131.875 1076.981, 1117.470 1081.164, 1111.250 1083.077 C 1107.813 1084.135, 1102.188 1085.866, 1098.750 1086.925 C 1085.660 1090.957, 1061.532 1097.865, 1061.311 1097.645 C 1060.599 1096.932, 1070.339 1069.737, 1074.885 1059.747 C 1075.948 1057.411, 1079.150 1049.650, 1082 1042.500 C 1086.984 1029.996, 1088.213 1027.115, 1093.727 1015 C 1095.104 1011.975, 1097.924 1005.675, 1099.994 1001 C 1103.801 992.399, 1106.925 985.628, 1115.446 967.500 C 1123.953 949.404, 1140.426 916.855, 1141.374 916.269 C 1141.885 915.953, 1142.914 916.551, 1143.660 917.597 C 1151.703 928.876, 1166.131 938, 1175.923 938 C 1210.394 938, 1302.829 857.224, 1345.657 789.676 C 1363.929 760.859, 1372.355 738.256, 1372.378 718 C 1372.394 704.595, 1370.389 697.393, 1364.059 688.110 C 1348.778 665.700, 1332.699 663.789, 1305.183 681.113 C 1291.054 690.008, 1270.696 706.579, 1253.250 723.384 C 1244.549 731.765, 1241.573 733.660, 1246 728 C 1247.076 726.625, 1247.966 725.198, 1247.978 724.829 C 1247.990 724.460, 1250.250 720.262, 1253 715.500 C 1255.750 710.738, 1258 706.688, 1258 706.500 C 1258 706.312, 1260.250 702.262, 1263 697.500 C 1265.750 692.738, 1268 688.688, 1268 688.500 C 1268 688.312, 1270.155 684.410, 1272.788 679.829 C 1285.334 658.003, 1286.875 650.033, 1280.513 639.863 C 1276.771 633.881, 1269.186 627.275, 1265.044 626.392 C 1263.645 626.094, 1260.864 624.983, 1258.864 623.925 C 1254.471 621.599, 1245.592 621.359, 1241.396 623.452 C 1239.795 624.251, 1237.064 626.389, 1235.329 628.202 C 1230.360 633.394, 1216.003 654.097, 1215.403 656.935 C 1214.485 661.283, 1213.083 664.050, 1206.427 674.654 C 1202.892 680.285, 1200 685.130, 1200 685.422 C 1200 685.714, 1197.380 690.351, 1194.178 695.726 C 1190.976 701.102, 1186.643 708.650, 1184.549 712.500 C 1182.455 716.350, 1179.058 722.425, 1177 726 C 1174.942 729.575, 1171.684 735.425, 1169.762 739 C 1167.839 742.575, 1164.329 749.100, 1161.963 753.500 C 1159.596 757.900, 1156.870 762.916, 1155.905 764.647 C 1153.129 769.625, 1144.157 786.414, 1137.279 799.500 C 1125.653 821.622, 1092.479 888.341, 1085.568 903.500 C 1081.807 911.750, 1077.216 921.803, 1075.365 925.839 C 1073.514 929.876, 1072 933.350, 1072 933.559 C 1072 933.769, 1070.925 936.317, 1069.612 939.220 C 1068.299 942.124, 1066.319 946.525, 1065.212 949 C 1061.073 958.257, 1054.173 974.916, 1049.266 987.500 C 1046.478 994.650, 1042.528 1004.775, 1040.489 1010 C 1030.652 1035.202, 1020.504 1065.457, 1012.553 1093.285 C 1009.130 1105.267, 1005.918 1115.443, 1005.415 1115.897 C 1004.912 1116.352, 997.525 1119.012, 989 1121.808 C 980.475 1124.605, 966.975 1129.119, 959 1131.840 C 939.013 1138.658, 940 1138.416, 940 1136.503 C 940 1132.247, 948.643 1100.141, 961.805 1055.500 C 965.085 1044.377, 984.390 987.531, 989.992 972.500 C 991.016 969.750, 993.271 963.450, 995.001 958.500 C 998.684 947.967, 1001.552 940.317, 1009.999 918.500 C 1013.406 909.700, 1017.006 900.250, 1017.999 897.500 C 1020.711 889.989, 1028.041 870.913, 1029.527 867.500 C 1030.245 865.850, 1034.054 856.400, 1037.991 846.500 C 1046.589 824.878, 1053.859 807.139, 1055.096 804.764 C 1055.593 803.809, 1056 802.566, 1056 802.003 C 1056 801.439, 1056.952 798.846, 1058.116 796.239 C 1059.280 793.633, 1060.807 790.150, 1061.508 788.500 C 1062.210 786.850, 1063.958 782.899, 1065.392 779.720 C 1066.826 776.542, 1068 773.740, 1068 773.495 C 1068 773.250, 1069.350 770.103, 1071 766.500 C 1072.650 762.897, 1074 759.750, 1074 759.505 C 1074 759.260, 1075.081 756.683, 1076.402 753.780 C 1077.723 750.876, 1080.704 744, 1083.026 738.500 C 1085.348 733, 1088.253 726.250, 1089.482 723.500 C 1090.711 720.750, 1092.335 716.772, 1093.091 714.660 C 1094.807 709.869, 1095.146 709.696, 1109.070 706.491 C 1115.357 705.045, 1126.125 702.520, 1133 700.882 C 1139.875 699.244, 1147.412 697.475, 1149.750 696.952 C 1152.088 696.428, 1155.912 695.572, 1158.250 695.049 C 1165.841 693.350, 1172.344 691.999, 1180.500 690.428 C 1184.900 689.580, 1188.950 688.432, 1189.500 687.876 C 1194.498 682.825, 1161.270 682.480, 1117.189 687.126 C 1111.519 687.723, 1106.621 687.954, 1106.305 687.638 C 1105.653 686.986, 1106.867 683.734, 1111.770 673 C 1113.654 668.875, 1116.075 663.286, 1117.150 660.581 C 1119.050 655.797, 1120.538 652.401, 1125.727 641 C 1127.104 637.975, 1129.924 631.675, 1131.994 627 C 1135.934 618.100, 1140.025 609.238, 1146.765 595 C 1148.978 590.325, 1151.698 584.475, 1152.808 582 C 1161.655 562.274, 1180.760 523.112, 1210.095 464.572 C 1240.939 403.021, 1259.523 366.688, 1270.298 346.866 C 1272.202 343.365, 1275.892 336.450, 1278.499 331.500 C 1281.105 326.550, 1284.535 320.137, 1286.119 317.250 C 1289.807 310.530, 1293.868 303.078, 1297.971 295.500 C 1301.283 289.383, 1305.529 282.418, 1314.159 268.942 C 1316.982 264.535, 1319 260.222, 1319 258.596 C 1319 255.713, 1316.183 250, 1314.761 250 C 1314.317 250, 1310.251 246.481, 1305.727 242.180 C 1297.079 233.960, 1293.824 231.681, 1283.791 226.821 C 1279.070 224.534, 1276.859 223.991, 1274.252 224.481 C 1271.519 224.993, 1269.944 224.531, 1266.167 222.107 C 1255.538 215.287, 1247.436 214.079, 1242.151 218.527 M 2655 341.661 C 2645.673 343.240, 2628.431 348.439, 2615.500 353.571 C 2607.033 356.932, 2567.195 376.777, 2546.500 387.944 C 2524.978 399.557, 2499.092 412.215, 2487.500 416.796 C 2462.428 426.703, 2454.898 426.458, 2451.910 415.635 C 2449.528 407.009, 2442.327 403.917, 2425.500 404.297 C 2407.697 404.700, 2406.374 406.318, 2412.080 420.724 C 2421.768 445.183, 2438.588 459.435, 2462.064 463.078 C 2470.536 464.392, 2478.819 463.277, 2493.500 458.844 C 2511.812 453.314, 2545.383 435.373, 2573.500 416.089 C 2597.028 399.952, 2615.954 385.788, 2615.980 384.297 C 2616.029 381.382, 2651.280 357.110, 2669 347.790 C 2678.239 342.931, 2677.695 341.532, 2666.500 341.369 C 2661.550 341.297, 2656.375 341.428, 2655 341.661 M 2003.500 421.547 C 1991.395 422.755, 1985.461 423.500, 1967.500 426.066 C 1951.414 428.364, 1947.104 429.080, 1931.250 432.093 C 1919.574 434.311, 1917.294 434.779, 1907.500 436.966 C 1902 438.195, 1895.925 439.551, 1894 439.980 C 1883.996 442.212, 1871.675 445.223, 1865 447.067 C 1860.875 448.206, 1853.225 450.236, 1848 451.577 C 1842.775 452.918, 1837.375 454.415, 1836 454.904 C 1834.625 455.392, 1830.125 456.770, 1826 457.965 C 1812.531 461.868, 1798.663 466.194, 1790 469.197 C 1785.325 470.817, 1780.150 472.606, 1778.500 473.172 C 1776.850 473.738, 1774.600 474.584, 1773.500 475.051 C 1772.400 475.517, 1769.475 476.567, 1767 477.384 C 1755.619 481.138, 1726.949 492.273, 1716.188 497.117 C 1713.609 498.278, 1709.475 500.123, 1707 501.218 C 1692.253 507.739, 1668.959 519.047, 1659.500 524.276 C 1655.100 526.709, 1648.350 530.418, 1644.500 532.519 C 1605.787 553.643, 1579.982 574.453, 1585.001 580.501 C 1586.681 582.526, 1588.648 582.387, 1591.990 580.007 C 1601.720 573.079, 1683.446 532, 1687.500 532 C 1687.742 532, 1690.542 530.826, 1693.720 529.392 C 1696.899 527.958, 1700.963 526.158, 1702.750 525.392 C 1704.537 524.626, 1707.688 523.276, 1709.750 522.391 C 1711.813 521.506, 1714.807 520.156, 1716.404 519.391 C 1718.001 518.626, 1719.693 518, 1720.165 518 C 1720.636 518, 1722.929 517.149, 1725.261 516.108 C 1749.109 505.466, 1807.075 484.986, 1852 471.331 C 1876.963 463.744, 1922.539 451.858, 1941 448.122 C 1943.475 447.621, 1950.225 446.236, 1956 445.044 C 2044.928 426.688, 2097.042 430.252, 2116.207 456 C 2121.657 463.321, 2127.466 484.732, 2125.614 490.672 C 2125.301 491.677, 2124.574 495.875, 2123.998 500 C 2120.424 525.615, 2107.671 554.411, 2085.375 587.205 C 2075.685 601.458, 2074.352 603.260, 2069.690 608.401 C 2067.525 610.788, 2066.999 611.041, 2067.398 609.500 C 2068.685 604.525, 2070.177 589.353, 2069.716 585.919 C 2069.436 583.830, 2068.452 580.631, 2067.530 578.810 C 2066.609 576.990, 2065.452 573.086, 2064.961 570.136 C 2062.863 557.541, 2046.446 543.200, 2029.226 538.920 C 2019.113 536.407, 2005.828 541.242, 1985.522 554.825 C 1955.976 574.589, 1916.284 617.443, 1898.174 649.132 C 1897.115 650.984, 1894.316 655.650, 1891.955 659.500 C 1880.799 677.688, 1870.681 702.460, 1865.371 724.591 C 1863.913 730.666, 1863.855 730.735, 1841.705 752.776 C 1819.674 774.698, 1807.088 786.232, 1795.449 795.166 C 1788.893 800.198, 1782.016 804.349, 1781.346 803.679 C 1780.796 803.129, 1785.233 789.964, 1788.693 781.878 C 1792.249 773.568, 1809.707 739.274, 1812.127 735.846 C 1813.157 734.386, 1814 732.934, 1814 732.619 C 1814 732.305, 1816.609 727.649, 1819.797 722.274 C 1832.650 700.603, 1833.741 696.070, 1828.599 685.710 C 1825.184 678.827, 1820.687 674.849, 1813.814 672.629 C 1801.824 668.757, 1796.769 671.680, 1780.306 692 C 1773.080 700.918, 1698.446 775.103, 1681.998 789.715 C 1669.675 800.662, 1654.873 812.207, 1654.122 811.456 C 1652.392 809.725, 1666.215 778.764, 1675.745 763.025 C 1708.569 708.816, 1761.978 653.684, 1798.448 636.364 C 1808.943 631.380, 1810.822 631.458, 1813.884 637 C 1816.814 642.303, 1819.598 645, 1822.144 645 C 1826.539 645, 1833.017 633.844, 1833.005 626.295 C 1832.991 617.063, 1824.535 602.678, 1815.439 596.414 C 1794.675 582.113, 1768.523 591.680, 1721 630.962 C 1710.094 639.977, 1681.859 668.467, 1671.411 681 C 1645.893 711.608, 1622.070 750.172, 1613.960 774 C 1612.743 777.575, 1611.307 781.053, 1610.768 781.729 C 1609.772 782.981, 1600.884 788.546, 1586.500 796.926 C 1578.210 801.755, 1545.538 818, 1544.115 818 C 1543.671 818, 1541.946 818.679, 1540.282 819.509 C 1533.899 822.694, 1513.315 829.808, 1501 833.087 C 1481.392 838.307, 1458.767 840.018, 1448.500 837.058 C 1442.849 835.429, 1437 832.275, 1437 830.856 C 1437 829.284, 1481.821 785.058, 1492 776.587 C 1493.925 774.985, 1497.771 771.610, 1500.547 769.087 C 1536.210 736.674, 1590.531 693.556, 1622.171 672.547 C 1635.592 663.635, 1637.139 661.483, 1634.934 654.800 C 1632.105 646.229, 1618.640 635.336, 1608.530 633.440 C 1600.835 631.996, 1581.933 643.748, 1541 675.426 C 1537.425 678.193, 1534.275 680.691, 1534 680.978 C 1533.725 681.265, 1531.250 683.286, 1528.500 685.469 C 1509.814 700.303, 1470.965 734.857, 1444.524 760.161 C 1441.237 763.307, 1438.386 765.720, 1438.189 765.523 C 1437.992 765.325, 1439.500 761.640, 1441.540 757.332 C 1454.349 730.288, 1473.351 691.371, 1502.250 633 C 1537.256 562.294, 1536.370 564.831, 1530.294 552.663 C 1526.635 545.337, 1512.916 531.568, 1506.123 528.405 C 1503.030 526.965, 1498.649 524.895, 1496.386 523.806 C 1488.552 520.035, 1488.994 519.526, 1473.750 549.880 C 1464.460 568.380, 1460 578.322, 1460 580.534 C 1460 582.621, 1456.608 590.817, 1450.637 603.154 C 1445.487 613.794, 1440.134 624.975, 1438.742 628 C 1437.349 631.025, 1433.912 638.372, 1431.105 644.327 C 1428.297 650.282, 1426 655.310, 1426 655.500 C 1426 655.690, 1423.703 660.718, 1420.896 666.673 C 1412.595 684.284, 1410.183 689.577, 1401.835 708.500 C 1393.373 727.681, 1393.138 728.203, 1387.458 740.500 C 1381.164 754.126, 1378.975 759.154, 1374.828 769.500 C 1372.623 775, 1369.984 781.336, 1368.962 783.581 C 1367.940 785.825, 1366.146 790.100, 1364.974 793.081 C 1363.803 796.061, 1362.237 799.850, 1361.496 801.500 C 1356.979 811.551, 1343.134 848.476, 1337.874 864.500 C 1336.249 869.450, 1333.357 875.750, 1331.447 878.500 C 1329.537 881.250, 1325.780 886.607, 1323.097 890.404 C 1315.816 900.708, 1315.070 903.737, 1318.410 909.436 C 1319.886 911.955, 1322.186 914.731, 1323.522 915.606 L 1325.951 917.198 1325.725 936.849 C 1325.463 959.727, 1326.398 963.977, 1333.205 970.853 C 1339.814 977.528, 1342.381 977.409, 1344.913 970.313 C 1345.662 968.216, 1347.750 963.285, 1349.554 959.355 C 1351.359 955.426, 1354.272 948.901, 1356.028 944.855 C 1357.784 940.810, 1360.578 934.575, 1362.236 931 C 1363.893 927.425, 1366.268 922.250, 1367.512 919.500 C 1368.756 916.750, 1371.175 911.451, 1372.887 907.725 C 1374.599 903.999, 1376 900.705, 1376 900.406 C 1376 899.245, 1387.936 875.150, 1391.615 868.884 C 1393.752 865.245, 1397.262 860.324, 1399.415 857.948 L 1403.331 853.628 1404.915 855.856 C 1420.966 878.415, 1432.847 885.854, 1453 885.964 C 1461.727 886.012, 1481.181 882.227, 1488.500 879.057 C 1489.600 878.580, 1494.325 876.705, 1499 874.889 C 1515.067 868.650, 1537.703 856.215, 1559.500 841.656 C 1571.510 833.634, 1575.240 830.880, 1595.167 815.326 C 1601.034 810.747, 1606.132 807, 1606.497 807 C 1606.861 807, 1606.878 808.281, 1606.534 809.846 C 1605.632 813.951, 1608.445 826.192, 1611.688 832.276 C 1615.618 839.647, 1626.264 850.071, 1633.188 853.326 C 1639.400 856.246, 1646.059 856.801, 1650.703 854.786 C 1661.662 850.030, 1691.794 820.722, 1734.500 773.279 C 1740 767.169, 1744.631 762.301, 1744.792 762.460 C 1744.952 762.620, 1744.395 764.494, 1743.554 766.625 C 1742.712 768.756, 1740.889 775, 1739.501 780.500 C 1733.277 805.168, 1735.736 817.735, 1749.341 830.781 C 1760.910 841.875, 1771.500 844.560, 1782.098 839.087 C 1797.242 831.266, 1826.260 803.373, 1854 769.972 C 1860.990 761.556, 1863 760.390, 1863 764.753 C 1863 768.850, 1866.488 780.280, 1869.686 786.667 C 1875.178 797.630, 1891.127 811.049, 1903.337 814.978 C 1910.737 817.359, 1918.635 816.338, 1930.313 811.490 C 1931.719 810.907, 1931.317 812.172, 1928.525 817.119 C 1926.544 820.628, 1921.061 831.261, 1916.342 840.746 C 1908.118 857.271, 1907.608 858.033, 1904.130 858.981 C 1902.133 859.525, 1898.025 860.688, 1895 861.566 C 1891.975 862.444, 1884.550 864.442, 1878.500 866.008 C 1853.465 872.486, 1847.534 874.093, 1827 879.965 C 1815.175 883.347, 1804.150 886.531, 1802.500 887.040 C 1800.850 887.549, 1794.775 889.352, 1789 891.048 C 1783.225 892.744, 1774.225 895.444, 1769 897.049 C 1763.775 898.653, 1756.350 900.908, 1752.500 902.061 C 1748.650 903.213, 1744.375 904.541, 1743 905.013 C 1741.625 905.485, 1735.775 907.299, 1730 909.045 C 1709.198 915.333, 1655.655 932.968, 1642 938.028 C 1637.325 939.761, 1632.375 941.534, 1631 941.969 C 1624.324 944.078, 1599.589 954.472, 1596.736 956.367 C 1589.209 961.366, 1587.735 970.982, 1593.563 977.066 C 1599.013 982.754, 1607.435 984.814, 1634 986.954 C 1654.896 988.638, 1668.934 990.011, 1675.500 991.014 C 1678.800 991.518, 1684.875 992.445, 1689 993.074 C 1693.125 993.702, 1699.875 994.899, 1704 995.732 C 1708.125 996.565, 1712.625 997.462, 1714 997.723 C 1720.001 998.867, 1734.958 1003.501, 1750.500 1009.032 C 1763.197 1013.550, 1786.094 1026.108, 1797.156 1034.620 C 1805.955 1041.391, 1819.034 1054.118, 1823.399 1060.159 C 1828.514 1067.236, 1834.851 1072.036, 1839.988 1072.725 C 1846.452 1073.592, 1847.385 1072.365, 1855.639 1052.126 C 1857.518 1047.521, 1860.167 1041.320, 1861.527 1038.347 C 1862.887 1035.373, 1864 1032.740, 1864 1032.495 C 1864 1032.250, 1865.350 1029.103, 1867 1025.500 C 1868.650 1021.897, 1870 1018.747, 1870 1018.500 C 1870 1018.253, 1871.402 1015.001, 1873.115 1011.275 C 1879.782 996.777, 1880.950 994.157, 1885.371 983.777 C 1887.883 977.879, 1892.252 968.204, 1895.079 962.277 C 1897.906 956.350, 1901.341 949.025, 1902.713 946 C 1914.994 918.920, 1933.253 882.117, 1934.678 881.570 C 1935.429 881.282, 1942.896 879.441, 1951.272 877.478 C 1959.647 875.516, 1971.900 872.611, 1978.500 871.023 C 1985.100 869.435, 1995 867.187, 2000.500 866.027 C 2006 864.867, 2012.300 863.503, 2014.500 862.996 C 2016.700 862.488, 2025.025 860.690, 2033 859 C 2040.975 857.310, 2049.300 855.509, 2051.500 854.998 C 2053.700 854.488, 2058.200 853.569, 2061.500 852.956 C 2064.800 852.343, 2069.300 851.450, 2071.500 850.972 C 2077.017 849.772, 2084.300 848.363, 2092 847.005 C 2095.575 846.375, 2099.400 845.657, 2100.500 845.410 C 2103.465 844.746, 2123.666 841.046, 2130 840.007 C 2133.025 839.512, 2140.675 838.205, 2147 837.104 C 2166.409 833.724, 2175.948 832.148, 2190 829.997 C 2211.495 826.707, 2216.155 825.980, 2222 825.001 C 2225.025 824.494, 2231.325 823.586, 2236 822.983 C 2240.675 822.380, 2247.425 821.488, 2251 821 C 2260.373 819.721, 2272.648 818.174, 2279 817.470 C 2282.025 817.134, 2288.100 816.434, 2292.500 815.913 C 2358.426 808.108, 2417.333 804.709, 2440.202 807.392 C 2456.854 809.346, 2456 809.343, 2456 807.452 C 2456 801.594, 2436.363 792.845, 2415 789.184 C 2372.282 781.864, 2284.868 785.479, 2202.500 797.971 C 2198.650 798.555, 2192.125 799.468, 2188 800 C 2181.096 800.890, 2175.875 801.666, 2161 804.009 C 2143.135 806.824, 2117.495 811.306, 2109.500 813.013 C 2107.300 813.482, 2102.800 814.350, 2099.500 814.940 C 2096.200 815.531, 2085.400 817.643, 2075.500 819.633 C 2065.600 821.624, 2055.700 823.596, 2053.500 824.017 C 2049.021 824.872, 2043.895 825.977, 2030 829.080 C 2024.775 830.247, 2018.925 831.552, 2017 831.980 C 2015.075 832.409, 2009.900 833.519, 2005.500 834.448 C 2001.100 835.376, 1993.900 836.971, 1989.500 837.991 C 1985.100 839.011, 1975.529 841.230, 1968.231 842.923 C 1954.744 846.050, 1952 846.470, 1952 845.403 C 1952 844.720, 1961.881 825.948, 1967.741 815.500 C 1969.900 811.650, 1972.930 806.250, 1974.475 803.500 C 1984.806 785.106, 2001.166 759.457, 2008.198 750.631 C 2023.477 731.453, 2041.455 708.023, 2053.954 691 C 2058.598 684.675, 2065.381 675.450, 2069.026 670.500 C 2076.320 660.595, 2089.453 641.136, 2095.685 631 C 2115.744 598.377, 2119.202 592.366, 2126.369 577.663 C 2134.428 561.133, 2136.285 556.979, 2138.962 549.500 C 2142.790 538.804, 2143.752 535.638, 2145.796 527 C 2149.518 511.266, 2150 507.885, 2150 497.473 C 2150 454.600, 2123.918 427.969, 2075.564 421.470 C 2061.996 419.646, 2022.108 419.689, 2003.500 421.547 M 1123.787 429.776 C 1117.622 435.439, 1105.493 446.053, 1099.532 451 C 1097.876 452.375, 1093.141 456.665, 1089.010 460.532 C 1084.880 464.400, 1079.250 469.536, 1076.500 471.944 C 1073.750 474.353, 1069.250 478.399, 1066.500 480.935 C 1063.750 483.471, 1050.475 495.644, 1037 507.987 C 1023.525 520.330, 1010.904 532.019, 1008.954 533.964 C 1007.004 535.909, 1002.954 539.724, 999.954 542.443 C 959.237 579.347, 779.509 757.842, 781.282 759.615 C 781.732 760.065, 786.034 758.846, 801.500 753.882 C 804.800 752.823, 808.850 751.542, 810.500 751.035 C 816.881 749.076, 856.092 738.039, 867.500 734.991 C 874.100 733.227, 882.425 730.978, 886 729.993 C 889.575 729.007, 896.550 727.235, 901.500 726.053 C 906.450 724.872, 912.075 723.493, 914 722.989 C 919.129 721.647, 928.910 719.422, 942.500 716.505 C 949.100 715.089, 956.300 713.503, 958.500 712.982 C 964.683 711.518, 977.347 709.072, 990 706.899 C 996.325 705.812, 1002.333 704.671, 1003.350 704.363 C 1005.286 703.776, 1005.591 703.164, 1014.005 683 C 1021.024 666.177, 1024.239 658.701, 1030.772 644 C 1035.640 633.047, 1036.955 630.061, 1040.023 623 C 1041.815 618.875, 1045.243 611.296, 1047.640 606.158 C 1050.038 601.019, 1052 596.645, 1052 596.437 C 1052 596.229, 1053.075 593.683, 1054.388 590.780 C 1055.701 587.876, 1057.788 583.250, 1059.025 580.500 C 1060.262 577.750, 1063.237 571.296, 1065.637 566.158 C 1068.037 561.019, 1070 556.676, 1070 556.507 C 1070 556.162, 1075.709 543.801, 1083.105 528.129 C 1085.797 522.425, 1088 517.605, 1088 517.417 C 1088 517.229, 1090.700 511.380, 1094 504.418 C 1097.300 497.457, 1100 491.607, 1100 491.419 C 1100 491.231, 1102.977 484.873, 1106.616 477.289 C 1114.379 461.110, 1117.879 453.625, 1124.987 438 C 1127.865 431.675, 1130.675 425.938, 1131.232 425.250 C 1134.023 421.806, 1129.408 424.611, 1123.787 429.776 M 2523 481.346 C 2517.941 482.973, 2500.224 501.287, 2489.445 516.033 C 2484.525 522.763, 2476.676 532.596, 2472.002 537.884 C 2467.328 543.173, 2461.928 549.286, 2460.002 551.468 C 2458.076 553.651, 2454.221 557.926, 2451.436 560.968 C 2448.650 564.011, 2440.585 573.025, 2433.513 581 C 2421.680 594.345, 2413.270 603.658, 2396 622.543 C 2384.788 634.802, 2345.120 674.453, 2344.593 673.926 C 2344.316 673.650, 2344.677 671.866, 2345.395 669.962 C 2346.113 668.058, 2347.294 664.925, 2348.021 663 C 2348.748 661.075, 2355.268 647.800, 2362.509 633.500 C 2374.733 609.361, 2378.466 602.256, 2383.001 594.500 C 2383.966 592.850, 2386.226 588.800, 2388.023 585.500 C 2389.820 582.200, 2394.759 573.425, 2398.999 566 C 2403.239 558.575, 2407.973 550.250, 2409.521 547.500 C 2411.068 544.750, 2414.132 539.350, 2416.331 535.500 C 2425.907 518.728, 2426.272 517.482, 2423.383 511.394 C 2421.011 506.396, 2412.067 498.647, 2406.898 497.111 C 2404.479 496.393, 2401.719 495.399, 2400.764 494.903 C 2396.107 492.482, 2386.981 494.621, 2381.198 499.487 C 2376.705 503.267, 2364.114 521.220, 2362.093 526.726 C 2361.130 529.352, 2358.465 534.583, 2356.171 538.352 C 2353.877 542.121, 2352 545.348, 2352 545.523 C 2352 545.699, 2349.705 549.815, 2346.900 554.671 C 2344.095 559.527, 2339.751 567.325, 2337.247 572 C 2334.743 576.675, 2331.712 582.300, 2330.511 584.500 C 2317.671 608.013, 2313.978 614.107, 2309.717 618.812 C 2303.211 625.997, 2298.707 635.577, 2298.850 641.928 C 2298.998 648.506, 2296.274 652.089, 2272.253 676.917 C 2253.663 696.131, 2242.017 707, 2240.020 707 C 2239.185 707, 2242.568 692.986, 2245.452 684.500 C 2249.177 673.539, 2257 654.563, 2264.004 639.500 C 2265.538 636.200, 2268.880 629, 2271.430 623.500 C 2276.014 613.612, 2280.393 604.905, 2291.546 583.500 C 2312.375 543.526, 2314 539.820, 2314 532.301 C 2314 525.665, 2311.890 520.866, 2306.383 514.978 C 2296.126 504.013, 2285.022 503.018, 2274.909 512.158 C 2271.503 515.236, 2260.249 531.655, 2255.482 540.500 C 2253.407 544.350, 2251.381 547.950, 2250.980 548.500 C 2250.578 549.050, 2247.948 553.860, 2245.134 559.190 C 2242.321 564.519, 2238.745 571.044, 2237.188 573.690 C 2235.631 576.335, 2232.713 581.875, 2230.703 586 C 2226.564 594.493, 2225.706 595.741, 2214.134 610.111 C 2209.532 615.825, 2204.357 622.270, 2202.634 624.434 C 2171.776 663.176, 2118.641 721.953, 2116.446 719.774 C 2116.044 719.375, 2116.156 718.475, 2116.694 717.774 C 2117.232 717.073, 2118.725 713.800, 2120.011 710.500 C 2128.702 688.193, 2155.606 634.142, 2164.103 621.918 C 2165.630 619.720, 2171.353 610.059, 2177.975 598.500 C 2178.921 596.850, 2182.913 590.620, 2186.847 584.655 C 2190.781 578.690, 2194 573.384, 2194 572.865 C 2194 572.345, 2193.103 570.162, 2192.006 568.013 C 2189.131 562.377, 2182.237 557.977, 2174.663 556.944 C 2171.273 556.482, 2167.517 555.811, 2166.316 555.452 C 2158.005 552.974, 2148.058 563.945, 2127.285 598.500 C 2094.681 652.737, 2075.203 693.365, 2067.006 724.233 C 2064.003 735.544, 2068.393 748.396, 2078.484 757.836 C 2089.600 768.235, 2098.608 770.547, 2107.054 765.169 C 2119.934 756.969, 2148.019 727.710, 2183.649 685.372 C 2188.681 679.392, 2193.775 673.375, 2194.969 672 L 2197.139 669.500 2196.479 672.500 C 2196.116 674.150, 2194.889 679.550, 2193.751 684.500 C 2191.169 695.740, 2190.744 716.152, 2192.950 723 C 2197.422 736.885, 2211.620 748.320, 2224.539 748.443 C 2232.112 748.515, 2238.062 745.171, 2249.011 734.690 C 2261.249 722.976, 2266.490 716.829, 2284.024 693.621 C 2288.961 687.087, 2293.018 681.912, 2293.040 682.121 C 2293.062 682.329, 2293.260 684.856, 2293.481 687.735 C 2294.074 695.455, 2298.974 704.948, 2305.160 710.358 C 2316.941 720.664, 2326.257 722.970, 2335.122 717.774 C 2345.606 711.630, 2373.473 685.356, 2397.459 659 C 2400.713 655.425, 2406.112 649.575, 2409.458 646 C 2412.804 642.425, 2419.808 634.801, 2425.021 629.057 C 2439.827 612.746, 2440.932 611.598, 2441.384 612.063 C 2441.617 612.303, 2440.143 617.450, 2438.107 623.500 C 2433.757 636.427, 2431.385 646.704, 2428.872 663.500 C 2422.935 703.195, 2436.707 736.116, 2465.325 750.638 C 2487.729 762.006, 2510.639 759.863, 2543.433 743.333 C 2551.978 739.025, 2576.968 722.247, 2577.707 720.322 C 2578.651 717.862, 2577.166 717.641, 2571.761 719.438 C 2528.537 733.806, 2496.337 739.051, 2484.843 733.596 C 2470.117 726.607, 2474.175 687.184, 2494.992 635 C 2505.985 607.443, 2529.491 562.135, 2551.093 526.865 C 2556.888 517.403, 2558.358 513.068, 2557.784 507.133 C 2556.837 497.323, 2550.025 488.722, 2539.443 483.975 C 2531.704 480.502, 2527.643 479.853, 2523 481.346 M 2032.508 583.137 C 2021.967 588.582, 2004.921 603.249, 1989 620.575 C 1948.245 664.925, 1914.833 727.003, 1911.401 764.750 C 1911.038 768.737, 1911.011 772, 1911.340 772 C 1912.852 772, 1920.243 767.185, 1928 761.146 C 1937.257 753.940, 1983.654 708.295, 1999.136 691.163 C 2033.700 652.916, 2052.018 631.570, 2051.978 629.590 C 2051.827 622.216, 2048.826 591.558, 2047.969 588.622 C 2046.671 584.183, 2042.931 579.990, 2040.295 580.021 C 2039.308 580.033, 2035.804 581.435, 2032.508 583.137 M 1321.297 698.938 C 1305.799 706.173, 1286.533 721.429, 1261.906 745.971 C 1236.062 771.725, 1218.613 792.714, 1193.297 828.500 C 1179.678 847.751, 1151.453 895.306, 1152.572 897.116 C 1160.051 909.218, 1266.351 812.184, 1305.411 757.600 C 1323.028 732.982, 1334.585 709.666, 1333.814 700.304 C 1333.531 696.875, 1333.204 696.478, 1330.500 696.272 C 1328.850 696.146, 1324.709 697.346, 1321.297 698.938 M 988.500 737.767 C 986.064 738.254, 969.096 743.048, 955.500 747.091 C 950 748.727, 943.925 750.495, 942 751.021 C 936.341 752.567, 896.869 764.859, 874 772.197 C 858.006 777.329, 851.437 779.543, 830 787.030 C 820.375 790.391, 810.025 793.976, 807 794.995 C 799.051 797.674, 786.826 802.008, 784.500 802.970 C 783.400 803.426, 780.925 804.339, 779 805 C 777.075 805.661, 774.600 806.582, 773.500 807.046 C 770.838 808.169, 753.262 814.606, 744.500 817.667 C 740.650 819.012, 736.600 820.510, 735.500 820.996 C 734.400 821.481, 730.678 822.870, 727.229 824.081 C 722.912 825.597, 719.983 827.407, 717.826 829.892 C 714.467 833.761, 698.627 851.068, 688 862.480 C 673.651 877.888, 669.121 882.777, 663.437 888.991 C 660.172 892.561, 654.534 898.636, 650.909 902.491 C 647.283 906.346, 642.333 911.750, 639.909 914.500 C 637.484 917.250, 634.825 920.184, 634 921.020 C 630.955 924.105, 619.242 936.795, 610.500 946.480 C 605.550 951.964, 596.100 962.340, 589.500 969.539 C 582.900 976.738, 576.193 984.174, 574.597 986.064 C 573 987.954, 568.500 992.883, 564.597 997.018 C 557.148 1004.909, 553.890 1008.482, 540 1024.002 C 535.325 1029.226, 531.275 1033.725, 531 1034 C 530.725 1034.275, 525.788 1039.675, 520.028 1046 C 514.268 1052.325, 505.024 1062.225, 499.484 1068 C 493.945 1073.775, 485.640 1082.438, 481.029 1087.250 C 476.418 1092.063, 472.243 1096, 471.751 1096 C 469.975 1096, 468 1093.086, 468 1090.467 C 468 1085.162, 481.130 1063.227, 495.295 1044.865 C 499.808 1039.016, 506.874 1029.791, 510.999 1024.365 C 515.123 1018.939, 521.873 1010.415, 525.999 1005.422 C 530.124 1000.430, 535.300 994.143, 537.500 991.452 C 544.839 982.477, 556.448 968.506, 556.988 968 C 557.282 967.725, 562.680 961.425, 568.985 954 C 583.875 936.463, 584.108 936.194, 593.544 925.563 C 597.969 920.578, 604.441 913.125, 607.928 909 C 611.415 904.875, 616.357 899.250, 618.909 896.500 C 621.462 893.750, 626.014 888.575, 629.025 885 C 632.036 881.425, 634.725 878.275, 635.001 878 C 635.277 877.725, 638.398 874.125, 641.937 870 C 645.477 865.875, 650.399 860.373, 652.876 857.773 C 655.353 855.173, 657.080 852.747, 656.714 852.381 C 656.348 852.014, 655.475 852.156, 654.774 852.694 C 654.073 853.232, 650.800 854.724, 647.500 856.009 C 644.200 857.294, 638.676 859.618, 635.225 861.173 C 631.774 862.728, 628.756 864, 628.520 864 C 628.092 864, 610.158 871.570, 602.500 874.982 C 600.300 875.963, 595.125 878.231, 591 880.023 C 586.875 881.815, 579.296 885.243, 574.158 887.640 C 569.019 890.038, 564.659 892, 564.467 892 C 563.083 892, 491.390 927.295, 476.500 935.307 C 454.607 947.087, 444.965 952.462, 434 959 C 430.975 960.804, 427.150 963.068, 425.500 964.033 C 406.074 975.385, 381.245 991.398, 363 1004.342 C 281.012 1062.507, 240.007 1115.630, 240.001 1163.688 C 239.998 1189.809, 253.122 1213.175, 276.789 1229.184 C 301.206 1245.699, 340.413 1257.171, 386 1261.138 C 405.339 1262.821, 453.866 1262.528, 474.500 1260.605 C 502.575 1257.987, 535.514 1253.765, 549 1251.055 C 551.475 1250.558, 556.200 1249.669, 559.500 1249.080 C 562.800 1248.491, 569.100 1247.275, 573.500 1246.379 C 577.900 1245.483, 583.525 1244.383, 586 1243.935 C 591.513 1242.938, 605.291 1239.943, 618 1236.980 C 623.225 1235.762, 629.300 1234.389, 631.500 1233.930 C 636.480 1232.890, 686.998 1219.923, 696.500 1217.246 C 700.350 1216.161, 708 1214.068, 713.500 1212.595 C 719 1211.122, 728 1208.567, 733.500 1206.918 C 739 1205.268, 746.425 1203.071, 750 1202.035 C 753.575 1200.998, 761.225 1198.729, 767 1196.991 C 772.775 1195.253, 778.850 1193.429, 780.500 1192.937 C 782.150 1192.446, 786.200 1191.173, 789.500 1190.108 C 792.800 1189.044, 801.350 1186.329, 808.500 1184.075 C 833.346 1176.243, 847.557 1171.656, 857.500 1168.259 C 863 1166.380, 868.962 1164.407, 870.750 1163.874 L 874 1162.906 874 1140.612 C 874 1119.653, 874.422 1113.181, 877.070 1093.500 C 878.283 1084.479, 878.772 1081.758, 883.092 1060 C 886.372 1043.482, 889.794 1029.624, 897.662 1001 C 900.545 990.509, 900.846 989.466, 902.918 982.750 C 907.508 967.869, 909.080 962.731, 910.873 956.750 C 913.542 947.844, 930.277 898.117, 934.010 888 C 935.735 883.325, 938.281 876.350, 939.668 872.500 C 941.054 868.650, 943.721 861.337, 945.594 856.250 C 947.468 851.163, 950.603 842.612, 952.563 837.250 C 958.283 821.594, 970.894 788.878, 983.637 756.630 C 987.738 746.252, 990.960 737.672, 990.797 737.564 C 990.634 737.456, 989.600 737.548, 988.500 737.767 M 2592.127 883.264 C 2585.792 886.504, 2580.929 894.419, 2569.427 920.215 C 2564.801 930.590, 2551.446 963.370, 2549.959 968 C 2549.517 969.375, 2547.282 975.675, 2544.992 982 C 2539.927 995.990, 2528.854 1029.718, 2525.950 1040 C 2523.044 1050.292, 2523.061 1050.270, 2516.407 1052.319 C 2513.158 1053.320, 2506.225 1055.443, 2501 1057.038 C 2479.637 1063.558, 2475.291 1064.938, 2470.786 1066.632 C 2468.193 1067.607, 2465.812 1068.146, 2465.496 1067.829 C 2464.913 1067.247, 2469.157 1055.913, 2473.587 1046.220 C 2474.914 1043.317, 2476 1040.740, 2476 1040.495 C 2476 1040.250, 2477.350 1037.103, 2479 1033.500 C 2480.650 1029.897, 2482 1026.750, 2482 1026.505 C 2482 1026.260, 2483.075 1023.683, 2484.388 1020.780 C 2490.140 1008.062, 2494.256 998.535, 2502.006 980 C 2504.880 973.125, 2508.375 965.025, 2509.772 962 C 2514.867 950.969, 2513.244 944.761, 2503.250 937.047 C 2497.599 932.685, 2493.287 931.325, 2482.414 930.477 L 2473.328 929.768 2469.327 933.634 C 2466.624 936.245, 2464.265 940.097, 2462.060 945.500 C 2460.263 949.900, 2458.214 954.850, 2457.506 956.500 C 2456.218 959.499, 2447.200 982.638, 2439.968 1001.500 C 2437.859 1007, 2434.252 1016.675, 2431.953 1023 C 2429.654 1029.325, 2426.106 1039, 2424.068 1044.500 C 2422.029 1050, 2417.728 1062.451, 2414.508 1072.169 L 2408.654 1089.837 2400.577 1093.573 C 2371.889 1106.841, 2365.942 1110.194, 2363.861 1114.272 C 2361.589 1118.726, 2362.201 1121.620, 2366.709 1127.747 C 2369.038 1130.914, 2369.053 1131.056, 2367.299 1133.467 C 2364.555 1137.239, 2345.206 1156.008, 2339 1160.918 C 2332.316 1166.207, 2331.848 1165.344, 2334.906 1153.367 C 2340.454 1131.639, 2352.596 1099.760, 2367.991 1066.500 C 2375.224 1050.874, 2376.956 1047.115, 2379.279 1042 C 2380.652 1038.975, 2383.810 1032.225, 2386.295 1027 C 2392.921 1013.072, 2394 1010.147, 2393.996 1006.128 C 2393.983 993.638, 2372.160 982.854, 2358.830 988.751 C 2352.256 991.659, 2346.077 1000.367, 2332.044 1026.500 C 2329.682 1030.900, 2325.472 1038.550, 2322.690 1043.500 C 2316.250 1054.957, 2287.947 1097.396, 2278.007 1110.500 C 2273.834 1116, 2268.914 1122.696, 2267.072 1125.381 C 2264.343 1129.359, 2246.604 1152.038, 2242.557 1156.724 C 2241.976 1157.397, 2237.450 1162.653, 2232.500 1168.404 C 2222.753 1179.728, 2220.272 1181.432, 2222.531 1175.250 C 2223.285 1173.188, 2224.995 1167.900, 2226.333 1163.500 C 2227.670 1159.100, 2230.843 1150.345, 2233.382 1144.043 C 2235.922 1137.742, 2238 1132.250, 2238 1131.838 C 2238 1130.991, 2244.986 1114.527, 2250.449 1102.500 C 2252.447 1098.100, 2254.483 1093.600, 2254.972 1092.500 C 2257.047 1087.833, 2277.191 1047.241, 2278.792 1044.500 C 2279.756 1042.850, 2282.222 1038.663, 2284.272 1035.196 C 2288.723 1027.670, 2289.071 1023.426, 2285.577 1019.273 C 2282.604 1015.740, 2276.006 1012.286, 2270 1011.117 C 2267.525 1010.635, 2263.448 1009.666, 2260.941 1008.964 C 2258.331 1008.233, 2255.124 1007.997, 2253.441 1008.411 C 2248.108 1009.724, 2238.007 1022.401, 2229.397 1038.589 C 2228.786 1039.737, 2226.704 1043.562, 2224.770 1047.089 C 2220.220 1055.386, 2203.794 1088.099, 2201.089 1094.250 C 2199.940 1096.862, 2198.153 1100.912, 2197.118 1103.250 C 2190.627 1117.903, 2188.213 1123.925, 2183.799 1136.465 C 2171.643 1171, 2169.265 1193.479, 2176.231 1208 C 2178.658 1213.059, 2187.942 1222.740, 2192.500 1224.964 C 2194.150 1225.769, 2196.625 1227.176, 2198 1228.090 C 2201.580 1230.469, 2206.213 1231.250, 2209.451 1230.019 C 2215.310 1227.791, 2238.950 1202.101, 2260.449 1174.597 C 2270.303 1161.992, 2288.610 1137.519, 2289.869 1135.269 C 2291.781 1131.853, 2292.265 1135.053, 2290.998 1142.725 C 2286.089 1172.439, 2293.755 1191.495, 2313.770 1199.329 C 2322.415 1202.712, 2329.459 1200.797, 2340.357 1192.100 C 2351.935 1182.860, 2373.966 1157.208, 2386.295 1138.612 C 2388.927 1134.642, 2393.459 1131.018, 2395.809 1131.007 C 2396.529 1131.003, 2396.871 1131.400, 2396.569 1131.889 C 2396.266 1132.378, 2395.290 1136.090, 2394.400 1140.139 C 2393.509 1144.188, 2392.434 1149.075, 2392.011 1151 C 2386.634 1175.444, 2385.562 1183.453, 2385.650 1198.500 C 2385.754 1216.022, 2388.913 1225.527, 2396.536 1231.245 C 2399.972 1233.822, 2401.563 1232.565, 2402.919 1226.200 C 2405.058 1216.159, 2408.087 1208.024, 2410.085 1206.955 C 2411.138 1206.391, 2412 1205.264, 2412 1204.451 C 2412 1203.638, 2412.415 1202.191, 2412.922 1201.236 C 2414.053 1199.108, 2418.773 1186.586, 2423 1174.500 C 2424.731 1169.550, 2427.465 1162.013, 2429.074 1157.750 C 2430.683 1153.487, 2433.393 1146.287, 2435.095 1141.750 C 2436.798 1137.213, 2438.555 1132.600, 2439.001 1131.500 C 2439.447 1130.400, 2441.706 1124.657, 2444.021 1118.738 C 2446.336 1112.819, 2448.740 1107.651, 2449.365 1107.253 C 2451.406 1105.953, 2510.058 1085, 2511.657 1085 C 2512.487 1085, 2511.805 1089.022, 2509.051 1100.359 C 2507.429 1107.037, 2505.179 1117.225, 2504.050 1123 C 2502.921 1128.775, 2501.558 1135.750, 2501.021 1138.500 C 2499.444 1146.584, 2496.255 1171.506, 2495.073 1185 C 2491.168 1229.547, 2498.762 1265.437, 2515.018 1279.262 C 2521.285 1284.592, 2525.792 1286.642, 2527.477 1284.927 C 2528.680 1283.703, 2528.677 1282.649, 2527.455 1277.500 C 2525.800 1270.525, 2525.473 1241.672, 2526.931 1231.192 C 2527.443 1227.511, 2528.381 1220.225, 2529.017 1215 C 2529.652 1209.775, 2530.547 1203.700, 2531.006 1201.500 C 2531.464 1199.300, 2532.341 1194.800, 2532.955 1191.500 C 2535.312 1178.820, 2543.178 1147.075, 2548.688 1128 C 2551.151 1119.475, 2553.535 1111.150, 2553.987 1109.500 C 2554.438 1107.850, 2556.701 1100.200, 2559.016 1092.500 C 2561.331 1084.800, 2563.477 1077.600, 2563.784 1076.500 C 2565.880 1069.012, 2565.644 1069.128, 2592.415 1062.432 C 2606.067 1059.017, 2618.646 1055.951, 2620.368 1055.619 C 2622.091 1055.287, 2625.300 1054.613, 2627.500 1054.121 C 2637.330 1051.923, 2665.339 1046.507, 2674.250 1045.080 C 2700.280 1040.914, 2710.256 1039.627, 2736.786 1037.013 C 2750.793 1035.633, 2784.988 1035.716, 2790.659 1037.144 C 2794.344 1038.072, 2795.363 1038.031, 2796.045 1036.928 C 2798.218 1033.411, 2785.761 1026.488, 2772.551 1023.873 C 2737.958 1017.024, 2673.843 1019.525, 2616.750 1029.950 C 2610.834 1031.030, 2604.292 1032.221, 2594.250 1034.044 C 2581.382 1036.381, 2579 1036.664, 2579 1035.860 C 2579 1034.929, 2596.003 992.132, 2599.206 985 C 2601.528 979.832, 2604.359 973.469, 2607.214 967 C 2612.544 954.927, 2627.186 926.770, 2631.136 921 C 2635.984 913.916, 2638 909.022, 2638 904.334 C 2638 901.471, 2635.470 898, 2633.383 898 C 2632.855 898, 2630.715 895.956, 2628.627 893.458 C 2623.287 887.070, 2618.624 884.308, 2610.185 882.536 C 2600.421 880.486, 2597.315 880.611, 2592.127 883.264 M 1889.682 892.652 C 1889.353 892.980, 1880.403 895.463, 1869.792 898.169 C 1838.888 906.050, 1823.520 910.101, 1809.500 914.063 C 1805.650 915.151, 1800.925 916.476, 1799 917.007 C 1797.075 917.539, 1790.775 919.308, 1785 920.939 C 1779.225 922.570, 1772.025 924.575, 1769 925.395 C 1765.975 926.214, 1759.225 928.064, 1754 929.505 C 1748.775 930.946, 1742.025 932.808, 1739 933.641 C 1735.975 934.475, 1730.350 935.988, 1726.500 937.003 C 1718.143 939.206, 1667.783 953.555, 1663.500 954.953 C 1660.646 955.885, 1641.635 961.258, 1628.281 964.906 C 1624.860 965.840, 1621.802 966.865, 1621.485 967.182 C 1620.808 967.858, 1626.497 968.711, 1637 969.506 C 1683.261 973.009, 1710.313 978.108, 1746.500 990.145 C 1774.033 999.304, 1809.475 1020.216, 1826.259 1037.207 C 1827.776 1038.743, 1829.199 1040, 1829.420 1040 C 1829.642 1040, 1831.069 1036.737, 1832.591 1032.750 C 1837.481 1019.943, 1857.125 970.636, 1858.985 966.500 C 1859.974 964.300, 1863.580 955.975, 1866.998 948 C 1870.416 940.025, 1874.339 931.025, 1875.716 928 C 1877.093 924.975, 1880.444 917.325, 1883.161 911 C 1885.879 904.675, 1888.957 898.050, 1890.001 896.278 C 1891.641 893.495, 1891.414 890.919, 1889.682 892.652 M 1487.500 897.842 C 1485.850 898.850, 1483.983 900.311, 1483.350 901.088 C 1481.249 903.668, 1470 927.059, 1470 928.847 C 1470 929.875, 1466.318 934.639, 1457 945.669 C 1447.868 956.477, 1446.884 957.696, 1428.046 981.500 C 1404.927 1010.715, 1404.752 1010.940, 1393.233 1026.178 C 1387.278 1034.055, 1380.342 1043.200, 1377.818 1046.500 C 1372.254 1053.774, 1343.244 1092.955, 1336.725 1102 C 1334.148 1105.575, 1328.430 1113.450, 1324.019 1119.500 C 1307.364 1142.338, 1299.360 1153.374, 1295 1159.511 C 1292.525 1162.994, 1282.175 1177.384, 1272 1191.488 C 1261.825 1205.592, 1250.800 1221.061, 1247.500 1225.864 C 1244.200 1230.666, 1240.339 1236.149, 1238.920 1238.048 C 1237.501 1239.946, 1233.284 1245.829, 1229.548 1251.120 C 1222.797 1260.683, 1222.720 1260.750, 1216.628 1262.414 C 1213.258 1263.335, 1206 1265.448, 1200.500 1267.110 C 1181.390 1272.883, 1170.486 1276.216, 1168 1277.041 C 1166.625 1277.497, 1160.775 1279.297, 1155 1281.040 C 1138.021 1286.165, 1132.156 1288.002, 1120 1292.004 C 1113.675 1294.086, 1102.425 1297.686, 1095 1300.003 C 1079.107 1304.964, 997.530 1332.015, 991 1334.489 C 983.726 1337.246, 977.087 1339.650, 967.500 1343 C 958.120 1346.278, 948.925 1349.621, 945.500 1351 C 943.255 1351.903, 937.186 1354.159, 922.500 1359.546 C 908.670 1364.619, 900.246 1367.886, 895.261 1370.109 C 892.929 1371.149, 890.562 1372, 890 1372 C 889.438 1372, 886.846 1372.952, 884.239 1374.116 C 876.113 1377.745, 873.790 1378.720, 863.500 1382.823 C 858 1385.016, 850.011 1388.428, 845.746 1390.405 C 841.481 1392.382, 837.809 1394, 837.585 1394 C 835.065 1394, 777.331 1422.842, 760 1432.759 C 739.650 1444.403, 705.377 1466.949, 702 1470.913 C 701.725 1471.236, 699.250 1473.276, 696.500 1475.447 C 671.163 1495.445, 649.847 1523.775, 641.518 1548.519 C 631.830 1577.302, 635.170 1600.129, 652.906 1626.342 C 658.795 1635.045, 673.789 1649.643, 684.080 1656.692 C 691.640 1661.871, 704.869 1669, 706.919 1669 C 708.716 1669, 708.135 1666.431, 705.878 1664.405 C 703.002 1661.822, 696.823 1652.505, 694.336 1647 C 686.095 1628.759, 691.262 1602.822, 708.131 1577.749 C 732.105 1542.117, 787.611 1498.189, 856 1460.725 C 859.025 1459.068, 861.950 1457.385, 862.500 1456.984 C 865.343 1454.917, 919.176 1427.593, 933.016 1421.193 C 936.582 1419.544, 943.550 1416.307, 948.500 1413.999 C 953.450 1411.691, 959.975 1408.676, 963 1407.298 C 966.025 1405.920, 971.803 1403.265, 975.839 1401.396 C 979.876 1399.528, 983.350 1398, 983.559 1398 C 983.769 1398, 986.542 1396.826, 989.720 1395.392 C 992.899 1393.958, 997.075 1392.102, 999 1391.267 C 1000.925 1390.433, 1005.284 1388.457, 1008.687 1386.875 C 1012.090 1385.294, 1015.114 1384, 1015.407 1384 C 1015.701 1384, 1018.317 1382.915, 1021.220 1381.588 C 1024.124 1380.262, 1031.225 1377.296, 1037 1374.998 C 1042.775 1372.700, 1049.300 1370.013, 1051.500 1369.027 C 1061.338 1364.619, 1070.431 1360.797, 1082.500 1355.994 C 1089.650 1353.149, 1097.763 1349.788, 1100.529 1348.526 C 1103.294 1347.263, 1107.585 1345.541, 1110.064 1344.699 C 1112.543 1343.858, 1123.330 1339.713, 1134.036 1335.488 C 1144.741 1331.263, 1158.225 1326.012, 1164 1323.819 C 1169.775 1321.626, 1175.571 1319.402, 1176.879 1318.878 C 1178.188 1318.354, 1179.462 1318.129, 1179.712 1318.378 C 1180.111 1318.778, 1173.707 1328.557, 1165.224 1340.500 C 1157.337 1351.606, 1141.844 1373.563, 1136.044 1381.856 C 1132.445 1387.001, 1127.370 1394.201, 1124.767 1397.856 C 1122.164 1401.510, 1116.337 1409.900, 1111.819 1416.500 C 1107.302 1423.100, 1102.456 1430.131, 1101.053 1432.124 C 1099.649 1434.118, 1093.100 1443.516, 1086.500 1453.010 C 1079.900 1462.503, 1071.172 1475.047, 1067.104 1480.885 C 1050.896 1504.145, 1016.228 1556.779, 1014.178 1561.239 C 1010.717 1568.770, 1011.191 1572.401, 1016.101 1575.959 C 1018.357 1577.593, 1021.084 1579.209, 1022.161 1579.551 C 1027.135 1581.130, 1045.667 1565.321, 1061.491 1546 C 1065.770 1540.775, 1070.968 1534.475, 1073.041 1532 C 1078.010 1526.069, 1089.132 1512.014, 1096 1502.990 C 1099.025 1499.015, 1105.122 1491.204, 1109.549 1485.632 C 1113.977 1480.059, 1118.927 1473.635, 1120.549 1471.355 C 1123.819 1466.761, 1171.082 1404.135, 1173.424 1401.292 C 1175.340 1398.968, 1207.593 1355.994, 1211.459 1350.616 C 1213.086 1348.352, 1223.773 1333.938, 1235.207 1318.584 L 1255.996 1290.668 1262.748 1288.336 C 1266.462 1287.053, 1270.400 1285.583, 1271.500 1285.069 C 1272.600 1284.555, 1277.550 1282.721, 1282.500 1280.995 C 1287.450 1279.268, 1293.862 1276.988, 1296.750 1275.928 C 1326.858 1264.873, 1340.786 1259.744, 1344.265 1258.428 C 1350.270 1256.157, 1371.648 1249, 1372.426 1249 C 1372.816 1249, 1372.869 1249.837, 1372.544 1250.860 C 1372.220 1251.883, 1371.290 1255.820, 1370.477 1259.610 C 1369.665 1263.399, 1368.072 1270.775, 1366.936 1276 C 1363.308 1292.700, 1356.689 1330.274, 1355.133 1343 C 1350.093 1384.230, 1349.017 1407.325, 1351.010 1431.500 C 1354.847 1478.059, 1367.394 1496.910, 1396.212 1499.408 C 1403.239 1500.017, 1404.113 1499.887, 1406.054 1497.946 C 1407.531 1496.469, 1407.983 1495.153, 1407.527 1493.658 C 1404.724 1484.464, 1403.256 1452.333, 1404.938 1437 C 1405.451 1432.325, 1406.394 1422.875, 1407.033 1416 C 1408.233 1403.096, 1409.747 1392.075, 1412.459 1376.500 C 1415.359 1359.844, 1422.871 1327.121, 1427.953 1309 C 1430.036 1301.575, 1432.749 1291.675, 1433.983 1287 C 1437.069 1275.306, 1441.107 1261.806, 1448.079 1239.871 C 1451.335 1229.625, 1454 1220.748, 1454 1220.144 C 1454 1218.666, 1457.539 1216.508, 1463 1214.657 C 1465.475 1213.818, 1471.325 1211.717, 1476 1209.988 C 1480.675 1208.259, 1489.338 1205.079, 1495.250 1202.922 C 1501.162 1200.765, 1510.947 1197.191, 1516.993 1194.981 C 1539.980 1186.576, 1550.562 1182.765, 1552.332 1182.253 C 1554.448 1181.642, 1552.888 1185.018, 1542.980 1202.500 C 1539.863 1208, 1535.165 1216.506, 1532.540 1221.402 C 1529.916 1226.299, 1526.470 1232.506, 1524.884 1235.197 C 1523.298 1237.887, 1522 1240.258, 1522 1240.465 C 1522 1240.673, 1519.705 1244.815, 1516.900 1249.671 C 1514.095 1254.527, 1507.269 1266.600, 1501.732 1276.500 C 1490.207 1297.104, 1492.290 1293.434, 1474.771 1324 C 1449.549 1368.007, 1445.649 1375.463, 1446.362 1378.308 C 1447.360 1382.284, 1454.106 1391.406, 1458.599 1394.855 C 1467.808 1401.924, 1471.327 1399.814, 1483.372 1380 C 1486.882 1374.225, 1491.688 1366.350, 1494.050 1362.500 C 1499.023 1354.397, 1508.890 1336.898, 1520.551 1315.500 C 1522.649 1311.650, 1525.544 1306.475, 1526.985 1304 C 1528.425 1301.525, 1532.017 1294.775, 1534.967 1289 C 1537.917 1283.225, 1541.122 1277.084, 1542.090 1275.353 C 1543.058 1273.622, 1546.203 1267.772, 1549.078 1262.353 C 1551.954 1256.934, 1554.624 1252.050, 1555.013 1251.500 C 1556.025 1250.068, 1562.689 1237.582, 1570.491 1222.500 C 1574.189 1215.350, 1577.453 1209.275, 1577.743 1209 C 1578.244 1208.525, 1577.996 1210.825, 1575.911 1226 C 1575.420 1229.575, 1574.567 1236.775, 1574.015 1242 C 1573.463 1247.225, 1572.551 1255.550, 1571.989 1260.500 C 1569.173 1285.277, 1568.008 1302.111, 1568.004 1318.079 L 1568 1335.657 1571.032 1340.234 C 1575.327 1346.719, 1582.016 1351.832, 1590.530 1355.138 C 1602.014 1359.597, 1602.877 1359.087, 1616.142 1340 C 1622.067 1331.475, 1628.030 1322.670, 1629.392 1320.434 C 1633.997 1312.874, 1668.691 1263.319, 1682.805 1244.143 C 1687.922 1237.189, 1694.424 1228.125, 1697.253 1224 C 1700.082 1219.875, 1703.871 1214.568, 1705.673 1212.207 C 1707.475 1209.846, 1709.377 1207.149, 1709.899 1206.215 C 1711.678 1203.036, 1712.149 1205.794, 1710.605 1210.344 C 1705.585 1225.128, 1699.589 1251.858, 1697.455 1268.963 C 1694.019 1296.510, 1696.634 1311.556, 1707.293 1325.559 C 1714.081 1334.477, 1727.541 1342, 1736.709 1342 C 1750.737 1342, 1774.291 1323.101, 1802.453 1289.250 C 1813.586 1275.868, 1816 1273.513, 1816 1276.040 C 1816 1276.613, 1817.008 1278.525, 1818.240 1280.290 C 1828.486 1294.968, 1839.635 1303.589, 1855.500 1309.100 C 1862.497 1311.531, 1882.116 1310.968, 1890.500 1308.096 C 1914.050 1300.029, 1939.217 1280.372, 1970.072 1245.948 C 1995.423 1217.664, 2027.011 1166.450, 2022.039 1161.693 C 2021.059 1160.755, 2018.621 1162.853, 2010.646 1171.500 C 1994.392 1189.122, 1954.384 1228.859, 1943.500 1238.191 C 1916.109 1261.676, 1890.756 1277.545, 1876.433 1280.172 C 1868.390 1281.647, 1865.378 1280.255, 1862 1273.500 C 1859.667 1268.834, 1859.504 1267.531, 1859.560 1254 C 1859.637 1235.574, 1859.875 1235.057, 1870.870 1229.375 C 1900.476 1214.077, 1938.459 1183.261, 1965.623 1152.500 C 1996.805 1117.189, 2014.825 1083.749, 2011.179 1067.957 C 2008.528 1056.470, 1997.164 1045.974, 1982.101 1041.100 C 1967.864 1036.493, 1936.878 1049.900, 1906.546 1073.790 C 1897.300 1081.072, 1874.690 1103.272, 1865.592 1114 C 1849.213 1133.313, 1840.260 1146.671, 1827.051 1171.500 C 1815.558 1193.104, 1807.317 1225.548, 1808.149 1245.922 L 1808.448 1253.233 1791.974 1269.402 C 1767.873 1293.056, 1748.857 1308.190, 1746.365 1305.698 C 1745.139 1304.472, 1747.876 1287.543, 1752.136 1270 C 1757.759 1246.845, 1771.858 1204.975, 1780.596 1185.483 C 1781.834 1182.723, 1783.804 1178.034, 1784.975 1175.063 C 1786.146 1172.092, 1787.957 1167.789, 1789 1165.500 C 1790.043 1163.211, 1791.775 1159.125, 1792.849 1156.419 C 1793.924 1153.714, 1796.149 1148.575, 1797.794 1145 C 1799.440 1141.425, 1801.734 1136.362, 1802.893 1133.750 C 1804.052 1131.138, 1805.853 1127.088, 1806.896 1124.750 C 1812.152 1112.972, 1813.998 1107.766, 1813.978 1104.780 C 1813.880 1090.084, 1788.251 1071.612, 1773.918 1075.907 C 1767.620 1077.793, 1758.165 1088.358, 1748.996 1103.754 C 1747.113 1106.914, 1743.050 1112.650, 1739.965 1116.500 C 1736.881 1120.350, 1732.027 1126.537, 1729.179 1130.250 C 1726.331 1133.963, 1721.648 1140.037, 1718.774 1143.750 C 1708.686 1156.781, 1656.351 1226.601, 1649.628 1236 C 1645.890 1241.225, 1641.849 1246.625, 1640.648 1248 C 1639.447 1249.375, 1637.385 1252.075, 1636.065 1254 C 1631.344 1260.889, 1626.578 1267, 1625.925 1267 C 1625.560 1267, 1625.829 1263.963, 1626.523 1260.250 C 1627.975 1252.487, 1629.436 1243.713, 1631.059 1233 C 1633.436 1217.317, 1644.960 1155.538, 1649.060 1136.500 C 1649.652 1133.750, 1650.397 1127.335, 1650.715 1122.245 C 1651.281 1113.207, 1651.215 1112.833, 1647.921 1106.245 C 1645.452 1101.307, 1641.861 1096.791, 1634.520 1089.392 C 1623.737 1078.522, 1616.642 1074, 1610.371 1074 C 1602.002 1074, 1592.085 1084.053, 1595.028 1089.553 C 1596.434 1092.180, 1595.255 1098.811, 1591.747 1108 C 1589.164 1114.765, 1564.320 1163.878, 1562.343 1166.127 C 1561.556 1167.022, 1558.795 1168.023, 1556.206 1168.351 C 1553.618 1168.679, 1549.475 1169.357, 1547 1169.858 C 1536.297 1172.022, 1521.912 1175.127, 1514.500 1176.873 C 1493.097 1181.915, 1482.748 1184.427, 1474.538 1186.570 C 1469.609 1187.856, 1465.405 1188.739, 1465.197 1188.531 C 1464.783 1188.116, 1472.517 1163.239, 1477.020 1150.500 C 1478.575 1146.100, 1480.527 1140.475, 1481.358 1138 C 1482.189 1135.525, 1484.277 1129.675, 1486 1125 C 1487.723 1120.325, 1489.800 1114.475, 1490.616 1112 C 1491.433 1109.525, 1492.491 1106.600, 1492.968 1105.500 C 1493.445 1104.400, 1495.702 1098.325, 1497.982 1092 C 1505.455 1071.273, 1512.976 1051.347, 1515.532 1045.500 C 1516.254 1043.850, 1517.803 1040.061, 1518.974 1037.081 C 1520.146 1034.100, 1521.940 1029.825, 1522.961 1027.581 C 1523.981 1025.336, 1527.598 1016.525, 1530.998 1008 C 1534.398 999.475, 1538.186 990.250, 1539.416 987.500 C 1545.114 974.762, 1546.358 970.839, 1544.970 969.981 C 1543.851 969.290, 1543.855 968.439, 1544.995 964.826 C 1545.746 962.447, 1546.654 960.050, 1547.013 959.500 C 1547.371 958.950, 1548.278 956.925, 1549.027 955 C 1549.776 953.075, 1552.321 947.450, 1554.682 942.500 C 1560.323 930.672, 1560.259 929.212, 1553.805 922.387 C 1544.379 912.420, 1528.126 903.001, 1518.500 901.927 C 1515.200 901.558, 1509.800 900.085, 1506.500 898.652 C 1499.224 895.493, 1491.855 895.179, 1487.500 897.842 M 2163 981.626 C 2154.057 984.665, 2149.781 988.961, 2142.182 1002.545 C 2140.042 1006.370, 2136.204 1013.100, 2133.653 1017.500 C 2131.102 1021.900, 2129.012 1026.262, 2129.007 1027.193 C 2129.001 1028.657, 2123.255 1041.617, 2118.133 1051.721 C 2117.235 1053.493, 2113.111 1059.793, 2108.968 1065.721 C 2101.749 1076.053, 2075.482 1115.854, 2054.999 1147.500 C 2049.659 1155.750, 2039.525 1171.275, 2032.479 1182 C 1992.530 1242.811, 1980.809 1261.653, 1975.127 1274.195 C 1972.603 1279.767, 1972.485 1282.113, 1974.516 1286.393 C 1976.019 1289.560, 1980.534 1293, 1983.188 1293 C 1988.710 1293, 2019.382 1250.921, 2055.434 1193.888 C 2058.698 1188.724, 2065.857 1177.525, 2071.344 1169 C 2076.830 1160.475, 2084.032 1149.225, 2087.347 1144 C 2094.462 1132.788, 2096.594 1130.210, 2095.618 1134 C 2090.710 1153.055, 2087.811 1169.680, 2085.503 1192 C 2081.558 1230.167, 2086.522 1253.359, 2102 1269.076 C 2111.834 1279.063, 2119.378 1282.416, 2132.116 1282.463 C 2145.370 1282.513, 2146.188 1281.762, 2143.109 1272.383 C 2138.555 1258.511, 2137.932 1233.627, 2141.518 1208.869 C 2142.344 1203.166, 2143.472 1195.350, 2144.025 1191.500 C 2144.578 1187.650, 2145.429 1182.700, 2145.915 1180.500 C 2146.401 1178.300, 2147.339 1174.025, 2148 1171 C 2148.661 1167.975, 2149.586 1163.925, 2150.056 1162 C 2150.526 1160.075, 2151.204 1157.150, 2151.564 1155.500 C 2153.848 1145.008, 2168.717 1095.991, 2174.087 1081.250 C 2178.638 1068.758, 2180.068 1064.897, 2183.989 1054.500 C 2186.271 1048.450, 2189.007 1041.592, 2190.069 1039.261 C 2191.131 1036.929, 2192 1034.826, 2192 1034.587 C 2192 1034.348, 2194.516 1028.217, 2197.590 1020.964 C 2204.475 1004.722, 2204.402 1003.221, 2196.359 995.493 C 2193.329 992.581, 2188.296 988.853, 2185.175 987.208 C 2180.263 984.620, 2176.865 983.583, 2166.517 981.519 C 2165.408 981.297, 2163.825 981.346, 2163 981.626 M 1975.708 1076.942 C 1956.146 1086.666, 1919.485 1124.069, 1897.196 1157.043 C 1886.351 1173.089, 1870.385 1202.654, 1871.217 1205.152 C 1871.842 1207.026, 1896.380 1189.859, 1910.500 1177.669 C 1922.693 1167.142, 1949.392 1139.879, 1957.672 1129.500 C 1973.299 1109.912, 1982.527 1094.172, 1985.030 1082.836 C 1987.151 1073.225, 1985.406 1072.121, 1975.708 1076.942 M 1419.238 1076.990 C 1418.555 1078.084, 1412.963 1085.397, 1406.811 1093.240 C 1391.175 1113.176, 1385.205 1120.858, 1375.519 1133.500 C 1370.884 1139.550, 1363.777 1148.775, 1359.726 1154 C 1349.985 1166.563, 1332.676 1189.118, 1327.495 1196 C 1311.111 1217.763, 1297 1236.879, 1297 1237.312 C 1297 1237.595, 1298.237 1237.422, 1299.750 1236.928 C 1301.263 1236.434, 1305.650 1235.130, 1309.500 1234.030 C 1313.350 1232.930, 1322.125 1230.408, 1329 1228.425 C 1335.875 1226.442, 1346 1223.549, 1351.500 1221.995 C 1384.167 1212.766, 1382.550 1213.438, 1383.520 1208.681 C 1383.877 1206.931, 1384.976 1202.575, 1385.963 1199 C 1386.950 1195.425, 1388.766 1188.675, 1389.999 1184 C 1391.231 1179.325, 1392.642 1174.150, 1393.134 1172.500 C 1393.626 1170.850, 1398.252 1154.650, 1403.415 1136.500 C 1413.954 1099.451, 1419.653 1080.518, 1421.054 1077.899 C 1422.885 1074.478, 1421.303 1073.684, 1419.238 1076.990 M 2458.500 1299.584 C 2438.315 1300.199, 2398.111 1302.057, 2384.250 1303.015 C 2376.412 1303.557, 2363.363 1304.459, 2355.250 1305.020 C 2328.849 1306.846, 2312.432 1308.253, 2285.500 1311.002 C 2280.550 1311.507, 2271.550 1312.402, 2265.500 1312.991 C 2259.450 1313.580, 2250.900 1314.476, 2246.500 1314.984 C 2242.100 1315.491, 2234 1316.403, 2228.500 1317.010 C 2223 1317.618, 2215.575 1318.513, 2212 1319.001 C 2208.425 1319.488, 2201.900 1320.363, 2197.500 1320.946 C 2193.100 1321.528, 2184.550 1322.704, 2178.500 1323.558 C 2172.450 1324.412, 2164.350 1325.533, 2160.500 1326.048 C 2156.650 1326.563, 2150.575 1327.441, 2147 1328 C 2143.425 1328.559, 2137.350 1329.459, 2133.500 1330 C 2129.650 1330.541, 2123.800 1331.406, 2120.500 1331.921 C 2117.200 1332.436, 2111.125 1333.371, 2107 1334 C 2093.655 1336.034, 2079.702 1338.332, 2064.500 1341 C 2057.900 1342.158, 2050.025 1343.510, 2047 1344.003 C 2043.975 1344.496, 2038.912 1345.373, 2035.750 1345.950 C 2032.588 1346.528, 2027.638 1347.423, 2024.750 1347.940 C 2012.732 1350.092, 2002.194 1352.050, 1997.500 1353.004 C 1994.750 1353.563, 1983.275 1355.820, 1972 1358.020 C 1960.725 1360.221, 1949.700 1362.430, 1947.500 1362.929 C 1945.300 1363.429, 1940.800 1364.361, 1937.500 1365 C 1930.116 1366.431, 1921.931 1368.191, 1909.750 1370.969 C 1907.412 1371.502, 1894.025 1374.448, 1880 1377.516 C 1865.975 1380.583, 1850.675 1383.995, 1846 1385.099 C 1841.325 1386.202, 1834.575 1387.784, 1831 1388.615 C 1811.937 1393.045, 1803.831 1395.016, 1775 1402.231 C 1734.168 1412.449, 1714.054 1417.626, 1706 1419.989 C 1699.408 1421.923, 1690.778 1424.261, 1674.500 1428.525 C 1664.668 1431.101, 1618.475 1444.277, 1602.500 1449.062 C 1597 1450.710, 1589.350 1452.999, 1585.500 1454.150 C 1581.650 1455.300, 1577.375 1456.583, 1576 1457 C 1574.625 1457.417, 1570.125 1458.775, 1566 1460.018 C 1561.875 1461.261, 1556.025 1463.078, 1553 1464.055 C 1549.975 1465.033, 1542.775 1467.258, 1537 1469 C 1531.225 1470.742, 1524.025 1472.992, 1521 1474 C 1517.975 1475.008, 1510.775 1477.269, 1505 1479.023 C 1499.225 1480.778, 1476.725 1488.062, 1455 1495.211 C 1395.144 1514.906, 1394.114 1515.243, 1370 1522.944 C 1357.625 1526.896, 1346.600 1530.521, 1345.500 1531 C 1344.400 1531.479, 1339.225 1533.196, 1334 1534.817 C 1319.273 1539.384, 1292.408 1547.917, 1283 1551.014 C 1278.325 1552.553, 1263.025 1557.516, 1249 1562.043 C 1234.975 1566.569, 1214.950 1573.158, 1204.500 1576.685 C 1194.050 1580.212, 1182.800 1583.931, 1179.500 1584.949 C 1176.200 1585.967, 1168.325 1588.666, 1162 1590.945 C 1155.675 1593.225, 1145.100 1596.916, 1138.500 1599.148 C 1131.900 1601.380, 1125.150 1603.805, 1123.500 1604.536 C 1121.850 1605.267, 1118.475 1606.527, 1116 1607.336 C 1113.525 1608.145, 1108.350 1610.020, 1104.500 1611.501 C 1100.650 1612.983, 1093.900 1615.578, 1089.500 1617.268 C 1085.100 1618.958, 1078.676 1621.614, 1075.225 1623.170 C 1071.774 1624.727, 1068.756 1626, 1068.520 1626 C 1068.283 1626, 1063.232 1628.070, 1057.295 1630.600 C 1046.691 1635.118, 1042.759 1636.845, 1032.220 1641.612 C 1029.317 1642.925, 1026.742 1644, 1026.500 1644 C 1026.258 1644, 1023.683 1645.082, 1020.780 1646.404 C 1000.643 1655.573, 994.315 1657.296, 980.331 1657.419 C 969.194 1657.517, 966 1659.492, 966 1666.278 C 966 1669.799, 966.700 1670.902, 972.750 1676.914 C 986.099 1690.179, 1026.291 1715.547, 1047 1723.778 C 1050.025 1724.981, 1056.754 1727.090, 1061.954 1728.465 C 1067.154 1729.840, 1073.679 1732.071, 1076.454 1733.422 C 1091.563 1740.779, 1099.126 1741.844, 1109.170 1738.027 C 1112.817 1736.642, 1114.730 1736.361, 1115.602 1737.085 C 1116.422 1737.765, 1117.464 1737.783, 1118.672 1737.139 C 1119.677 1736.602, 1125.225 1733.914, 1131 1731.166 C 1164.723 1715.116, 1178.064 1707.979, 1177.757 1706.152 C 1177.505 1704.656, 1190.869 1697.426, 1212.070 1687.588 C 1216.706 1685.436, 1227.814 1680.148, 1236.753 1675.838 C 1245.692 1671.527, 1253.262 1668, 1253.576 1668 C 1253.890 1668, 1258.893 1665.750, 1264.694 1663 C 1270.495 1660.250, 1275.405 1658, 1275.605 1658 C 1275.805 1658, 1278.755 1656.650, 1282.161 1655 C 1295.010 1648.776, 1291.495 1652.526, 1277.990 1659.451 C 1273.309 1661.851, 1265.434 1666.173, 1260.490 1669.057 C 1251.876 1674.080, 1230.625 1686.062, 1222.750 1690.336 C 1218.934 1692.407, 1217.898 1694, 1220.367 1694 C 1221.119 1694, 1233.607 1688.210, 1248.117 1681.134 C 1262.628 1674.057, 1279.225 1666.011, 1285 1663.253 C 1302.402 1654.942, 1319.117 1646.999, 1326 1643.771 C 1329.575 1642.094, 1339.395 1637.409, 1347.822 1633.361 C 1356.249 1629.312, 1363.295 1626, 1363.479 1626 C 1363.664 1626, 1368.019 1624.037, 1373.158 1621.637 C 1378.296 1619.237, 1384.750 1616.262, 1387.500 1615.025 C 1390.250 1613.788, 1394.975 1611.651, 1398 1610.277 C 1401.025 1608.902, 1411.600 1604.204, 1421.500 1599.836 C 1431.400 1595.468, 1440.850 1591.292, 1442.500 1590.556 C 1444.150 1589.821, 1448.875 1587.767, 1453 1585.994 C 1457.125 1584.220, 1462.876 1581.696, 1465.780 1580.384 C 1468.683 1579.073, 1471.258 1578, 1471.500 1578 C 1471.742 1578, 1474.317 1576.918, 1477.220 1575.595 C 1480.124 1574.273, 1487.450 1571.169, 1493.500 1568.698 C 1513.292 1560.615, 1522.443 1556.845, 1526 1555.308 C 1527.925 1554.477, 1530.400 1553.452, 1531.500 1553.032 C 1532.600 1552.612, 1534.625 1551.798, 1536 1551.224 C 1547.288 1546.514, 1634.173 1512.617, 1640 1510.651 C 1642.475 1509.815, 1648.325 1507.717, 1653 1505.988 C 1675.458 1497.681, 1685.985 1494.009, 1717.500 1483.487 C 1736.200 1477.244, 1757.575 1470.259, 1765 1467.965 C 1772.425 1465.671, 1780.525 1463.128, 1783 1462.314 C 1787.794 1460.738, 1817.161 1452.021, 1828 1448.957 C 1831.575 1447.947, 1843.275 1444.616, 1854 1441.556 C 1864.725 1438.496, 1875.075 1435.550, 1877 1435.010 C 1878.925 1434.469, 1885.225 1432.699, 1891 1431.076 C 1904.151 1427.381, 1966.114 1411.887, 1983.500 1407.947 C 1990.650 1406.326, 2002.350 1403.646, 2009.500 1401.990 C 2016.650 1400.334, 2024.525 1398.544, 2027 1398.011 C 2029.475 1397.478, 2035.775 1396.113, 2041 1394.979 C 2046.225 1393.844, 2054.775 1392.051, 2060 1390.995 C 2065.225 1389.938, 2077.150 1387.527, 2086.500 1385.637 C 2095.850 1383.746, 2104.625 1381.985, 2106 1381.723 C 2107.375 1381.461, 2112.100 1380.515, 2116.500 1379.619 C 2120.900 1378.724, 2127.200 1377.509, 2130.500 1376.920 C 2133.800 1376.331, 2138.525 1375.467, 2141 1375 C 2143.475 1374.533, 2148.425 1373.633, 2152 1373 C 2155.575 1372.367, 2160.525 1371.467, 2163 1371 C 2167.806 1370.094, 2176.258 1368.624, 2186 1367 C 2189.300 1366.450, 2194.700 1365.550, 2198 1365 C 2201.300 1364.450, 2206.588 1363.568, 2209.750 1363.039 C 2212.912 1362.510, 2218.537 1361.610, 2222.250 1361.039 C 2225.963 1360.468, 2231.813 1359.553, 2235.250 1359.007 C 2242.794 1357.807, 2260.968 1355.161, 2270.250 1353.910 C 2273.963 1353.409, 2280.262 1352.548, 2284.250 1351.995 C 2303.923 1349.267, 2345.632 1344.148, 2365.750 1341.992 C 2385.515 1339.873, 2394.821 1338.858, 2403 1337.928 C 2432.709 1334.552, 2494.146 1329.657, 2527.500 1328.009 C 2538.500 1327.465, 2549.464 1326.756, 2551.864 1326.432 C 2554.264 1326.108, 2578.789 1325.854, 2606.364 1325.867 C 2663.961 1325.894, 2688.111 1327.543, 2702 1332.398 C 2711.009 1335.547, 2712.901 1332.853, 2706.036 1326.651 C 2691.421 1313.447, 2656.201 1305.708, 2589 1300.934 C 2574.394 1299.896, 2480.220 1298.922, 2458.500 1299.584" stroke="none" fill="currentColor" fill-rule="evenodd"/>
</svg>