<svg role="img" aria-label="Аркадий Амелин" xmlns="http://www.w3.org/2000/svg" width="3072" height="2048" viewBox="0 0 3072 2048" version="1.1">
	<path d="M 1962.894 416.364 C 1947.645 428.040, 1906.880 483.792, 1876.516 534.500 C 1873.881 538.900, 1870.940 543.625, 1869.981 545 C 1869.021 546.375, 1867.171 549.325, 1865.868 551.555 C 1864.566 553.785, 1858.953 563.235, 1853.396 572.555 C 1834.200 604.747, 1816.736 635.001, 1808.978 649.500 C 1806.624 653.900, 1803.191 660.112, 1801.349 663.304 C 1799.507 666.496, 1798 669.351, 1798 669.649 C 1798 669.947, 1797.173 671.386, 1796.161 672.846 C 1795.150 674.306, 1791.992 679.886, 1789.143 685.247 C 1786.294 690.608, 1782.902 696.908, 1781.604 699.247 C 1774.319 712.380, 1768.866 722.294, 1765.516 728.500 C 1763.438 732.350, 1760.503 737.750, 1758.995 740.500 C 1757.487 743.250, 1754.327 749.100, 1751.973 753.500 C 1749.619 757.900, 1745.962 764.578, 1743.846 768.340 C 1741.731 772.101, 1740 775.344, 1740 775.546 C 1740 775.747, 1738.631 778.234, 1736.958 781.071 C 1735.285 783.909, 1731.612 790.566, 1728.797 795.865 C 1721.320 809.938, 1721.327 809.931, 1708.348 816.468 C 1636.999 852.405, 1582.613 900.096, 1570.073 937.718 C 1567.713 944.799, 1567.407 950.263, 1569.284 951.820 C 1571.331 953.519, 1572.729 951.940, 1577.591 942.435 C 1592.735 912.830, 1630.706 878.351, 1680.341 849.133 C 1688.677 844.226, 1706.376 835, 1707.454 835 C 1707.726 835, 1706.610 837.270, 1704.974 840.044 C 1703.338 842.818, 1702 845.273, 1702 845.500 C 1702 845.727, 1700.730 848.069, 1699.178 850.706 C 1697.626 853.343, 1694.409 859.100, 1692.029 863.500 C 1689.649 867.900, 1686.869 872.694, 1685.851 874.154 C 1684.833 875.614, 1684 877.031, 1684 877.302 C 1684 877.574, 1682.200 880.758, 1680 884.380 C 1677.800 888.001, 1676 891.228, 1676 891.552 C 1676 891.875, 1674.650 894.102, 1673 896.500 C 1671.350 898.898, 1670 901.148, 1670 901.500 C 1670 901.852, 1668.650 904.102, 1667 906.500 C 1665.350 908.898, 1664 911.072, 1664 911.331 C 1664 911.589, 1660.789 916.906, 1656.865 923.144 C 1652.941 929.383, 1647.001 938.990, 1643.665 944.494 C 1632.591 962.765, 1588.247 1030.626, 1569.495 1058 C 1554.552 1079.814, 1525.923 1119.751, 1515.014 1134 C 1513.540 1135.925, 1508.748 1142.225, 1504.366 1148 C 1495.561 1159.603, 1481.825 1177.219, 1480.973 1178 C 1480.673 1178.275, 1477.531 1182.100, 1473.990 1186.500 C 1466.101 1196.304, 1452.087 1212.960, 1450.011 1215 C 1449.171 1215.825, 1446.954 1218.300, 1445.085 1220.500 C 1433.837 1233.736, 1408.104 1260.996, 1389.750 1279.121 C 1382.086 1286.690, 1380.616 1289, 1383.466 1289 C 1385.073 1289, 1397.903 1278.591, 1413.500 1264.635 C 1435.713 1244.758, 1476.999 1201.554, 1500.590 1173.500 C 1517.551 1153.330, 1530.866 1136.951, 1539.094 1126.136 C 1559.983 1098.677, 1568.760 1086.955, 1574 1079.514 C 1577.025 1075.219, 1581.329 1069.183, 1583.564 1066.102 C 1601.116 1041.906, 1628.093 1002.032, 1655.686 959.500 C 1679.670 922.531, 1712.051 868.791, 1725.583 843.500 C 1734.709 826.445, 1739.507 818.822, 1742 817.418 C 1744.957 815.753, 1765.959 806, 1766.588 806 C 1766.827 806, 1768.929 805.129, 1771.261 804.064 C 1773.592 802.999, 1778.425 800.927, 1782 799.460 C 1785.575 797.993, 1790.388 795.939, 1792.695 794.896 C 1795.002 793.853, 1797.184 793, 1797.544 793 C 1797.904 793, 1799.744 792.266, 1801.635 791.369 C 1803.525 790.472, 1805.340 790.006, 1805.667 790.334 C 1805.995 790.661, 1804.584 795.558, 1802.533 801.215 C 1796.497 817.858, 1783.407 855.819, 1775.539 879.500 C 1769.344 898.142, 1766.117 908.125, 1759.052 930.500 C 1755.236 942.584, 1748.543 965.726, 1745.604 977 C 1743.668 984.425, 1741.375 993.200, 1740.509 996.500 C 1721.483 1069.019, 1723.367 1128.964, 1745.018 1140.009 C 1752.934 1144.048, 1759.608 1142.238, 1779 1130.792 C 1810.203 1112.376, 1847.006 1097.023, 1881.898 1087.866 C 1888.279 1086.192, 1895.075 1084.408, 1897 1083.903 C 1898.925 1083.398, 1905 1082.040, 1910.500 1080.885 C 1916 1079.730, 1922.300 1078.404, 1924.500 1077.939 C 1968.347 1068.661, 2034.106 1063.339, 2133.500 1061.024 C 2157.700 1060.460, 2197.750 1059.538, 2222.500 1058.976 C 2321.907 1056.716, 2384.776 1053.303, 2443 1047.005 C 2447.675 1046.500, 2456.225 1045.599, 2462 1045.003 C 2467.775 1044.407, 2475.200 1043.518, 2478.500 1043.027 C 2481.800 1042.537, 2488.550 1041.624, 2493.500 1041 C 2509.831 1038.940, 2531.193 1035.618, 2545 1032.993 C 2547.475 1032.522, 2554.675 1031.164, 2561 1029.975 C 2567.325 1028.786, 2575.875 1027.124, 2580 1026.281 C 2584.125 1025.439, 2589.525 1024.392, 2592 1023.954 C 2594.475 1023.516, 2600.775 1022.170, 2606 1020.962 C 2611.225 1019.754, 2617.300 1018.380, 2619.500 1017.910 C 2621.700 1017.439, 2626.875 1016.176, 2631 1015.102 C 2635.125 1014.029, 2644.800 1011.535, 2652.500 1009.560 C 2665.296 1006.278, 2676.572 1003.099, 2683 1000.961 C 2684.375 1000.503, 2690.225 998.713, 2696 996.981 C 2713.155 991.838, 2730.877 985.732, 2753.500 977.171 C 2769.435 971.141, 2780.580 966.773, 2784.500 965.023 C 2786.700 964.040, 2794.125 960.872, 2801 957.982 C 2825.857 947.534, 2865.458 927.400, 2888.795 913.348 C 2953.622 874.310, 2991.145 836.224, 3004.406 796 C 3011.144 775.560, 3010.411 754.036, 3002.404 737.281 C 2999.119 730.405, 2989.653 717.577, 2984.985 713.675 C 2966.701 698.390, 2945.806 689.669, 2916 684.885 C 2905.439 683.190, 2869.518 683.168, 2859 684.851 C 2830.587 689.396, 2808.634 695.205, 2790.250 703.041 C 2789.012 703.568, 2786.988 704.420, 2785.750 704.934 C 2771.814 710.720, 2743.844 725.964, 2737.329 731.323 C 2735.773 732.604, 2732.475 735.032, 2730 736.720 C 2724.345 740.576, 2712.092 751.439, 2708.466 755.810 C 2706.438 758.255, 2706.014 759.414, 2706.842 760.242 C 2707.670 761.070, 2711.340 759.096, 2720.882 752.693 C 2740.058 739.825, 2766.125 725.394, 2778 721.072 C 2779.925 720.371, 2782.400 719.400, 2783.500 718.913 C 2793.367 714.544, 2817.297 707.882, 2831.500 705.550 C 2869.031 699.385, 2898.685 701.575, 2925.834 712.516 C 2949.816 722.180, 2965.010 737.635, 2972.098 759.576 C 2975.194 769.158, 2975.190 786.079, 2972.090 797.500 C 2962.142 834.155, 2925.654 873.314, 2870.961 906.035 C 2848.746 919.325, 2842.224 922.861, 2819.500 933.939 C 2798.841 944.009, 2797.570 944.602, 2785 950.006 C 2780.875 951.780, 2775.124 954.304, 2772.220 955.616 C 2769.317 956.927, 2766.498 958, 2765.957 958 C 2765.416 958, 2764.191 958.397, 2763.236 958.883 C 2761.636 959.697, 2759.782 960.483, 2753.750 962.903 C 2752.512 963.399, 2749.025 964.705, 2746 965.805 C 2742.975 966.905, 2738.475 968.576, 2736 969.518 C 2730.349 971.668, 2688.884 985.336, 2683.500 986.823 C 2674.047 989.434, 2664.319 992.272, 2662 993.096 C 2639.567 1001.068, 2547.680 1019.338, 2501.500 1025.010 C 2496.550 1025.618, 2489.125 1026.530, 2485 1027.038 C 2412.686 1035.936, 2284.667 1042.044, 2171.500 1041.996 C 2130.232 1041.978, 2048.088 1044.745, 2021 1047.065 C 1988.369 1049.859, 1977.192 1050.978, 1960.500 1053.120 C 1947.768 1054.755, 1926.861 1057.995, 1922.500 1059.009 C 1920.300 1059.521, 1913.550 1060.861, 1907.500 1061.987 C 1896.708 1063.995, 1881.942 1067.373, 1877 1068.963 C 1875.625 1069.406, 1872.700 1070.256, 1870.500 1070.851 C 1863.765 1072.675, 1845.899 1078.070, 1838.392 1080.546 C 1804.637 1091.680, 1790.311 1086.215, 1781.909 1059 C 1779.830 1052.265, 1779.591 1049.511, 1779.565 1032 C 1779.535 1010.907, 1780.299 1003.953, 1785.568 977.362 C 1792.143 944.180, 1797.869 923.705, 1817.270 864 C 1827.460 832.641, 1834.357 812.032, 1839.023 799 C 1841.287 792.675, 1844.053 784.680, 1845.169 781.232 C 1846.400 777.427, 1847.990 774.540, 1849.216 773.885 C 1853.547 771.567, 1899.573 755.776, 1912 752.345 C 1917.646 750.786, 1921.558 749.692, 1927.250 748.079 C 1934.458 746.037, 1948.956 742.035, 1956.477 740.013 C 1964.339 737.899, 1967 736.601, 1967 734.878 C 1967 733.723, 1957.244 733.756, 1949.582 734.937 C 1946.237 735.453, 1939.900 736.397, 1935.500 737.035 C 1931.100 737.674, 1926.150 738.550, 1924.500 738.983 C 1922.850 739.416, 1919.025 740.288, 1916 740.921 C 1904.575 743.312, 1889.087 746.970, 1877.500 750.014 C 1870.900 751.748, 1863.890 753.504, 1861.923 753.917 C 1859.956 754.330, 1857.818 754.994, 1857.173 755.393 C 1854.311 757.162, 1854.452 754.340, 1857.680 745.257 C 1859.587 739.890, 1861.511 734.375, 1861.956 733 C 1862.401 731.625, 1863.464 728.700, 1864.318 726.500 C 1865.172 724.300, 1867.880 716.875, 1870.336 710 C 1872.791 703.125, 1875.941 694.575, 1877.336 691 C 1879.700 684.941, 1891.668 653.058, 1897.982 636 C 1899.509 631.875, 1904.364 619.500, 1908.772 608.500 C 1913.180 597.500, 1918.465 584, 1920.517 578.500 C 1922.570 573, 1925.031 566.700, 1925.987 564.500 C 1926.944 562.300, 1928.542 558.475, 1929.538 556 C 1930.535 553.525, 1932.345 549.237, 1933.560 546.471 C 1934.776 543.706, 1936.530 539.206, 1937.458 536.471 C 1939.103 531.622, 1939.636 530.316, 1943.759 521 C 1944.855 518.525, 1947.431 512, 1949.484 506.500 C 1951.538 501, 1955.021 492, 1957.226 486.500 C 1959.431 481, 1961.591 475.375, 1962.027 474 C 1962.462 472.625, 1963.995 468.350, 1965.432 464.500 C 1971.928 447.102, 1974.309 436.936, 1974.406 426.175 C 1974.489 417.047, 1974.275 415.685, 1972.559 414.425 C 1969.640 412.282, 1967.723 412.666, 1962.894 416.364 M 1887.500 553.276 C 1879.250 567.118, 1869.753 583.181, 1866.395 588.971 C 1853.248 611.646, 1830 652.237, 1830 652.518 C 1830 652.681, 1826.850 658.298, 1823 665 C 1819.150 671.702, 1816 677.290, 1816 677.418 C 1816 677.545, 1813.242 682.566, 1809.871 688.575 C 1801.867 702.840, 1798.404 709.180, 1787.240 730 C 1785.323 733.575, 1782.747 738.300, 1781.514 740.500 C 1779.309 744.439, 1777.276 748.173, 1769.265 763 C 1762.179 776.117, 1752.967 794.301, 1753.261 794.594 C 1753.416 794.750, 1754.884 794.281, 1756.522 793.553 C 1764.275 790.107, 1767.323 788.848, 1778.500 784.477 C 1785.100 781.896, 1792.408 778.932, 1794.739 777.892 C 1797.071 776.851, 1799.439 776, 1800.003 776 C 1800.566 776, 1801.809 775.550, 1802.764 775 C 1803.719 774.450, 1806.532 773.161, 1809.016 772.136 C 1813 770.491, 1813.722 769.697, 1815.150 765.386 C 1817.290 758.930, 1825.961 734.691, 1829.956 724 C 1831.703 719.325, 1833.821 713.475, 1834.663 711 C 1835.505 708.525, 1837.915 702, 1840.018 696.500 C 1842.121 691, 1845.501 682, 1847.528 676.500 C 1849.556 671, 1852.335 663.575, 1853.706 660 C 1855.076 656.425, 1857.908 649, 1859.999 643.500 C 1866.083 627.496, 1874.113 606.672, 1875.037 604.500 C 1875.505 603.400, 1876.998 599.350, 1878.355 595.500 C 1880.963 588.105, 1885.704 575.776, 1897.067 546.848 C 1907.391 520.563, 1906.735 521.004, 1887.500 553.276 M 854.438 592.033 C 847.430 593.492, 840.305 598.694, 826.402 612.500 C 805.614 633.143, 786.018 657.434, 755.812 700 C 751.323 706.325, 745.144 714.875, 742.079 719 C 734.784 728.820, 730.755 734.597, 714.880 758 C 707.605 768.725, 699.155 781.100, 696.102 785.500 C 682.458 805.163, 637.091 871.732, 628 885.429 C 607.617 916.140, 562.424 983.206, 556.527 991.495 L 549.417 1001.490 527.959 1008.748 C 516.156 1012.740, 498.175 1018.747, 488 1022.098 C 477.825 1025.448, 467.886 1028.789, 465.913 1029.521 C 463.940 1030.254, 451.565 1034.466, 438.413 1038.883 C 408.608 1048.890, 388.019 1055.975, 377 1060.015 C 372.325 1061.729, 366.475 1063.800, 364 1064.616 C 361.525 1065.433, 358.600 1066.484, 357.500 1066.953 C 355.630 1067.750, 351.575 1069.253, 338.750 1073.904 C 331.891 1076.391, 297.369 1089.837, 293.500 1091.528 C 291.850 1092.249, 287.109 1094.182, 282.963 1095.824 C 270.164 1100.895, 251.750 1108.775, 240.250 1114.104 C 236.813 1115.697, 231.188 1118.303, 227.750 1119.896 C 224.313 1121.489, 219.475 1123.699, 217 1124.808 C 214.525 1125.916, 196.293 1134.850, 176.485 1144.661 C 156.676 1154.473, 138.451 1163.322, 135.985 1164.328 C 133.518 1165.333, 130.600 1166.530, 129.500 1166.987 C 116.590 1172.355, 104.742 1173.484, 101.174 1169.686 C 91.134 1158.998, 114.166 1126.822, 161.750 1085.058 C 169.175 1078.541, 172.142 1074, 168.974 1074 C 165.561 1074, 132.584 1097.978, 113.142 1114.596 C 46.207 1171.808, 44.881 1227.301, 111 1204.216 C 125.265 1199.236, 152.055 1186.323, 189 1166.621 C 200.931 1160.259, 244.211 1138.715, 257 1132.772 C 267.043 1128.105, 270.506 1126.542, 288 1118.774 C 290.475 1117.675, 294.876 1115.701, 297.780 1114.388 C 300.683 1113.075, 303.258 1112, 303.500 1112 C 303.742 1112, 306.317 1110.914, 309.220 1109.587 C 312.124 1108.260, 318.100 1105.746, 322.500 1104 C 326.900 1102.254, 332.750 1099.820, 335.500 1098.590 C 338.250 1097.360, 342.075 1095.772, 344 1095.060 C 345.925 1094.348, 348.850 1093.180, 350.500 1092.465 C 352.150 1091.749, 355.525 1090.402, 358 1089.472 C 360.475 1088.541, 364.408 1086.929, 366.739 1085.889 C 369.071 1084.850, 371.439 1084, 372.003 1084 C 372.566 1084, 373.809 1083.584, 374.764 1083.076 C 375.719 1082.568, 381.450 1080.276, 387.500 1077.982 C 393.550 1075.689, 399.400 1073.441, 400.500 1072.988 C 401.600 1072.535, 407.675 1070.301, 414 1068.024 C 420.325 1065.746, 426.400 1063.503, 427.500 1063.039 C 428.600 1062.575, 431.975 1061.296, 435 1060.197 C 438.025 1059.098, 444.100 1056.837, 448.500 1055.173 C 452.900 1053.509, 460.550 1050.729, 465.500 1048.994 C 470.450 1047.259, 479.225 1044.122, 485 1042.022 C 515.408 1030.965, 531.043 1025.710, 531.669 1026.336 C 532.154 1026.820, 522.539 1041.298, 508.980 1060.500 C 505.097 1066, 499.607 1073.875, 496.780 1078 C 493.954 1082.125, 488.659 1089.550, 485.014 1094.500 C 481.369 1099.450, 475.965 1106.875, 473.003 1111 C 447.088 1147.101, 389.652 1223.383, 361.986 1258.443 C 356.754 1265.074, 349.910 1273.875, 346.778 1278 C 343.647 1282.125, 337.353 1290.302, 332.792 1296.170 C 328.231 1302.039, 320.248 1312.389, 315.052 1319.170 C 309.855 1325.952, 301.980 1336.068, 297.552 1341.651 C 293.123 1347.234, 286.125 1356.183, 282 1361.538 C 277.875 1366.894, 272.665 1373.576, 270.423 1376.388 C 268.181 1379.199, 262.563 1386.450, 257.939 1392.500 C 253.316 1398.550, 248.972 1404.175, 248.286 1405 C 246.255 1407.442, 231.981 1426.094, 215.760 1447.500 C 207.425 1458.500, 198.106 1470.713, 195.053 1474.639 C 191.999 1478.565, 187.475 1484.618, 185 1488.090 C 182.525 1491.562, 177.790 1498.024, 174.477 1502.451 C 157.107 1525.663, 124.382 1573.364, 112.013 1593.500 C 104.047 1606.467, 88 1633.255, 88 1633.585 C 88 1633.765, 86.723 1636.078, 85.161 1638.726 C 79.482 1648.358, 71 1664.975, 71 1666.469 C 71 1671.219, 74.812 1667.041, 113.856 1619.499 C 115.512 1617.482, 124.271 1606.453, 143.237 1582.500 C 148.899 1575.350, 156.705 1565.225, 160.583 1560 C 169.769 1547.625, 181.453 1531.762, 211 1491.547 C 228.227 1468.100, 295.052 1378.711, 303.360 1368 C 306.559 1363.875, 317.010 1350.150, 326.584 1337.500 C 336.157 1324.850, 346.602 1311.125, 349.793 1307 C 366.639 1285.225, 434.417 1194.982, 459.500 1160.929 C 472.695 1143.016, 480.001 1132.936, 499.239 1106.109 C 506.057 1096.602, 516.041 1082.377, 525.989 1068 C 530.745 1061.125, 538.859 1049.425, 544.020 1042 C 549.180 1034.575, 555.703 1025.128, 558.514 1021.006 C 563.521 1013.666, 563.778 1013.459, 571.063 1010.944 C 575.153 1009.531, 581.875 1007.122, 586 1005.591 C 590.125 1004.059, 598.225 1001.085, 604 998.981 C 609.775 996.877, 618.325 993.743, 623 992.017 C 627.675 990.290, 634.200 987.951, 637.500 986.818 C 640.800 985.686, 644.850 984.172, 646.500 983.453 C 653.047 980.602, 664 977.088, 664 977.839 C 664 978.277, 661.815 983.555, 659.145 989.567 C 656.475 995.580, 650.353 1009.500, 645.541 1020.500 C 640.728 1031.500, 633.737 1047.475, 630.005 1056 C 619.068 1080.980, 613.689 1093.431, 606.030 1111.500 C 602.067 1120.850, 596.667 1133.450, 594.030 1139.500 C 550.554 1239.261, 522.233 1315.577, 509.605 1367 C 504.911 1386.113, 500 1413.803, 500 1421.153 C 500 1430.141, 503.516 1426.729, 510.462 1411 C 512.041 1407.425, 515.008 1400.900, 517.055 1396.500 C 524.902 1379.635, 528 1372.806, 528 1372.373 C 528 1372.127, 530.250 1367.190, 533 1361.403 C 535.750 1355.616, 538 1350.689, 538 1350.455 C 538 1349.995, 550.250 1322.540, 555.066 1312.205 C 556.680 1308.743, 558 1305.693, 558 1305.427 C 558 1305.161, 559.527 1301.693, 561.394 1297.722 C 565.923 1288.084, 567.813 1283.775, 573.990 1269 C 576.865 1262.125, 580.467 1253.800, 581.995 1250.500 C 583.524 1247.200, 587.075 1239.213, 589.887 1232.750 C 601.676 1205.658, 605.368 1197.220, 607.621 1192.220 C 608.929 1189.317, 610 1186.731, 610 1186.475 C 610 1186.218, 611.617 1182.519, 613.592 1178.254 C 615.568 1173.989, 618.999 1166.225, 621.216 1161 C 623.434 1155.775, 626.317 1149.138, 627.624 1146.250 C 628.931 1143.362, 631.070 1138.638, 632.377 1135.750 C 633.685 1132.862, 638.010 1123.075, 641.989 1114 C 645.968 1104.925, 650.748 1094.197, 652.612 1090.161 C 654.475 1086.124, 656 1082.682, 656 1082.510 C 656 1082.339, 657.853 1078.226, 660.117 1073.370 C 662.382 1068.514, 666.246 1059.806, 668.704 1054.020 C 671.163 1048.234, 674.710 1040.197, 676.587 1036.161 C 678.464 1032.124, 680 1028.650, 680 1028.441 C 680 1028.231, 681.075 1025.683, 682.388 1022.780 C 683.701 1019.876, 685.777 1015.250, 687 1012.500 C 688.223 1009.750, 690.348 1005.025, 691.723 1002 C 693.097 998.975, 697.597 988.850, 701.724 979.500 C 705.850 970.150, 709.737 961.993, 710.363 961.373 C 710.988 960.753, 716.450 958.368, 722.500 956.073 C 734.213 951.628, 734.905 951.349, 742.239 948.100 C 744.846 946.945, 747.356 946, 747.817 946 C 748.553 946, 786.724 930.792, 797.500 926.205 C 805.959 922.605, 815.440 917.446, 815.795 916.251 C 816.873 912.620, 813.576 913.354, 781 923.992 C 766.782 928.635, 737.550 937.924, 733.500 939.086 C 731.850 939.559, 727.936 940.807, 724.802 941.859 C 721.668 942.910, 718.898 943.565, 718.647 943.314 C 718.234 942.900, 720.353 937.755, 726.191 925 C 727.324 922.525, 729.284 918.242, 730.548 915.483 C 731.812 912.723, 733.736 908.223, 734.825 905.483 C 736.690 900.788, 738.733 896.277, 748.110 876.151 C 750.250 871.559, 752 867.663, 752 867.493 C 752 867.324, 753.963 862.981, 756.363 857.842 C 760.639 848.687, 762.874 843.782, 767.112 834.250 C 768.274 831.638, 770.350 827.025, 771.727 824 C 773.104 820.975, 775.927 814.675, 778 810 C 783.597 797.378, 786.724 790.530, 791.605 780.201 C 794.022 775.086, 796 770.712, 796 770.481 C 796 770.249, 797.075 767.683, 798.388 764.780 C 799.701 761.876, 801.777 757.250, 803 754.500 C 804.223 751.750, 806.299 747.138, 807.612 744.250 C 808.925 741.362, 811.125 736.525, 812.500 733.500 C 813.875 730.475, 816.176 725.413, 817.614 722.250 C 823.600 709.085, 824.994 705.961, 829.879 694.750 C 832.696 688.288, 837.215 677.938, 839.923 671.750 C 842.630 665.563, 846.193 657.125, 847.840 653 C 849.487 648.875, 851.934 643.025, 853.278 640 C 858.351 628.584, 863.598 611.333, 864.599 602.779 C 865.637 593.911, 862.311 590.394, 854.438 592.033 M 2617.338 682.908 C 2610.861 685.268, 2599.308 692.689, 2594.307 697.702 C 2585.206 706.826, 2569.073 731.975, 2560.573 750.287 C 2558.004 755.823, 2555.148 760.486, 2553.812 761.325 C 2549.868 763.803, 2515.626 780.960, 2515.292 780.625 C 2515.003 780.336, 2515.938 778.023, 2521.006 766.500 C 2521.973 764.300, 2524.218 759.125, 2525.994 755 C 2530.516 744.497, 2537.169 731.302, 2553.877 699.702 C 2558.318 691.304, 2558.818 688.924, 2556.539 687.032 C 2553.602 684.595, 2538.264 692.873, 2529.619 701.561 C 2524.999 706.205, 2510 729.168, 2510 731.599 C 2510 735.221, 2475.841 776.842, 2444.833 811 C 2433.754 823.205, 2413.407 842, 2411.274 842 C 2403.218 842, 2435.860 776.703, 2464.514 735.500 C 2481.278 711.394, 2488.087 700.619, 2487.806 698.644 C 2486.857 691.990, 2468.389 699.156, 2455.524 711.171 C 2447.334 718.819, 2437.970 730.689, 2417.500 759.371 C 2392.307 794.669, 2339.064 853, 2332.037 853 C 2328.149 853, 2339.768 824.225, 2354.213 798.077 C 2364.264 779.884, 2376.421 760.993, 2402.317 723.324 C 2412.437 708.603, 2412.540 703.938, 2402.676 707.044 C 2387.473 711.830, 2375.900 721.217, 2362.155 739.910 C 2338.054 772.684, 2332.179 780.045, 2302.638 814.491 C 2277.269 844.070, 2248.469 872.185, 2246.613 869.183 C 2245.214 866.918, 2251.698 845.777, 2258.478 830.500 C 2259.698 827.750, 2262.199 822.125, 2264.035 818 C 2267.381 810.484, 2285.879 773.793, 2289.873 766.750 C 2294.234 759.060, 2295.942 756.105, 2305.621 739.500 C 2317.521 719.085, 2318.081 717.896, 2316.844 715.686 C 2315.072 712.519, 2309.032 713.868, 2288.329 722.053 C 2274.237 727.624, 2272.494 729.211, 2260.068 747.767 C 2241.266 775.845, 2219.822 806.034, 2206.985 822.500 C 2203.125 827.450, 2197.392 834.875, 2194.243 839 C 2169.170 871.847, 2147.523 893.674, 2146.885 886.750 C 2146.494 882.507, 2150.234 870.911, 2155.424 860.276 C 2160.017 850.863, 2160.528 848.683, 2158.530 847.025 C 2157.201 845.922, 2156.475 845.929, 2154.216 847.069 C 2144.891 851.773, 2133.627 862.296, 2126.719 872.756 C 2120.093 882.789, 2101.537 899.893, 2090.825 905.841 C 2078.455 912.709, 2072.114 906.234, 2074.936 889.617 C 2075.601 885.702, 2076.537 881.150, 2077.016 879.500 C 2077.495 877.850, 2078.383 874.576, 2078.989 872.225 C 2079.972 868.410, 2081.137 867.177, 2089.795 860.792 C 2127.598 832.912, 2161.068 798.264, 2173.639 774 C 2178.966 763.717, 2180 760.341, 2180 753.235 C 2180 744.162, 2177.433 741.478, 2168.834 741.561 C 2145.703 741.783, 2097.996 783.165, 2071.658 825.855 C 2061.347 842.567, 2050.715 864.745, 2046.645 878.032 C 2045.120 883.013, 2043.484 885.032, 2030.225 898.300 C 2015.369 913.166, 2008.784 918.603, 2006.982 917.489 C 2001.931 914.367, 2013.936 879.090, 2033.613 839.231 C 2044.106 817.976, 2048.992 809.061, 2062.509 786.500 C 2070.514 773.139, 2071.605 770.210, 2069.600 767.467 C 2068.376 765.794, 2067.829 765.735, 2064.043 766.869 C 2049.313 771.282, 2038.457 781.297, 2017.972 809.370 C 1994.531 841.496, 1948.107 901.846, 1939.026 912 C 1937.796 913.375, 1935.952 915.555, 1934.927 916.844 C 1928.578 924.833, 1933.634 907.198, 1947.786 872 C 1954.841 854.452, 1958.200 847.263, 1974.048 815.796 C 1988.796 786.510, 1990.311 782, 1985.393 782 C 1979.191 782, 1962.613 792.388, 1955.546 800.702 C 1953.770 802.791, 1939.574 823.625, 1923.998 847 C 1891.252 896.145, 1877.470 915.747, 1863.883 932.500 C 1851.692 947.533, 1844.698 954.482, 1842.577 953.668 C 1838.972 952.284, 1842.255 936.319, 1849.364 920.666 C 1857.246 903.312, 1853.191 900.992, 1838.388 914.387 C 1822.268 928.975, 1809.961 954.128, 1810.032 972.340 C 1810.066 981.145, 1810.951 983.270, 1815.264 984.910 C 1828.715 990.024, 1859.607 958.182, 1907.341 890 C 1909.459 886.975, 1913.008 881.672, 1915.229 878.216 C 1917.449 874.760, 1919.486 872.153, 1919.755 872.422 C 1920.025 872.691, 1918.568 877.094, 1916.517 882.206 C 1911.405 894.952, 1903.430 919.196, 1900.517 930.849 C 1895.873 949.424, 1896.354 957.128, 1902.199 957.809 C 1911.093 958.846, 1926.102 944.301, 1957.206 904.500 C 1963.653 896.250, 1970.440 887.700, 1972.287 885.500 C 1977.469 879.327, 1994.575 856.529, 1996.613 853.079 C 1997.613 851.385, 1998.784 850, 1999.216 850 C 2000.345 850, 2000.213 850.551, 1998.201 854.220 C 1994.242 861.437, 1986.921 879.228, 1982.655 892 C 1971.960 924.019, 1970.372 942.556, 1977.987 946.493 C 1981.865 948.499, 1983.022 948.411, 1989.221 945.643 C 1998.782 941.374, 2010.947 930.765, 2033.853 906.719 C 2037.898 902.474, 2041.273 899, 2041.353 899 C 2041.434 899, 2041.504 903.837, 2041.508 909.750 C 2041.521 927.352, 2046.455 934, 2059.508 934 C 2071.560 934, 2091.080 922.322, 2110.377 903.568 C 2112.962 901.055, 2115.172 899, 2115.288 899 C 2115.405 899, 2115.500 902.326, 2115.500 906.392 C 2115.500 915.814, 2117.102 918, 2124.006 918 C 2132.913 918, 2143.132 910.758, 2163.022 890.349 C 2179.701 873.235, 2199.858 849.021, 2220.750 821 C 2239.836 795.400, 2245.941 787.084, 2248.086 783.762 C 2250.427 780.138, 2252 779.006, 2252 780.946 C 2252 781.467, 2250.434 784.566, 2248.519 787.832 C 2245.021 793.800, 2241.571 800.981, 2233.301 819.500 C 2219.707 849.944, 2212.264 872.657, 2211.347 886.500 C 2210.811 894.582, 2210.958 895.755, 2212.787 898 C 2217.001 903.173, 2226.194 900.685, 2239.500 890.771 C 2248.599 883.992, 2280.351 852.332, 2295.433 835 C 2297.587 832.525, 2302.099 827.518, 2305.460 823.874 C 2308.822 820.230, 2313.581 814.739, 2316.036 811.671 C 2318.491 808.604, 2320.788 806.073, 2321.141 806.047 C 2321.494 806.021, 2319.169 811.196, 2315.976 817.548 C 2305.242 838.896, 2296.002 865.102, 2296.001 874.203 C 2295.998 890.779, 2312.036 887.066, 2336.780 864.764 C 2349.839 852.993, 2385.219 814.916, 2393.718 803.484 C 2396.683 799.496, 2396.600 801.854, 2393.586 807.253 C 2392.258 809.631, 2388.815 817.410, 2385.934 824.539 C 2374.222 853.518, 2372.873 868.153, 2381.647 871.049 C 2391.854 874.417, 2410.640 859.895, 2446.388 821 C 2461.820 804.209, 2479.368 784.350, 2486.393 775.725 C 2488.532 773.098, 2490.454 771.121, 2490.663 771.330 C 2490.873 771.539, 2489.282 775.488, 2487.129 780.105 C 2482.573 789.876, 2475.591 806.389, 2474.488 810 C 2474.068 811.375, 2472.712 814.750, 2471.473 817.500 C 2465.966 829.732, 2457.892 856.066, 2458.197 860.800 C 2458.497 865.460, 2458.533 865.503, 2462.304 865.814 C 2466.740 866.179, 2472.202 863.351, 2481.500 855.873 C 2488.511 850.235, 2489.546 848.753, 2492.172 840.596 C 2494.969 831.906, 2499.601 818.960, 2503.683 808.424 C 2507.747 797.937, 2506.932 798.588, 2532.461 785.436 C 2547.694 777.589, 2549.650 776.896, 2548.523 779.750 C 2548.143 780.712, 2546.455 786.675, 2544.772 793 C 2540.632 808.555, 2540.093 834.310, 2543.685 845.008 C 2555.920 881.448, 2597.830 894.189, 2660.500 880.521 C 2685.157 875.143, 2717.505 864.165, 2742.500 852.692 C 2773.487 838.468, 2803 820.275, 2803 815.396 C 2803 813.832, 2799.914 813.505, 2798.450 814.915 C 2797.367 815.958, 2765.630 832, 2764.650 832 C 2764.297 832, 2760.519 833.621, 2756.254 835.601 C 2737.481 844.320, 2708.611 854.127, 2688 858.786 C 2667.614 863.394, 2664.500 863.887, 2651.500 864.564 C 2620.371 866.185, 2599.165 858.979, 2588.180 843.046 C 2580.106 831.336, 2578.028 823.967, 2578.013 807 C 2578 792.902, 2579.447 784.484, 2584.471 769.417 C 2588.905 756.117, 2596.725 738.822, 2603.648 727 C 2605.097 724.525, 2607.062 721.150, 2608.014 719.500 C 2608.967 717.850, 2612.941 711.444, 2616.845 705.265 C 2625.844 691.023, 2628.196 686.391, 2627.809 683.673 C 2627.396 680.768, 2623.911 680.514, 2617.338 682.908 M 789.550 686.613 C 788.528 688.201, 783.334 695.350, 778.008 702.500 C 772.681 709.650, 764.988 720.168, 760.912 725.872 C 733.831 763.770, 725.124 776.194, 703 808.512 C 696.125 818.554, 684.425 835.632, 677 846.461 C 633.327 910.160, 579.679 990.013, 580.204 990.537 C 580.411 990.745, 587.763 988.507, 596.540 985.565 C 605.318 982.623, 618.800 978.172, 626.500 975.675 C 634.200 973.178, 644.325 969.725, 649 968.002 C 653.675 966.278, 659.525 964.198, 662 963.379 C 673.297 959.640, 672.089 961.310, 684.917 931.706 C 705.052 885.242, 704.488 886.522, 711.007 872.500 C 713.309 867.550, 717.121 858.991, 719.479 853.480 C 721.836 847.969, 725.618 839.486, 727.883 834.630 C 730.147 829.774, 732 825.634, 732 825.430 C 732 825.226, 733.075 822.683, 734.388 819.780 C 739.922 807.544, 740.991 805.098, 742.849 800.419 C 743.924 797.714, 746.147 792.575, 747.791 789 C 749.434 785.425, 752.231 779.125, 754.007 775 C 757.605 766.640, 760.070 761.051, 763.612 753.220 C 764.925 750.317, 766 747.749, 766 747.515 C 766 747.092, 773.577 729.142, 776.982 721.500 C 777.962 719.300, 781.116 711.875, 783.992 705 C 786.867 698.125, 789.888 691.055, 790.706 689.288 C 792.710 684.956, 791.870 683.011, 789.550 686.613 M 1553.500 736.629 C 1551.850 738.041, 1547.618 741.739, 1544.095 744.848 C 1511.579 773.543, 1485.189 786.803, 1473.072 780.537 C 1469.622 778.753, 1468.832 777.086, 1468.082 770 C 1467.568 765.145, 1467.217 764.460, 1465.087 764.159 C 1463.159 763.887, 1460.881 765.659, 1453.750 772.983 C 1436.735 790.458, 1433.816 805, 1446.071 811.248 C 1457.579 817.116, 1485.186 807.244, 1509.493 788.568 C 1534.768 769.149, 1562.279 739.451, 1558.836 735.303 C 1557.383 733.552, 1556.980 733.652, 1553.500 736.629 M 2150.812 759.820 C 2144.304 762.442, 2127.129 781.733, 2115.670 799.295 C 2104.106 817.017, 2087.526 847.079, 2088.200 849.101 C 2088.658 850.473, 2101.214 839.989, 2113.323 828.125 C 2134.614 807.264, 2151.853 781.985, 2154.923 767.123 C 2156.340 760.261, 2155.116 758.087, 2150.812 759.820 M 1542.665 826.447 C 1527.387 832.729, 1518.446 842.041, 1502.290 868.500 C 1488.530 891.036, 1487.696 892.347, 1482.570 899.500 C 1457.019 935.158, 1424.586 974, 1420.362 974 C 1418.603 974, 1419.078 971.923, 1424.028 958 C 1432.932 932.957, 1447.964 901.162, 1462.797 876 C 1464.256 873.525, 1466.136 870.339, 1466.975 868.919 C 1481.158 844.920, 1481.824 838.906, 1469.687 844.458 C 1451.869 852.608, 1443.732 861.664, 1426.522 892.500 C 1416.505 910.448, 1413.805 914.626, 1401.640 931 C 1377.660 963.276, 1359.134 985.093, 1347.070 995.265 C 1341.591 999.884, 1340 1000.009, 1340 995.821 C 1340 986.727, 1356.871 947.270, 1370.496 924.500 C 1372.800 920.650, 1377.309 913.004, 1380.516 907.510 C 1383.724 902.015, 1389.829 892.252, 1394.083 885.813 C 1401.483 874.614, 1403.890 869.249, 1402.515 867.024 C 1401.317 865.085, 1395.815 866.007, 1389.231 869.250 C 1375.512 876.007, 1363.667 889.973, 1341.947 925 C 1314.980 968.489, 1270.824 1021.625, 1274.428 1006.250 C 1275.963 999.702, 1280.464 986.066, 1282.762 981 C 1289.716 965.675, 1296.528 951.804, 1300.889 944.087 C 1303.558 939.364, 1307.083 933.025, 1308.723 930 C 1313.051 922.019, 1315.107 918.507, 1321.019 909 C 1334.552 887.238, 1335.482 884.962, 1331.794 882.640 C 1328.551 880.598, 1315.920 886.969, 1306.228 895.535 C 1299.208 901.739, 1283.993 924.729, 1272.925 945.857 C 1267.444 956.321, 1262.284 962.751, 1239.916 987 C 1235.096 992.225, 1230.233 997.625, 1229.110 999 C 1226.158 1002.612, 1226.528 999.843, 1230 992.342 C 1231.650 988.777, 1233 985.718, 1233 985.544 C 1233 985.370, 1235.025 980.923, 1237.500 975.662 C 1239.975 970.401, 1242 965.894, 1242 965.647 C 1242 965.401, 1243.836 961.262, 1246.079 956.451 C 1255.548 936.146, 1262 920.781, 1262 918.537 C 1262 913.717, 1257.435 914.050, 1248.046 919.552 C 1238.808 924.967, 1234.899 929.685, 1222.698 950.147 C 1210.637 970.374, 1205.583 977.802, 1194.259 991.938 C 1173.713 1017.587, 1158.548 1031.575, 1153.419 1029.607 C 1151.025 1028.689, 1151.958 1018.885, 1155.428 1008.500 C 1158.084 1000.551, 1168.495 978.924, 1172.110 973.846 C 1173.150 972.386, 1174 970.897, 1174 970.536 C 1174 969.450, 1187.768 949.145, 1195.376 939.010 C 1213.605 914.729, 1239.439 893, 1250.080 893 C 1253.177 893, 1256 897.986, 1256 903.455 C 1256 910.436, 1257.464 910.671, 1263.287 904.629 C 1274.449 893.049, 1277.741 880.742, 1271.234 874.921 C 1262.542 867.146, 1237.942 875.349, 1212.523 894.500 C 1204.503 900.542, 1190.967 912.542, 1185.609 918.361 C 1184.019 920.087, 1180.410 923.975, 1177.590 927 C 1159.392 946.516, 1141.308 974.388, 1127.610 1004.035 C 1124.297 1011.203, 1096.137 1042.642, 1088.699 1047.477 C 1084.470 1050.225, 1083.702 1048.547, 1085.430 1040.334 C 1088.324 1026.576, 1093.621 1014.004, 1111.258 979.040 C 1119.033 963.626, 1122.991 954.708, 1122.796 953.040 C 1122.252 948.377, 1116.222 949.250, 1107 955.325 C 1097.873 961.338, 1095.689 964.003, 1083.493 984 C 1073.069 1001.093, 1052.585 1030.834, 1049.057 1034 C 1048.751 1034.275, 1046.258 1037.200, 1043.518 1040.500 C 1028.376 1058.735, 1016.348 1068.191, 1015.855 1062.250 C 1015.111 1053.302, 1019.656 1039.627, 1030.111 1019.353 C 1050.036 980.715, 1078.769 945.622, 1101.088 932.664 C 1110.512 927.192, 1116.925 930.232, 1115.646 939.563 C 1114.732 946.236, 1116.930 946.478, 1123.121 940.387 C 1139.520 924.251, 1136.399 907.337, 1117.384 909.300 C 1099.534 911.142, 1078.691 924.286, 1052.899 949.963 C 1036.739 966.052, 1029.666 974.587, 1017.735 992.396 C 1009.898 1004.093, 1008.192 1006.959, 998.029 1025.500 C 989.612 1040.854, 963.225 1072.152, 957.482 1073.594 C 951.093 1075.197, 948.855 1071.718, 946.056 1055.828 C 944.430 1046.595, 944 1039.891, 944 1023.742 L 944 1003.329 952.240 993.414 C 956.772 987.961, 970.159 973.773, 981.990 961.885 C 1017.514 926.187, 1047.370 900.837, 1085.498 874 C 1115.984 852.542, 1124.734 843.999, 1120.928 839.413 C 1117.564 835.360, 1101.022 843.752, 1075 862.712 C 1041.698 886.977, 991.018 933.964, 957.794 971.378 C 953.339 976.395, 948.075 982.311, 946.097 984.526 C 935.638 996.231, 930.040 1002.940, 927.454 1006.868 C 921.210 1016.351, 924.504 1008.118, 936.448 984.386 C 943.337 970.698, 951.951 953.875, 955.590 947 C 968.331 922.933, 969.975 919.479, 969.987 916.750 C 970.031 907.198, 945.833 923.301, 934.298 940.500 C 926.638 951.921, 916.683 969.412, 903.564 994.500 C 901.245 998.936, 897.612 1003.698, 893.647 1007.500 C 875.631 1024.775, 857.177 1042, 856.686 1042 C 856.379 1042, 858.595 1037.838, 861.609 1032.750 C 869.879 1018.791, 883.443 990.645, 886.788 980.500 C 891.840 965.181, 892.500 961.822, 892.500 951.422 C 892.500 939.004, 890.344 935.079, 882.426 933.086 C 864.332 928.529, 822.618 956.179, 788.607 995.274 C 785.366 998.999, 782.515 1001.849, 782.273 1001.606 C 782.030 1001.363, 786.425 991.790, 792.039 980.332 C 806.610 950.595, 807.320 948.940, 807.415 944.500 C 807.492 940.856, 807.255 940.472, 804.754 940.184 C 799.838 939.618, 783.867 948.911, 773.086 958.610 C 767.992 963.192, 766.619 965.621, 749.836 999.723 C 740.026 1019.656, 732 1036.181, 732 1036.445 C 732 1036.709, 729.300 1042.620, 726 1049.582 C 722.700 1056.543, 720 1062.366, 720 1062.522 C 720 1062.677, 717.016 1069.036, 713.369 1076.652 C 706.201 1091.621, 698.450 1108.417, 688.518 1130.500 C 685.054 1138.200, 680.771 1147.650, 678.999 1151.500 C 677.227 1155.350, 673.630 1163.450, 671.004 1169.500 C 668.378 1175.550, 662.982 1187.925, 659.011 1197 C 655.041 1206.075, 649.319 1219.350, 646.296 1226.500 C 643.273 1233.650, 638.989 1243.775, 636.776 1249 C 634.563 1254.225, 629.175 1267.486, 624.802 1278.468 C 620.429 1289.450, 616.025 1300.250, 615.015 1302.468 C 608.959 1315.765, 582.156 1390.291, 577.961 1405.500 C 568.434 1440.036, 570.154 1445.220, 584.689 1425.782 C 596.286 1410.275, 603.180 1400.532, 616.160 1381.308 C 619.500 1376.362, 622.760 1368.966, 628.197 1354 C 629.296 1350.975, 630.563 1347.600, 631.013 1346.500 C 631.463 1345.400, 633.979 1338.875, 636.604 1332 C 643.427 1314.136, 660.854 1270.230, 663.001 1265.500 C 663.999 1263.300, 668.045 1253.400, 671.992 1243.500 C 678.956 1226.033, 682.672 1217.168, 687.616 1206.220 C 688.927 1203.317, 690 1200.724, 690 1200.459 C 690 1200.195, 690.881 1198.071, 691.958 1195.739 C 694.630 1189.954, 706 1162.964, 706 1162.406 C 706 1162.159, 707.800 1158.097, 710 1153.379 C 712.200 1148.661, 714 1144.656, 714 1144.478 C 714 1144.182, 717.163 1137.387, 727.488 1115.500 C 754.352 1058.556, 767.789 1036.707, 795.088 1005.574 C 817.485 980.031, 839.942 962.260, 846.993 964.498 C 855.840 967.306, 849.842 992.734, 831.714 1029.267 C 809.729 1073.574, 776.036 1119.964, 765.817 1119.995 C 762.523 1120.005, 762.440 1113.924, 765.604 1104.215 C 768.910 1094.068, 766.130 1092.835, 757.800 1100.752 C 743.008 1114.812, 734.037 1135.726, 738.900 1144.813 C 740.289 1147.409, 744.981 1150, 748.295 1150 C 763.298 1150, 794.744 1125.610, 820.112 1094.296 C 823.586 1090.008, 826.691 1086.275, 827.013 1086 C 827.335 1085.725, 830.590 1081.450, 834.247 1076.500 C 839.938 1068.796, 850.521 1058.177, 864.077 1046.568 C 865.959 1044.956, 872.563 1038.938, 878.750 1033.195 C 884.938 1027.452, 890 1023.020, 890 1023.347 C 890 1023.673, 888.690 1026.541, 887.089 1029.720 C 883.922 1036.006, 879.893 1044.703, 870.976 1064.500 C 851.395 1107.971, 844.346 1129.760, 849.750 1130.115 C 855.745 1130.510, 858.926 1128.816, 869.208 1119.756 C 877.489 1112.459, 877.340 1112.687, 885.008 1095.500 C 894.164 1074.977, 911.542 1042.019, 914.012 1040.492 C 914.384 1040.262, 914.980 1047.370, 915.336 1056.287 C 916.328 1081.110, 919.684 1095.482, 926.055 1102.178 C 930.464 1106.813, 935.362 1107.294, 942.069 1103.750 C 947.828 1100.707, 962.521 1085.786, 974.505 1070.811 C 979.924 1064.040, 984.783 1058.050, 985.304 1057.500 C 986.340 1056.405, 986.099 1057.833, 983.614 1067.500 C 980.800 1078.444, 981.993 1088.067, 986.667 1092.136 C 994.007 1098.526, 1007.382 1091.959, 1026.500 1072.579 C 1036.402 1062.542, 1051.699 1045.411, 1057.825 1037.500 C 1060.442 1034.120, 1060.454 1033.984, 1057.085 1046.500 C 1050.501 1070.966, 1055.462 1082.899, 1069.290 1075.856 C 1078.324 1071.254, 1099.087 1051.680, 1113.500 1034.177 C 1119.347 1027.077, 1120.378 1026.645, 1119.295 1031.750 C 1117.835 1038.638, 1118.353 1050.205, 1120.298 1054.111 C 1124.975 1063.503, 1137.265 1061.378, 1153 1048.456 C 1165.589 1038.118, 1188.141 1014.676, 1195.506 1004.271 C 1201.560 995.720, 1200.806 998.144, 1190.298 1021 C 1188.907 1024.025, 1186 1030.505, 1183.838 1035.401 C 1174.545 1056.441, 1146.484 1113.383, 1144.752 1114.715 C 1144.063 1115.244, 1139.675 1116.703, 1135 1117.957 C 1130.325 1119.212, 1124.025 1121.047, 1121 1122.035 C 1117.975 1123.024, 1110.775 1125.259, 1105 1127.001 C 1088.985 1131.833, 1088.074 1132.121, 1079.500 1135.068 C 1075.100 1136.581, 1069.700 1138.371, 1067.500 1139.048 C 1065.300 1139.724, 1062.600 1140.621, 1061.500 1141.041 C 1056.506 1142.949, 1047.912 1146.082, 1041.500 1148.333 C 1034.114 1150.926, 1017.564 1157.313, 1012.500 1159.525 C 1010.850 1160.246, 1007.475 1161.597, 1005 1162.527 C 1002.525 1163.458, 999.150 1164.810, 997.500 1165.531 C 995.850 1166.253, 992.061 1167.803, 989.081 1168.974 C 986.100 1170.146, 981.600 1172.031, 979.081 1173.164 C 976.561 1174.297, 972.025 1176.326, 969 1177.673 C 954.569 1184.099, 950.323 1186.123, 933.315 1194.685 C 910.326 1206.258, 902.446 1210.514, 880 1223.482 C 846.168 1243.028, 809.571 1269.101, 783 1292.587 C 696.749 1368.827, 674.254 1450.015, 731.621 1478.025 C 745.882 1484.988, 750.523 1486.332, 767.962 1488.545 C 788.749 1491.184, 809.169 1489.779, 830 1484.279 C 840.030 1481.630, 841.455 1481.218, 847.500 1479.210 C 894.407 1463.634, 949.980 1426.222, 998.500 1377.557 C 1038.003 1337.936, 1068.955 1297.696, 1104.306 1240 C 1106.496 1236.425, 1109.494 1231.700, 1110.967 1229.500 C 1117.533 1219.698, 1142.786 1174.199, 1156.757 1147 C 1161.983 1136.825, 1166.835 1127.882, 1167.538 1127.127 C 1168.827 1125.744, 1170.462 1125.237, 1190.500 1120.009 C 1222.948 1111.544, 1242.388 1106.796, 1261 1102.793 C 1266.225 1101.670, 1272.075 1100.409, 1274 1099.993 C 1280.512 1098.583, 1313.459 1092.022, 1319.500 1090.932 C 1328.693 1089.272, 1333.942 1088.290, 1340.500 1087 C 1351.133 1084.909, 1358.998 1083.500, 1374 1081 C 1377.300 1080.450, 1382.700 1079.550, 1386 1079 C 1389.300 1078.450, 1394.588 1077.568, 1397.750 1077.039 C 1400.912 1076.510, 1406.537 1075.610, 1410.250 1075.039 C 1413.963 1074.468, 1419.813 1073.566, 1423.250 1073.035 C 1434.489 1071.299, 1443.318 1069.990, 1454.500 1068.399 C 1460.550 1067.538, 1468.200 1066.414, 1471.500 1065.901 C 1474.800 1065.388, 1480.875 1064.527, 1485 1063.987 C 1489.125 1063.448, 1495.650 1062.553, 1499.500 1061.998 C 1503.350 1061.443, 1509.650 1060.564, 1513.500 1060.044 C 1533.271 1057.374, 1536.257 1056.581, 1535.789 1054.124 C 1535.546 1052.851, 1533.969 1052.425, 1528.490 1052.155 C 1520.806 1051.776, 1484.994 1053.502, 1470 1054.974 C 1464.775 1055.487, 1455.550 1056.391, 1449.500 1056.984 C 1426.811 1059.206, 1390.154 1063.932, 1372 1066.975 C 1368.975 1067.482, 1362.900 1068.421, 1358.500 1069.060 C 1354.100 1069.700, 1346.675 1070.877, 1342 1071.678 C 1337.325 1072.478, 1331.025 1073.529, 1328 1074.013 C 1319.994 1075.295, 1299.832 1078.860, 1297.500 1079.405 C 1296.400 1079.662, 1290.325 1080.828, 1284 1081.996 C 1277.675 1083.164, 1270.700 1084.524, 1268.500 1085.019 C 1266.300 1085.514, 1260.225 1086.814, 1255 1087.908 C 1231.832 1092.760, 1212.063 1097.141, 1205 1098.989 C 1201.257 1099.969, 1186.302 1103.483, 1181.750 1104.452 C 1180.237 1104.774, 1179 1104.630, 1179 1104.132 C 1179 1103.273, 1184.509 1091.219, 1192.999 1073.500 C 1199.622 1059.678, 1208.067 1041.827, 1212.159 1033 C 1214.327 1028.325, 1216.640 1023.539, 1217.300 1022.365 C 1218.960 1019.412, 1255.219 980.885, 1255.795 981.462 C 1256.052 981.719, 1255.563 983.407, 1254.709 985.214 C 1250.711 993.672, 1245.991 1007.584, 1243.156 1019.264 C 1238.578 1038.127, 1246.349 1045.335, 1261.095 1035.903 C 1268.279 1031.308, 1285.480 1014.268, 1297.371 999.967 C 1301.700 994.760, 1306.214 989.375, 1307.403 988 C 1309.050 986.094, 1316.407 976.389, 1318.710 973.083 C 1318.869 972.854, 1319.221 972.888, 1319.492 973.159 C 1319.763 973.429, 1318.447 977.462, 1316.569 982.120 C 1310.645 996.810, 1307.271 1013.581, 1308.970 1019.890 C 1313.757 1037.666, 1337.280 1022.796, 1373.655 979 C 1386.878 963.079, 1398.758 948.255, 1399.832 946.336 C 1402.246 942.022, 1401.774 946.272, 1399.126 952.695 C 1394.429 964.086, 1392.218 970.862, 1389.475 982.283 C 1385.007 1000.884, 1386.239 1008, 1393.929 1008 C 1399.969 1008, 1405.298 1004.438, 1417.873 991.998 C 1433.611 976.429, 1466.916 937.119, 1471.871 928.267 C 1473.769 924.875, 1473.962 927.703, 1472.096 931.576 C 1462.044 952.448, 1456.430 986.196, 1461.767 993.678 C 1469.022 1003.849, 1485.048 997.963, 1508.537 976.500 C 1520.501 965.568, 1525.840 958, 1521.588 958 C 1520.811 958, 1516.199 961.146, 1511.338 964.991 C 1501.548 972.735, 1494.806 976.006, 1492.142 974.305 C 1490.825 973.463, 1490.512 971.600, 1490.561 964.878 C 1490.627 955.704, 1495.208 940.330, 1504.114 919.387 C 1508.455 909.179, 1521.510 883.346, 1525.651 876.770 C 1526.943 874.718, 1528 872.860, 1528 872.640 C 1528 872.420, 1533.382 863.331, 1539.959 852.443 C 1552.257 832.086, 1554.075 828, 1551.966 825.459 C 1550.367 823.532, 1549.541 823.620, 1542.665 826.447 M 1129.500 1137.010 C 1128.400 1137.491, 1124.125 1138.871, 1120 1140.077 C 1115.875 1141.283, 1106.650 1144.265, 1099.500 1146.705 C 1092.350 1149.144, 1083.218 1152.251, 1079.206 1153.609 C 1072.248 1155.965, 1056.180 1161.874, 1040 1168.026 C 1026.145 1173.295, 1002.175 1183.514, 981.500 1192.968 C 871.827 1243.115, 781.539 1315.100, 748.166 1379 C 723.595 1426.049, 733.896 1460.896, 775.704 1472.158 C 785.206 1474.718, 809.558 1475.261, 820 1473.146 C 834.292 1470.251, 844.847 1467.449, 850.500 1465.051 C 851.600 1464.584, 854.075 1463.623, 856 1462.915 C 861.077 1461.048, 880.506 1451.673, 887.500 1447.715 C 924.978 1426.507, 964.206 1392.019, 1000.921 1348 C 1027.525 1316.103, 1060.269 1269.050, 1081.991 1231.500 C 1082.946 1229.850, 1085.302 1225.800, 1087.228 1222.500 C 1089.153 1219.200, 1091.851 1214.475, 1093.223 1212 C 1094.595 1209.525, 1096.750 1205.700, 1098.013 1203.500 C 1099.276 1201.300, 1101.881 1196.575, 1103.804 1193 C 1105.726 1189.425, 1108.970 1183.575, 1111.011 1180 C 1113.053 1176.425, 1117.090 1169, 1119.983 1163.500 C 1128.314 1147.658, 1132.205 1140.573, 1133.136 1139.550 C 1135.639 1136.798, 1133.463 1135.277, 1129.500 1137.010" stroke="none" fill="currentColor" fill-rule="evenodd"/>
</svg>