<svg role="img" aria-label="Аркадий Амелин" xmlns="http://www.w3.org/2000/svg" width="2968" height="1163" viewBox="69.4 435.4 2968.6 1163.1" version="1.1">
	<path d="M 1034.780 496.009 C 1022.027 498.215, 1002.017 511.845, 977 535.366 C 953.194 557.750, 910.043 601.420, 888.446 624.988 C 885.176 628.557, 878.881 635.307, 874.458 639.988 C 870.035 644.670, 864.681 650.525, 862.560 653 C 860.440 655.475, 856.390 659.975, 853.561 663 C 848.258 668.670, 829.083 690.288, 818.500 702.529 C 815.200 706.345, 809.324 713.075, 805.441 717.484 C 799.359 724.391, 788.487 737.301, 772.612 756.464 C 770.350 759.194, 767.117 763.019, 765.427 764.964 C 762.393 768.456, 721.098 819.952, 705.528 839.661 C 679.657 872.408, 676.809 876.051, 657.965 900.500 C 648.695 912.528, 646.225 915.678, 641.870 921.029 L 638.183 925.559 626.842 926.816 C 607.896 928.917, 586.897 931.839, 567.750 935.039 C 564.587 935.568, 559.413 936.433, 556.250 936.962 C 553.087 937.492, 547.350 938.432, 543.500 939.052 C 539.650 939.671, 534.700 940.552, 532.500 941.008 C 525.384 942.484, 517.759 944.037, 505 946.609 C 489.239 949.786, 486.644 950.340, 475 953.017 C 469.775 954.219, 463.925 955.563, 462 956.004 C 460.075 956.446, 456.025 957.492, 453 958.329 C 449.975 959.165, 443.900 960.801, 439.500 961.964 C 430.675 964.296, 430.063 964.473, 415 969.029 C 386.673 977.597, 351.703 990.315, 332 999.215 C 269.337 1027.521, 219.336 1060.199, 184.204 1095.808 C 155.457 1124.944, 141.299 1147.364, 132.299 1178 C 130.192 1185.171, 129.779 1188.766, 129.651 1201 C 129.425 1222.713, 133.213 1235.380, 144.235 1249.767 C 170.805 1284.450, 223.993 1297.919, 284 1285.159 C 323.569 1276.745, 374.073 1249.571, 418.220 1212.941 C 422.224 1209.619, 426.400 1206.175, 427.500 1205.289 C 475.449 1166.658, 538.969 1099.141, 600.104 1021.823 C 625.171 990.121, 629.176 984.950, 643.786 965.420 C 651.982 954.464, 659.402 944.908, 660.275 944.184 C 662.120 942.656, 676.563 940.620, 696.500 939.077 C 704.200 938.481, 715.977 937.545, 722.672 936.997 C 737.415 935.789, 761 935.684, 761 936.826 C 761 937.280, 758.463 942.792, 755.363 949.076 C 748.464 963.057, 737.830 985.593, 733.221 996 C 732.125 998.475, 730.328 1002.525, 729.228 1005 C 728.128 1007.475, 726.328 1011.525, 725.228 1014 C 724.128 1016.475, 722.319 1020.525, 721.208 1023 C 718.961 1028.007, 700.408 1074.648, 694.160 1091 C 690.173 1101.433, 675.293 1146.392, 672.978 1155 C 672.313 1157.475, 671.422 1160.625, 671 1162 C 660.919 1194.813, 654.979 1240.834, 659.445 1251.522 C 661.862 1257.306, 663.387 1255, 667.258 1239.708 C 669.235 1231.894, 671.554 1222.919, 672.410 1219.764 C 674.396 1212.447, 684.106 1183.338, 687.556 1174.361 C 689.006 1170.587, 691.093 1165.025, 692.194 1162 C 693.294 1158.975, 694.561 1155.600, 695.007 1154.500 C 695.454 1153.400, 698.828 1144.850, 702.504 1135.500 C 706.180 1126.150, 710.001 1116.700, 710.994 1114.500 C 711.987 1112.300, 714.819 1105.775, 717.286 1100 C 719.752 1094.225, 723.224 1086.350, 725.001 1082.500 C 728.615 1074.667, 731.686 1067.925, 735.023 1060.500 C 743.662 1041.272, 779.223 969.618, 790.235 949.250 L 796.318 938 802.670 938 C 809.923 938, 823.834 940.107, 835.417 942.961 C 845.692 945.492, 847.580 944.528, 842.250 939.473 C 839.161 936.543, 833.702 933.516, 827.597 931.349 C 821.454 929.167, 809.303 926, 807.077 926 C 804.323 926, 803.678 924.442, 805.329 921.778 C 806.106 920.525, 808.657 915.900, 810.997 911.500 C 813.337 907.100, 817.825 899, 820.970 893.500 C 824.115 888, 828.853 879.450, 831.499 874.500 C 834.145 869.550, 838.040 862.642, 840.155 859.148 C 842.270 855.654, 844 852.652, 844 852.477 C 844 852.301, 846.317 848.185, 849.150 843.329 C 851.982 838.473, 858.276 827.603, 863.136 819.174 C 867.996 810.745, 872.810 802.645, 873.833 801.174 C 874.857 799.703, 877.054 796.025, 878.715 793 C 880.377 789.975, 884.207 783.450, 887.226 778.500 C 890.246 773.550, 896.994 762.300, 902.222 753.500 C 907.449 744.700, 914.106 733.675, 917.013 729 C 919.921 724.325, 924.468 716.777, 927.117 712.227 C 929.767 707.678, 933.300 701.971, 934.967 699.547 C 936.635 697.123, 938 694.916, 938 694.643 C 938 694.370, 940.320 690.401, 943.155 685.823 C 945.991 681.246, 952.670 670.300, 957.999 661.500 C 963.327 652.700, 970.290 641.450, 973.473 636.500 C 976.655 631.550, 981.974 623.225, 985.293 618 C 988.611 612.775, 994.336 603.775, 998.016 598 C 1011.921 576.175, 1021.789 560.682, 1030.500 546.995 C 1035.450 539.218, 1041.437 530.154, 1043.804 526.852 C 1049.899 518.349, 1054 509.843, 1054 505.703 C 1054 501.559, 1049.244 496.009, 1045.673 495.986 C 1044.478 495.979, 1042.600 495.797, 1041.500 495.583 C 1040.400 495.368, 1037.376 495.560, 1034.780 496.009 M 2199.377 519.475 C 2190.116 521.741, 2177.824 528.588, 2165.344 538.433 C 2162.508 540.670, 2148.537 554.200, 2134.297 568.500 C 2110.172 592.727, 2101.818 601.572, 2079.989 626 C 2075.320 631.225, 2071.275 635.725, 2070.999 636 C 2070.723 636.275, 2067.574 639.875, 2064 644 C 2060.426 648.125, 2057.277 651.725, 2057.001 652 C 2056.725 652.275, 2054.037 655.425, 2051.026 659 C 2048.016 662.575, 2045.313 665.725, 2045.020 666 C 2044.361 666.619, 2034.906 677.769, 2032.725 680.500 C 2031.846 681.600, 2027.365 687, 2022.766 692.500 C 2011.770 705.652, 1962.471 767.590, 1950.246 783.613 C 1928.979 811.486, 1919.842 823.589, 1915.537 829.586 C 1912.807 833.389, 1907.673 840.550, 1904.129 845.500 C 1900.584 850.450, 1895.347 857.650, 1892.491 861.500 C 1885.581 870.813, 1861.563 905.250, 1842.668 932.934 L 1833.500 946.367 1822.709 950.084 C 1813.232 953.348, 1805.102 956.343, 1798.500 959 C 1797.400 959.443, 1793.912 960.749, 1790.750 961.903 C 1787.588 963.056, 1782.412 964.944, 1779.250 966.097 C 1776.088 967.251, 1772.375 968.661, 1771 969.231 C 1769.625 969.801, 1767.600 970.612, 1766.500 971.032 C 1765.400 971.452, 1762.925 972.481, 1761 973.317 C 1759.075 974.154, 1754.125 976.186, 1750 977.833 C 1745.875 979.480, 1737.550 983.049, 1731.500 985.764 C 1725.450 988.479, 1718.250 991.706, 1715.500 992.936 C 1691.649 1003.600, 1656.179 1022.554, 1632 1037.556 C 1562.727 1080.537, 1521.704 1122.557, 1512.009 1160.464 C 1507.908 1176.498, 1511.038 1191.395, 1520.771 1202.168 C 1532.717 1215.391, 1553.822 1222.103, 1578.500 1220.527 C 1587.883 1219.927, 1590.690 1219.484, 1602 1216.814 C 1634.170 1209.221, 1672.500 1185.779, 1706.301 1153.028 C 1711.141 1148.337, 1715.498 1144.360, 1715.982 1144.190 C 1717.942 1143.499, 1754.689 1101.791, 1764.015 1089.672 C 1766.482 1086.467, 1771.543 1079.942, 1775.263 1075.172 C 1778.983 1070.402, 1787.498 1058.850, 1794.185 1049.500 C 1800.872 1040.150, 1808.002 1030.250, 1810.030 1027.500 C 1812.058 1024.750, 1818.595 1015.300, 1824.557 1006.500 C 1830.518 997.700, 1839.956 983.779, 1845.529 975.565 L 1855.662 960.630 1862.081 958.284 C 1873.413 954.142, 1921.311 938.152, 1927 936.611 C 1930.025 935.792, 1935.650 934.167, 1939.500 933 C 1950.696 929.607, 1957.255 927.922, 1957.667 928.334 C 1957.878 928.545, 1957.155 930.468, 1956.061 932.608 C 1953.428 937.760, 1934 978.224, 1934 978.556 C 1934 978.699, 1932.037 983.019, 1929.637 988.158 C 1925.306 997.430, 1922.944 1002.618, 1918.893 1011.750 C 1917.734 1014.362, 1915.440 1019.425, 1913.794 1023 C 1912.149 1026.575, 1909.912 1031.742, 1908.824 1034.483 C 1907.736 1037.223, 1905.755 1041.849, 1904.423 1044.762 C 1903.090 1047.676, 1902 1050.258, 1902 1050.500 C 1902 1050.742, 1900.916 1053.317, 1899.590 1056.220 C 1898.265 1059.124, 1893.949 1069.600, 1890 1079.500 C 1886.051 1089.400, 1881.787 1099.763, 1880.525 1102.529 C 1879.262 1105.294, 1877.546 1109.569, 1876.710 1112.029 C 1875.874 1114.488, 1872.851 1122.350, 1869.993 1129.500 C 1864.817 1142.447, 1854.973 1169.180, 1850.476 1182.500 C 1849.176 1186.350, 1847.445 1191.096, 1846.628 1193.046 L 1845.144 1196.591 1832.322 1199.371 C 1825.270 1200.899, 1815.675 1203.033, 1811 1204.114 C 1801.515 1206.305, 1796.043 1207.548, 1789.750 1208.940 C 1776.706 1211.825, 1762.943 1214.976, 1741.250 1220.044 C 1711.133 1227.081, 1596.963 1255.611, 1573 1262.089 C 1566.675 1263.799, 1559.925 1265.568, 1558 1266.020 C 1554.602 1266.818, 1545.790 1269.138, 1533.500 1272.469 C 1530.200 1273.364, 1523 1275.400, 1517.500 1276.994 C 1512 1278.589, 1502.325 1281.283, 1496 1282.983 C 1489.675 1284.682, 1481.575 1286.948, 1478 1288.018 C 1468.285 1290.925, 1454.420 1294.881, 1446.225 1297.084 C 1442.225 1298.160, 1437.050 1299.647, 1434.725 1300.388 C 1432.401 1301.129, 1427.350 1302.661, 1423.500 1303.792 C 1399.231 1310.924, 1366.979 1320.753, 1354 1324.973 C 1349.325 1326.493, 1340.775 1329.197, 1335 1330.983 C 1329.225 1332.768, 1317.975 1336.377, 1310 1339.002 C 1302.025 1341.627, 1289.200 1345.832, 1281.500 1348.345 C 1273.800 1350.859, 1263.450 1354.338, 1258.500 1356.077 C 1253.550 1357.816, 1246.800 1360.054, 1243.500 1361.051 C 1240.200 1362.047, 1224.225 1367.415, 1208 1372.981 C 1191.775 1378.546, 1173.325 1384.851, 1167 1386.993 C 1160.675 1389.134, 1150.325 1392.741, 1144 1395.008 C 1137.675 1397.275, 1130.025 1399.966, 1127 1400.986 C 1123.975 1402.007, 1114.975 1405.153, 1107 1407.978 C 1099.025 1410.802, 1088.675 1414.404, 1084 1415.983 C 1079.325 1417.562, 1071.675 1420.268, 1067 1421.997 C 1062.325 1423.726, 1053.325 1426.885, 1047 1429.017 C 1040.675 1431.149, 1028.975 1435.198, 1021 1438.015 C 1013.025 1440.832, 999.975 1445.334, 992 1448.019 C 984.025 1450.704, 971.650 1454.874, 964.500 1457.285 C 908.200 1476.271, 863.353 1489.704, 825.500 1498.918 C 818.350 1500.658, 810.925 1502.516, 809 1503.046 C 807.075 1503.576, 798.525 1505.357, 790 1507.004 C 781.475 1508.650, 772.250 1510.434, 769.500 1510.967 C 762.292 1512.365, 748.452 1514.397, 727.500 1517.135 C 714.768 1518.798, 669.444 1518.838, 660 1517.195 C 630.694 1512.093, 616.681 1506.367, 604.464 1494.500 C 593.723 1484.067, 590.029 1475.504, 590.011 1460.993 C 589.960 1421.241, 631.219 1371.406, 705.452 1321.557 C 712.575 1316.773, 720.900 1311.376, 723.952 1309.564 C 727.003 1307.751, 732.597 1304.367, 736.383 1302.042 C 740.169 1299.718, 744.781 1296.958, 746.633 1295.908 C 748.485 1294.859, 751.529 1293.134, 753.397 1292.075 C 755.265 1291.016, 761.228 1287.789, 766.647 1284.904 C 772.066 1282.019, 781.256 1277.120, 787.070 1274.016 C 792.883 1270.913, 802.108 1266.195, 807.570 1263.532 C 820.755 1257.102, 840.030 1248, 840.459 1248 C 840.647 1248, 844.784 1246.170, 849.651 1243.934 C 854.518 1241.698, 859.850 1239.271, 861.500 1238.542 C 863.150 1237.813, 867.101 1236.042, 870.280 1234.608 C 873.458 1233.174, 876.260 1232, 876.505 1232 C 876.750 1232, 879.774 1230.725, 883.225 1229.168 C 886.676 1227.610, 896.700 1223.518, 905.500 1220.075 C 924.232 1212.746, 924.442 1212.662, 929 1210.687 C 930.925 1209.852, 934.975 1208.276, 938 1207.184 C 941.025 1206.092, 947.325 1203.758, 952 1201.998 C 973.733 1193.816, 1030.863 1174.376, 1051.500 1168.143 C 1070.874 1162.290, 1102.843 1153.692, 1122.500 1149.048 C 1162.930 1139.495, 1167.660 1138.415, 1175.500 1136.947 C 1178.800 1136.329, 1183.525 1135.441, 1186 1134.973 C 1188.475 1134.505, 1193.650 1133.628, 1197.500 1133.022 C 1201.350 1132.417, 1206.975 1131.507, 1210 1131 C 1220.893 1129.174, 1228.606 1128.072, 1234.500 1127.501 C 1237.800 1127.181, 1241.737 1126.677, 1243.250 1126.380 C 1245.265 1125.985, 1246 1126.241, 1246 1127.337 C 1246 1128.160, 1245.634 1128.983, 1245.186 1129.167 C 1244.739 1129.350, 1241.975 1132.607, 1239.043 1136.405 C 1232.607 1144.746, 1231.379 1146.281, 1227.442 1150.907 C 1225.761 1152.883, 1221.504 1158.100, 1217.983 1162.500 C 1212.383 1169.498, 1194.499 1190.623, 1193.009 1192 C 1192.711 1192.275, 1191.177 1194.075, 1189.599 1196 C 1186.293 1200.033, 1174.239 1213.521, 1165.500 1222.966 C 1162.200 1226.532, 1157.038 1232.161, 1154.030 1235.475 C 1144.867 1245.566, 1096.265 1293.933, 1083.500 1305.662 C 1057.369 1329.674, 1031.067 1351.402, 1010.500 1365.968 C 1005.550 1369.473, 999.925 1373.533, 998 1374.989 C 991.986 1379.538, 982.995 1385.430, 969 1393.994 C 955.393 1402.321, 951.814 1404.419, 944.500 1408.350 C 937.310 1412.215, 937.197 1414, 944.142 1414 C 959.141 1414, 989.812 1400.364, 1029.500 1376.052 C 1054.027 1361.027, 1098.189 1326.729, 1126.500 1300.718 C 1149.452 1279.631, 1194.334 1233.883, 1211.039 1214.550 C 1216.242 1208.527, 1222.350 1201.552, 1224.611 1199.050 C 1226.871 1196.547, 1233.738 1188.425, 1239.869 1181 C 1246.001 1173.575, 1252.510 1165.700, 1254.335 1163.500 C 1256.160 1161.300, 1263.621 1151.739, 1270.915 1142.254 C 1278.209 1132.769, 1284.604 1124.745, 1285.125 1124.423 C 1285.647 1124.100, 1298.432 1123.817, 1313.537 1123.793 C 1328.642 1123.769, 1341 1123.432, 1341 1123.044 C 1341 1119.987, 1312.503 1114.033, 1297.750 1114.008 C 1295.138 1114.004, 1293 1113.544, 1293 1112.987 C 1293 1112.430, 1296.954 1106.242, 1301.786 1099.237 C 1306.618 1092.232, 1312.246 1084.025, 1314.293 1081 C 1316.341 1077.975, 1318.626 1074.600, 1319.372 1073.500 C 1330.302 1057.388, 1355.837 1015.590, 1363.969 1000.500 C 1366.340 996.100, 1368.602 992.050, 1368.995 991.500 C 1370.235 989.765, 1376.728 977.595, 1385.005 961.490 C 1393.353 945.249, 1394.752 939.895, 1391.500 936.643 C 1389.549 934.692, 1389.523 934.822, 1392.915 929.473 C 1397.458 922.309, 1398.528 916.329, 1396.509 909.383 C 1391.421 891.882, 1368.732 888.525, 1342 901.320 C 1310.779 916.262, 1278.818 948.110, 1262.037 981 C 1258.615 987.708, 1256.117 990.975, 1250.187 996.500 C 1229.814 1015.479, 1209.340 1030, 1202.953 1030 C 1196.102 1030, 1207.437 1003.826, 1227.063 974.328 C 1233.220 965.072, 1239.056 956.600, 1240.032 955.500 C 1246.520 948.182, 1247.892 939.483, 1243.096 936.068 C 1239.669 933.628, 1232.762 933.350, 1229 935.500 C 1225.218 937.662, 1224 937.324, 1224 934.113 C 1224 932.520, 1222.543 929.046, 1220.750 926.363 C 1205.349 903.318, 1160.848 919.943, 1123.457 962.712 C 1115.411 971.915, 1104.138 988.029, 1098.971 997.714 C 1096.582 1002.192, 1092.002 1007.524, 1082.578 1016.798 C 1053.715 1045.200, 1038.196 1056.781, 1032.838 1053.913 C 1030.078 1052.436, 1029.713 1047.554, 1031.075 1030.304 C 1032.513 1012.098, 1031.628 1002.441, 1027.767 994.229 C 1026.654 991.861, 1025.914 989.807, 1026.122 989.666 C 1026.330 989.525, 1029.875 986.473, 1034 982.884 C 1072.262 949.597, 1112.796 924.009, 1127.288 923.996 C 1134.495 923.990, 1141 918.030, 1141 911.433 C 1141 908.299, 1137.707 902.900, 1134.915 901.456 C 1126.955 897.340, 1114.776 901.300, 1095.624 914.232 C 1089.389 918.441, 1057.957 943.564, 1052.500 948.699 C 1050.850 950.252, 1043.875 956.317, 1037 962.176 C 1030.125 968.036, 1023.233 974.039, 1021.685 975.516 C 1017.254 979.743, 1017.493 977.812, 1022.333 970.260 C 1024.784 966.437, 1027.579 961.777, 1028.544 959.904 C 1029.509 958.032, 1032.320 953.350, 1034.790 949.500 C 1037.259 945.650, 1040.817 940.107, 1042.695 937.183 C 1048.751 927.754, 1050.001 925.010, 1049.968 921.220 C 1049.863 908.915, 1034.734 908.909, 1022.857 921.209 C 1016.597 927.692, 986.004 973.046, 985.999 975.852 C 985.993 978.757, 968.378 991.706, 950.250 1002.131 C 941.543 1007.138, 939.737 1008.070, 939.399 1007.732 C 939.198 1007.531, 941.897 1001.547, 945.397 994.433 C 955.460 973.982, 958.470 963.676, 958.374 950 C 958.298 939.145, 956.897 934.952, 951.714 930.063 C 946.181 924.844, 943.237 923.735, 934.918 923.734 C 921.896 923.734, 909.278 929.432, 893.552 942.415 C 885.900 948.733, 889.261 942.972, 908.966 916 C 922.090 898.035, 928 889.006, 928 886.919 C 928 880.426, 921.548 876.687, 914.378 879.025 C 898.839 884.091, 872.398 916.540, 831.282 981 C 821.919 995.681, 814 1008.742, 814 1009.507 C 814 1009.805, 810.937 1015.100, 807.193 1021.274 C 800.775 1031.857, 797.056 1038.550, 784.286 1062.500 C 777.186 1075.817, 752.190 1125.808, 748.536 1134 C 746.941 1137.575, 743.468 1145.147, 740.818 1150.827 C 738.168 1156.507, 736 1161.333, 736 1161.552 C 736 1161.771, 734.650 1164.897, 733 1168.500 C 731.350 1172.103, 730 1175.253, 730 1175.500 C 730 1175.747, 728.725 1178.774, 727.167 1182.225 C 724.677 1187.741, 715.409 1210.966, 707.556 1231.372 C 699.781 1251.572, 688.898 1287.279, 685.275 1304.473 C 684.395 1308.649, 684.458 1308.589, 669.377 1319.455 C 641.860 1339.282, 612.935 1366.695, 597.270 1387.795 C 580.972 1409.749, 571.886 1429.862, 569.006 1450.362 C 565.604 1474.585, 576.821 1498.371, 598.567 1513.045 C 605.277 1517.573, 616.904 1524, 618.385 1524 C 618.735 1524, 620.929 1524.859, 623.261 1525.909 C 633.360 1530.455, 648.404 1533.903, 669.500 1536.504 C 683.472 1538.227, 722.621 1538.513, 738.211 1537.005 C 776.540 1533.298, 786.993 1531.632, 832.750 1521.933 C 846.997 1518.914, 884.851 1509.487, 897 1505.934 C 906.428 1503.176, 923.522 1498.276, 931.500 1496.044 C 933.150 1495.582, 941.925 1492.863, 951 1490 C 960.075 1487.137, 968.850 1484.429, 970.500 1483.980 C 975.546 1482.609, 986.105 1479.351, 994 1476.729 C 998.125 1475.359, 1008.925 1471.914, 1018 1469.072 C 1027.075 1466.231, 1035.400 1463.505, 1036.500 1463.016 C 1037.600 1462.527, 1042.775 1460.763, 1048 1459.098 C 1053.225 1457.432, 1075.725 1449.976, 1098 1442.529 C 1216.259 1402.993, 1268.431 1385.643, 1286 1380.007 C 1296.725 1376.566, 1313.375 1371.157, 1323 1367.986 C 1332.625 1364.815, 1346.575 1360.333, 1354 1358.026 C 1361.425 1355.720, 1369.525 1353.141, 1372 1352.297 C 1374.475 1351.453, 1377.850 1350.403, 1379.500 1349.964 C 1381.150 1349.524, 1385.425 1348.268, 1389 1347.172 C 1392.575 1346.076, 1402.925 1342.931, 1412 1340.183 C 1421.075 1337.434, 1430.525 1334.513, 1433 1333.690 C 1435.475 1332.868, 1440.875 1331.204, 1445 1329.994 C 1449.125 1328.783, 1453.625 1327.397, 1455 1326.915 C 1456.375 1326.433, 1459.975 1325.382, 1463 1324.579 C 1466.025 1323.777, 1474.800 1321.257, 1482.500 1318.978 C 1490.200 1316.700, 1497.850 1314.463, 1499.500 1314.008 C 1505.703 1312.297, 1517.374 1308.965, 1546.500 1300.590 C 1587.950 1288.670, 1613.198 1281.593, 1623.500 1279.006 C 1626.250 1278.315, 1634.575 1276.034, 1642 1273.936 C 1649.425 1271.838, 1659.100 1269.157, 1663.500 1267.978 C 1682.201 1262.966, 1783.523 1237.464, 1802 1233.119 C 1806.675 1232.019, 1815.331 1229.968, 1821.236 1228.560 C 1833.592 1225.614, 1833.999 1225.572, 1834.004 1227.250 C 1834.007 1227.938, 1831.781 1235.475, 1829.059 1244 C 1826.337 1252.525, 1823.130 1262.875, 1821.933 1267 C 1820.736 1271.125, 1818.947 1276.975, 1817.958 1280 C 1816.047 1285.844, 1808.470 1316.156, 1804.958 1332 C 1802.445 1343.339, 1799.518 1360.395, 1797.492 1375.500 C 1795.831 1387.877, 1795.471 1413, 1796.953 1413 C 1798.041 1413, 1799.986 1406.679, 1799.994 1403.116 C 1799.997 1401.805, 1800.411 1399.105, 1800.913 1397.116 C 1801.416 1395.127, 1802.336 1391.025, 1802.958 1388 C 1803.944 1383.209, 1805.308 1377.594, 1809.029 1363 C 1815.998 1335.663, 1834.858 1279.288, 1846.999 1249.500 C 1847.447 1248.400, 1850.160 1241.524, 1853.027 1234.221 C 1855.894 1226.917, 1858.974 1220.553, 1859.870 1220.077 C 1860.767 1219.601, 1866 1218.262, 1871.500 1217.100 C 1877 1215.938, 1885.325 1214.085, 1890 1212.981 C 1894.675 1211.877, 1904.800 1209.583, 1912.500 1207.883 C 1920.200 1206.183, 1928.075 1204.434, 1930 1203.997 C 1931.925 1203.559, 1935.975 1202.661, 1939 1202 C 1942.025 1201.339, 1946.075 1200.442, 1948 1200.006 C 1953.417 1198.780, 1968.542 1195.609, 1991 1190.992 C 2002.275 1188.674, 2013.300 1186.376, 2015.500 1185.886 C 2019.143 1185.074, 2022.923 1184.307, 2034.500 1182.027 C 2036.700 1181.594, 2047.725 1179.334, 2059 1177.006 C 2070.275 1174.677, 2080.625 1172.554, 2082 1172.289 C 2083.375 1172.024, 2095.750 1169.603, 2109.500 1166.909 C 2123.250 1164.215, 2137.200 1161.519, 2140.500 1160.918 C 2143.800 1160.317, 2148.750 1159.416, 2151.500 1158.914 C 2154.250 1158.413, 2161.225 1157.102, 2167 1156 C 2179.032 1153.705, 2184.832 1152.640, 2194 1151.041 C 2201.032 1149.816, 2207.630 1148.608, 2215.500 1147.106 C 2218.250 1146.581, 2223.425 1145.647, 2227 1145.030 C 2230.575 1144.413, 2235.750 1143.500, 2238.500 1143 C 2241.250 1142.500, 2246.425 1141.587, 2250 1140.970 C 2253.575 1140.353, 2258.525 1139.460, 2261 1138.986 C 2263.475 1138.511, 2268.650 1137.628, 2272.500 1137.022 C 2276.350 1136.417, 2281.975 1135.507, 2285 1135 C 2288.025 1134.493, 2293.650 1133.578, 2297.500 1132.966 C 2301.350 1132.354, 2306.750 1131.457, 2309.500 1130.971 C 2317.227 1129.605, 2325.843 1128.179, 2333.250 1127.039 C 2343.308 1125.491, 2351.074 1124.283, 2365.500 1122.025 C 2372.650 1120.905, 2381.650 1119.530, 2385.500 1118.968 C 2389.350 1118.406, 2394.975 1117.526, 2398 1117.012 C 2404.816 1115.854, 2414.046 1114.460, 2424.500 1113.008 C 2428.900 1112.397, 2434.975 1111.488, 2438 1110.988 C 2448.704 1109.217, 2456.606 1108.063, 2465.500 1106.971 C 2470.450 1106.363, 2477.200 1105.468, 2480.500 1104.981 C 2483.800 1104.495, 2490.325 1103.603, 2495 1103 C 2499.675 1102.397, 2506.200 1101.502, 2509.500 1101.010 C 2515.113 1100.174, 2519.831 1099.607, 2543.250 1096.951 C 2548.338 1096.374, 2555.875 1095.492, 2560 1094.991 C 2564.125 1094.489, 2572 1093.599, 2577.500 1093.013 C 2583 1092.427, 2591.325 1091.517, 2596 1090.991 C 2618.612 1088.447, 2653.596 1085.445, 2689 1083.011 C 2786.120 1076.333, 2870.724 1083.224, 2905.217 1100.621 C 2910.545 1103.309, 2912.004 1103.552, 2911.991 1101.750 C 2911.973 1099.108, 2896.224 1090.547, 2883.500 1086.262 C 2843.982 1072.954, 2797.471 1068.252, 2716 1069.328 C 2692.075 1069.644, 2665.975 1070.353, 2658 1070.903 C 2650.025 1071.454, 2635.625 1072.388, 2626 1072.979 C 2616.375 1073.570, 2603.325 1074.495, 2597 1075.035 C 2569.804 1077.359, 2560.983 1078.145, 2552.500 1079.003 C 2547.550 1079.504, 2538.550 1080.408, 2532.500 1081.012 C 2526.450 1081.617, 2517.900 1082.515, 2513.500 1083.009 C 2509.100 1083.502, 2501 1084.395, 2495.500 1084.992 C 2490 1085.590, 2482.125 1086.503, 2478 1087.020 C 2473.875 1087.537, 2466.225 1088.441, 2461 1089.027 C 2452.085 1090.028, 2445.367 1090.856, 2428.500 1093.032 C 2424.650 1093.529, 2417.675 1094.422, 2413 1095.016 C 2408.325 1095.610, 2401.800 1096.498, 2398.500 1096.989 C 2395.200 1097.480, 2388.900 1098.385, 2384.500 1099 C 2380.100 1099.615, 2373.800 1100.515, 2370.500 1101 C 2367.200 1101.485, 2360.900 1102.385, 2356.500 1103 C 2352.100 1103.615, 2345.800 1104.515, 2342.500 1105 C 2339.200 1105.485, 2332.900 1106.381, 2328.500 1106.992 C 2320.855 1108.053, 2317.713 1108.534, 2303 1110.891 C 2291.219 1112.778, 2270.613 1116.043, 2264 1117.069 C 2260.425 1117.624, 2255.025 1118.493, 2252 1119.001 C 2228.528 1122.942, 2203.906 1127.057, 2198 1128.027 C 2194.975 1128.523, 2189.688 1129.395, 2186.250 1129.965 C 2182.813 1130.534, 2177.412 1131.428, 2174.250 1131.950 C 2171.088 1132.473, 2165.912 1133.373, 2162.750 1133.950 C 2159.588 1134.528, 2154.637 1135.430, 2151.750 1135.956 C 2148.863 1136.482, 2141.325 1137.807, 2135 1138.899 C 2117.503 1141.922, 2116.790 1142.053, 2112.500 1143.034 C 2110.300 1143.537, 2103.325 1144.886, 2097 1146.032 C 2090.675 1147.177, 2083.475 1148.504, 2081 1148.981 C 2078.525 1149.458, 2073.575 1150.363, 2070 1150.991 C 2066.425 1151.620, 2061.700 1152.517, 2059.500 1152.986 C 2052.795 1154.414, 2045.046 1155.893, 2033 1158.043 C 2026.675 1159.172, 2019.588 1160.525, 2017.250 1161.048 C 2010.078 1162.655, 2004.744 1163.789, 1999 1164.930 C 1995.975 1165.531, 1987.650 1167.198, 1980.500 1168.634 C 1973.350 1170.071, 1965.475 1171.621, 1963 1172.079 C 1957.541 1173.089, 1947.937 1174.907, 1942.500 1175.959 C 1940.300 1176.385, 1934 1177.712, 1928.500 1178.908 C 1923 1180.104, 1914.225 1181.958, 1909 1183.028 C 1903.775 1184.098, 1893.313 1186.258, 1885.750 1187.827 C 1876.225 1189.804, 1872 1190.322, 1872 1189.513 C 1872 1188.325, 1875.724 1178.758, 1879.011 1171.500 C 1880.007 1169.300, 1882.248 1163.900, 1883.992 1159.500 C 1887.369 1150.974, 1887.663 1150.300, 1893.934 1136.651 C 1896.170 1131.784, 1898 1127.634, 1898 1127.430 C 1898 1127.226, 1899.192 1124.458, 1900.648 1121.280 C 1909.595 1101.755, 1920 1078.721, 1920 1078.443 C 1920 1077.571, 1948.243 1019.269, 1959.211 997.500 C 1967.886 980.282, 1991.080 934.996, 1996.344 925 C 2001.387 915.423, 2001.790 915.179, 2019.305 911.048 C 2023.812 909.985, 2029.300 908.633, 2031.500 908.043 C 2048.337 903.529, 2078.812 897.785, 2095.500 895.980 C 2107.615 894.669, 2110 894.088, 2110 892.446 C 2110 891.679, 2108.537 890.252, 2106.750 889.276 C 2103.940 887.740, 2100.863 887.508, 2084 887.558 C 2073.275 887.589, 2060.675 888.184, 2056 888.879 C 2038.758 891.442, 2016.514 895.182, 2015.768 895.643 C 2015.346 895.904, 2014.561 895.847, 2014.025 895.515 C 2012.854 894.792, 2018.274 884.315, 2034.986 855 C 2039.218 847.575, 2044.830 837.494, 2047.457 832.598 C 2050.083 827.701, 2053.599 821.401, 2055.270 818.598 C 2056.940 815.794, 2059.882 810.575, 2061.807 807 C 2063.732 803.425, 2067.191 797.350, 2069.494 793.500 C 2071.797 789.650, 2076.518 781.325, 2079.986 775 C 2083.454 768.675, 2087.059 762.375, 2087.997 761 C 2088.935 759.625, 2091.636 754.900, 2094 750.500 C 2096.364 746.100, 2099.131 741.306, 2100.149 739.846 C 2101.167 738.386, 2102 736.880, 2102 736.500 C 2102 736.120, 2102.827 734.614, 2103.839 733.154 C 2104.850 731.694, 2108.056 726, 2110.963 720.500 C 2113.870 715, 2116.594 710.050, 2117.017 709.500 C 2117.441 708.950, 2118.681 706.925, 2119.775 705 C 2120.868 703.075, 2128.566 689.638, 2136.881 675.139 C 2145.197 660.641, 2152 648.639, 2152 648.469 C 2152 648.029, 2162.424 629.925, 2167.816 621 C 2170.309 616.875, 2173.550 611.250, 2175.019 608.500 C 2178.079 602.774, 2180.356 598.783, 2185.007 591 C 2186.814 587.975, 2189.649 583.025, 2191.305 580 C 2192.962 576.975, 2195.516 572.700, 2196.982 570.500 C 2198.447 568.300, 2202.538 561.633, 2206.073 555.685 C 2209.608 549.737, 2213.358 543.437, 2214.408 541.685 C 2221.258 530.247, 2221.020 523.640, 2213.627 520.061 C 2208.859 517.753, 2206.765 517.667, 2199.377 519.475 M 950.090 594.884 C 948.765 596.323, 940.421 604.925, 931.549 614 C 916.495 629.397, 898.235 648.864, 887.931 660.500 C 885.496 663.250, 880.748 668.425, 877.381 672 C 874.014 675.575, 868.187 682.100, 864.431 686.500 C 860.675 690.900, 853.950 698.550, 849.485 703.500 C 845.021 708.450, 834.223 721.050, 825.490 731.500 C 816.757 741.950, 806.948 753.650, 803.691 757.500 C 796.406 766.111, 795.383 767.363, 791.026 773.003 C 789.115 775.476, 787.286 777.725, 786.961 778 C 783.096 781.273, 715.136 868.902, 693.122 899 C 689.703 903.675, 686.364 908.175, 685.702 909 C 681.301 914.491, 677.185 920.996, 677.853 921.409 C 678.288 921.678, 684.237 921.448, 691.072 920.898 C 697.907 920.348, 718.312 920.033, 736.416 920.199 L 769.331 920.500 773.747 912 C 776.176 907.325, 783.138 893.825, 789.217 882 C 800.021 860.984, 804.976 851.578, 809.500 843.500 C 810.732 841.300, 814.105 835, 816.994 829.500 C 819.884 824, 822.585 819.050, 822.998 818.500 C 823.410 817.950, 825.886 813.450, 828.498 808.500 C 834.842 796.482, 839.401 788.198, 845.191 778.171 C 847.836 773.590, 850 769.673, 850 769.465 C 850 769.258, 851.413 766.706, 853.140 763.794 C 857.333 756.724, 859.700 752.583, 863.313 746 C 864.973 742.975, 868.057 737.642, 870.166 734.148 C 872.275 730.654, 874 727.663, 874 727.500 C 874 727.337, 875.800 724.242, 878 720.620 C 880.200 716.999, 882 713.823, 882 713.563 C 882 713.303, 885.150 707.906, 889 701.570 C 892.850 695.233, 896 689.859, 896 689.627 C 896 689.394, 897.881 686.121, 900.180 682.352 C 903.696 676.588, 912.999 660.670, 920.032 648.383 C 921.013 646.669, 923.658 642.235, 925.908 638.531 C 928.159 634.827, 930 631.663, 930 631.501 C 930 631.339, 934.339 624.072, 939.643 615.353 C 953.490 592.589, 953.283 592.945, 952.874 592.591 C 952.668 592.413, 951.416 593.445, 950.090 594.884 M 2131.947 603.966 C 2129.501 606.698, 2120.057 616.935, 2110.960 626.716 C 2093.191 645.822, 2072.799 668.920, 2055.974 689 C 2050.213 695.875, 2044.903 702.130, 2044.173 702.899 C 2040.402 706.872, 1994.528 764.612, 1982.519 780.500 C 1960.596 809.503, 1951.871 821.153, 1949.193 825 C 1947.470 827.475, 1942.893 833.775, 1939.024 839 C 1932.551 847.739, 1925.379 857.823, 1906.662 884.500 C 1902.803 890, 1898.346 896.300, 1896.756 898.500 C 1891.331 906.011, 1875 931.168, 1875 932.015 C 1875 932.480, 1876.463 932.409, 1878.250 931.858 C 1889.935 928.255, 1895.656 926.509, 1904.500 923.846 C 1910 922.190, 1915.850 920.448, 1917.500 919.975 C 1919.150 919.502, 1923.875 918.137, 1928 916.943 C 1932.125 915.748, 1942.025 913.065, 1950 910.979 C 1957.975 908.893, 1965.650 906.739, 1967.054 906.192 C 1969.047 905.417, 1971.604 901.251, 1978.677 887.259 C 1987.455 869.896, 1998.305 848.938, 2005.993 834.500 C 2008.042 830.650, 2012.564 822.100, 2016.041 815.500 C 2019.518 808.900, 2023.687 801.250, 2025.306 798.500 C 2026.924 795.750, 2030.738 788.775, 2033.781 783 C 2036.823 777.225, 2040.981 769.575, 2043.019 766 C 2045.058 762.425, 2047.849 757.475, 2049.221 755 C 2050.594 752.525, 2052.604 748.925, 2053.689 747 C 2054.773 745.075, 2057.617 739.900, 2060.008 735.500 C 2062.399 731.100, 2065.626 725.343, 2067.178 722.706 C 2068.730 720.069, 2070 717.780, 2070 717.618 C 2070 717.456, 2073.647 710.838, 2078.104 702.912 C 2089.941 681.864, 2090.590 680.720, 2098.785 666.500 C 2102.905 659.350, 2109.324 648.086, 2113.049 641.469 C 2116.774 634.851, 2122.112 625.706, 2124.911 621.145 C 2127.710 616.585, 2130 612.637, 2130 612.372 C 2130 612.107, 2131.800 609.240, 2134 606 C 2136.200 602.760, 2138 599.860, 2138 599.555 C 2138 598, 2135.955 599.491, 2131.947 603.966 M 1744 767.270 C 1724.355 785.808, 1702.953 801.250, 1685.291 809.631 C 1674.744 814.636, 1668.554 816.285, 1660 816.366 C 1651.305 816.450, 1649.008 815.324, 1644.194 808.621 C 1638.843 801.170, 1630.048 798.946, 1624.761 803.707 C 1615.319 812.211, 1626.611 834.539, 1642.503 838.790 C 1664.015 844.543, 1696.551 828.682, 1728.050 797.088 C 1741.283 783.814, 1749.736 772.404, 1750.689 766.528 C 1751.469 761.724, 1749.665 761.925, 1744 767.270 M 2754.500 847.653 C 2750.198 849.910, 2743.632 856.420, 2737.509 864.500 C 2732.361 871.294, 2710 904.488, 2710 905.336 C 2710 905.568, 2708.468 908.301, 2706.596 911.410 C 2699.167 923.748, 2653.337 960, 2645.169 960 C 2642.114 960, 2641.752 958.575, 2643.397 953.034 C 2647.431 939.451, 2660.510 917.970, 2683.766 886.732 C 2694.272 872.620, 2696.328 869.272, 2696.742 865.599 C 2697.327 860.409, 2695.091 857.483, 2689.779 856.486 C 2679.025 854.469, 2663.299 868.274, 2639.073 901 C 2624.433 920.775, 2588.763 955.073, 2575.541 962.088 C 2568.717 965.708, 2567.646 964.468, 2570.588 956.357 C 2576.379 940.390, 2593.270 912.432, 2616.114 881 C 2625.576 867.981, 2626.924 863.349, 2622.687 858.423 C 2619.476 854.690, 2610.974 854.653, 2604.674 858.345 C 2594.278 864.438, 2568.093 897.675, 2556.904 918.981 C 2548.242 935.475, 2492.336 979.843, 2486.411 974.926 C 2481.578 970.915, 2499.715 934.170, 2520.924 905 C 2529.129 893.716, 2541.682 875.587, 2542.864 873.316 C 2544.709 869.770, 2544.200 865.344, 2541.601 862.322 C 2539.474 859.850, 2538.538 859.538, 2533.351 859.573 C 2520.414 859.661, 2510.706 868.358, 2459.199 926 C 2441.053 946.307, 2413.893 972.288, 2404.003 978.799 C 2393.244 985.882, 2391.397 986.177, 2391.714 980.763 C 2391.979 976.237, 2394.758 969.702, 2402.460 955.494 C 2411.209 939.358, 2410.427 933.430, 2399.570 933.561 C 2393.170 933.639, 2388.288 936.606, 2381.512 944.538 C 2375.470 951.610, 2356.054 967.244, 2339.739 978.175 C 2306.129 1000.692, 2294.134 998.957, 2302.443 972.779 C 2305.865 961.996, 2306.488 961.117, 2312.612 958.408 C 2321.928 954.288, 2332.288 949.110, 2337.500 945.968 C 2340.250 944.311, 2343.175 942.661, 2344 942.303 C 2347.015 940.993, 2360.696 931.499, 2368 925.649 C 2397.588 901.948, 2412.264 876.591, 2403.726 863.922 C 2394.112 849.655, 2367.823 853.585, 2341.500 873.224 C 2332.706 879.785, 2313.577 898.280, 2306.049 907.500 C 2294.298 921.892, 2276.083 952.291, 2276.014 957.623 C 2275.999 958.836, 2272.330 962.275, 2258.433 974.104 C 2235.662 993.488, 2214 1007.267, 2209.121 1005.471 C 2204.629 1003.818, 2213.791 984.050, 2230.801 958.691 C 2243.905 939.154, 2246.476 935.653, 2269.566 905.895 C 2278.907 893.856, 2280.798 890.046, 2279.186 886.508 C 2277.311 882.393, 2273.574 880.653, 2268.022 881.311 C 2258.102 882.486, 2253.176 886.590, 2207.976 931.328 C 2163.342 975.507, 2153.503 984.756, 2139.500 995.697 C 2133.506 1000.380, 2125.362 1006, 2124.570 1006 C 2122.249 1006, 2127.569 994.446, 2137.850 977.157 C 2141.232 971.468, 2144 966.654, 2144 966.458 C 2144 966.043, 2162.083 938.149, 2165.690 933 C 2188.305 900.720, 2198 885.478, 2198 882.205 C 2198 873.651, 2188.918 869.563, 2179.500 873.876 C 2172.365 877.143, 2154.727 893.078, 2139.514 910 C 2121.175 930.400, 2064.669 988.290, 2056.500 995.048 C 2054.850 996.413, 2050.125 1000.452, 2046 1004.023 C 2032.219 1015.954, 2017.796 1024.903, 2014.431 1023.612 C 2009.744 1021.813, 2018.179 1002.943, 2034.899 977.823 C 2047.698 958.596, 2048.640 955.399, 2042.923 950.589 C 2035.814 944.607, 2024.244 949.834, 2012.131 964.500 C 2001.392 977.502, 1994.587 988.818, 1988.970 1003.012 C 1984.565 1014.145, 1984.050 1027.785, 1987.771 1034.750 C 1992.595 1043.783, 2004.092 1046.660, 2016.117 1041.844 C 2031.431 1035.711, 2054.795 1016.402, 2092.345 978.848 C 2103.810 967.381, 2113.365 958, 2113.580 958 C 2113.794 958, 2112.829 959.913, 2111.435 962.250 C 2107.143 969.445, 2098.943 986.927, 2096.834 993.376 C 2095.732 996.744, 2094.584 1003.157, 2094.282 1007.627 C 2093.627 1017.331, 2095.759 1022.372, 2102.004 1025.882 C 2110.013 1030.384, 2119.641 1027.687, 2134.303 1016.835 C 2141.602 1011.432, 2166.326 989.554, 2179.760 976.609 C 2184.853 971.702, 2189.211 967.878, 2189.444 968.111 C 2189.678 968.345, 2188.584 971.228, 2187.014 974.518 C 2176.630 996.275, 2177.050 1014.373, 2188.109 1021.691 C 2191.260 1023.776, 2193.178 1024.250, 2198.466 1024.250 C 2207.030 1024.250, 2213.732 1021.527, 2227 1012.657 C 2236.392 1006.379, 2243.541 1000.759, 2264.326 983.320 L 2270.500 978.139 2271.156 986.426 C 2272.533 1003.808, 2280.775 1012, 2296.886 1012 C 2309.018 1012, 2323.883 1005.155, 2343.109 990.716 C 2360.707 977.500, 2363.493 975.316, 2364.864 973.663 C 2366.646 971.517, 2368.310 972.553, 2367.003 974.995 C 2366.451 976.025, 2366 979.953, 2366 983.722 C 2366 1002.419, 2379.254 1009.264, 2397.634 1000.062 C 2410.035 993.852, 2429.171 976.790, 2458.250 946.012 C 2464.713 939.173, 2470 934.095, 2470 934.729 C 2470 935.363, 2469.599 936.130, 2469.108 936.433 C 2468.116 937.046, 2461.547 952.994, 2459.400 960 C 2457.263 966.978, 2457.580 980.135, 2460.009 985.261 C 2463.129 991.845, 2467.949 994.520, 2476.500 994.412 C 2489.218 994.252, 2504.911 984.469, 2532.264 959.647 C 2537.084 955.273, 2541.259 951.926, 2541.542 952.208 C 2541.825 952.491, 2541.593 953.939, 2541.028 955.426 C 2539.212 960.203, 2539.774 971.541, 2542.069 976.424 C 2548.198 989.463, 2563.327 989.123, 2581.415 975.540 C 2588.879 969.935, 2597.935 961.964, 2609.749 950.603 C 2614.837 945.710, 2618.995 942.110, 2618.988 942.603 C 2618.982 943.096, 2618.312 945.975, 2617.500 949 C 2612.403 967.991, 2622.289 982.619, 2637.703 978.893 C 2647.238 976.589, 2665.075 964.811, 2681.299 950.109 C 2685.007 946.749, 2688.241 944, 2688.488 944 C 2689.018 944, 2688.469 945.301, 2684.155 954.273 C 2680.110 962.683, 2676 975.448, 2676 979.602 C 2676 986.427, 2685.642 990.778, 2690.577 986.179 C 2693.007 983.915, 2698.585 975.211, 2707.994 959 C 2711.984 952.125, 2716.214 944.925, 2717.393 943 C 2718.573 941.075, 2720.112 938.375, 2720.814 937 C 2724.106 930.551, 2725.052 930.027, 2742.423 925.022 C 2760.833 919.718, 2766.423 918.442, 2765.805 919.685 C 2751.139 949.163, 2753.376 968.546, 2772.542 978.040 C 2777.090 980.293, 2778.618 980.492, 2791 980.443 C 2804.106 980.392, 2810.252 979.509, 2825.250 975.527 C 2828.412 974.687, 2833.502 973.343, 2836.559 972.539 C 2845.918 970.080, 2872.925 960.647, 2888.301 954.467 C 2894.413 952.010, 2899.757 950, 2900.177 950 C 2900.597 950, 2903.317 948.915, 2906.220 947.588 C 2909.124 946.262, 2916 943.374, 2921.500 941.170 C 2931.417 937.197, 2936.211 935.116, 2949.275 929.113 C 2953.001 927.401, 2956.337 926, 2956.689 926 C 2958.136 926, 2978 915.583, 2978 914.824 C 2978 913.679, 2971.282 913.792, 2967.571 915 C 2954.035 919.408, 2947.337 921.676, 2932.500 926.879 C 2923.150 930.157, 2910.325 934.697, 2904 936.967 C 2891.635 941.405, 2863.594 950.764, 2853 953.988 C 2841.603 957.457, 2832.826 959.754, 2818.537 963.006 C 2815.807 963.628, 2809.029 964.394, 2803.476 964.708 C 2786.512 965.669, 2782.247 962.920, 2783.304 951.710 C 2784.238 941.804, 2788.894 931.833, 2801.846 912 C 2809.660 900.034, 2818.857 887.371, 2828.257 875.635 C 2835.240 866.917, 2836.840 862.525, 2834.606 858.205 C 2832.826 854.764, 2827.516 852.649, 2823.061 853.608 C 2812.822 855.813, 2796.018 872.662, 2778.250 898.540 C 2776.154 901.593, 2775.777 901.738, 2761.500 905.016 C 2759.300 905.521, 2753.320 906.906, 2748.210 908.094 C 2743.101 909.282, 2738.755 910.084, 2738.553 909.877 C 2738.163 909.476, 2738.303 909.254, 2756.498 881.500 C 2774.244 854.430, 2774.339 854.185, 2769.077 848.923 C 2765.671 845.517, 2759.584 844.987, 2754.500 847.653 M 1696.124 867.672 C 1686.441 869.710, 1667.413 887.806, 1648.463 913 C 1629.402 938.341, 1583.334 980, 1574.372 980 C 1571.469 980, 1571.443 979.203, 1574.095 971.733 C 1579.345 956.945, 1601.490 920.066, 1618.970 897 C 1620.429 895.075, 1623.128 891.291, 1624.969 888.590 C 1634.890 874.036, 1621.949 864.432, 1605.991 874.506 C 1594.553 881.726, 1569.022 915.869, 1554.852 942.894 C 1552.186 947.978, 1549.177 951.357, 1540.156 959.394 C 1525.377 972.560, 1512.793 981.992, 1504.671 985.990 C 1495.150 990.678, 1494.033 988.955, 1498.518 976.496 C 1504.910 958.740, 1520.047 934.550, 1545.448 901.500 C 1552.555 892.254, 1553.064 887.618, 1547.482 882.985 C 1544.962 880.894, 1536.995 881.312, 1531.670 883.815 C 1522.048 888.338, 1495.142 918.172, 1485.772 934.708 C 1480.960 943.201, 1441.346 981.879, 1429.192 989.952 C 1419.391 996.462, 1418.312 995.540, 1422.544 984.273 C 1428.702 967.881, 1445.601 938.801, 1463.178 914.348 C 1471.395 902.916, 1473.769 898.803, 1474.469 894.779 C 1475.319 889.898, 1473.242 886.828, 1467.994 885.209 C 1456.372 881.623, 1444.433 891.977, 1420.676 926.245 C 1418.104 929.955, 1416 933.172, 1416 933.393 C 1416 933.615, 1414.122 936.879, 1411.828 940.648 C 1405.701 950.710, 1398.519 966.199, 1395.048 976.840 C 1391.514 987.670, 1390.834 1000.965, 1393.488 1007.318 C 1395.987 1013.298, 1401.234 1016.508, 1408.422 1016.455 C 1419.950 1016.369, 1432.294 1007.811, 1459.331 981.162 L 1471.163 969.500 1470.331 973.500 C 1469.874 975.700, 1469.516 981.607, 1469.535 986.626 C 1469.567 994.880, 1469.833 996.149, 1472.325 999.915 C 1478.550 1009.321, 1487.542 1010.631, 1500.634 1004.039 C 1508.848 999.904, 1525.578 987.447, 1535.769 977.878 C 1539.042 974.805, 1542.174 972.010, 1542.729 971.667 C 1543.381 971.265, 1543.715 974.307, 1543.672 980.272 C 1543.551 997.532, 1552.083 1005.459, 1566.702 1001.667 C 1576.952 999.009, 1587.483 991.364, 1611.470 969.170 C 1621.111 960.249, 1629 953.164, 1629 953.426 C 1629 953.688, 1628.325 956.494, 1627.500 959.661 C 1623.967 973.224, 1627.342 985.652, 1636.137 991.472 C 1644.787 997.196, 1659.414 995.782, 1673.988 987.811 C 1696.792 975.339, 1727.446 948.766, 1724.510 944.016 C 1723.679 942.672, 1722.867 943.142, 1708.048 953.547 C 1689.310 966.704, 1678.822 972.722, 1669.085 975.904 C 1657.690 979.627, 1654 978.294, 1654 970.451 C 1654 956.928, 1669.784 930.405, 1697.777 896.894 C 1712.174 879.658, 1714.053 875.498, 1709.717 870.457 C 1707.371 867.730, 1701.533 866.534, 1696.124 867.672 M 2377.943 877.859 C 2364.684 884.492, 2347.218 900.889, 2331.456 921.500 C 2325.676 929.057, 2318.098 940.765, 2318.637 941.304 C 2318.934 941.601, 2321.407 940.529, 2324.133 938.922 C 2326.858 937.315, 2329.320 936, 2329.603 936 C 2330.731 936, 2351.908 921.412, 2358.188 916.309 C 2374.239 903.266, 2389.709 882.895, 2387.645 877.518 C 2386.867 875.490, 2382.362 875.648, 2377.943 877.859 M 1362.889 919.313 C 1332.781 934.586, 1293.661 978.023, 1284.021 1006.884 C 1280.523 1017.355, 1282.050 1018.111, 1294.427 1012.040 C 1312.987 1002.935, 1345.107 974.381, 1364.779 949.500 C 1369.997 942.900, 1375.511 936.375, 1377.033 935 C 1380.466 931.898, 1382.852 923.330, 1381.421 919.243 C 1380.550 916.756, 1379.949 916.475, 1374.980 916.229 C 1370.422 916.004, 1368.387 916.523, 1362.889 919.313 M 1197.500 939.397 C 1170.674 949.759, 1124.147 1003.973, 1117.419 1032.710 C 1115.671 1040.176, 1117.061 1041.021, 1124.669 1037.121 C 1143.789 1027.319, 1175.599 997.260, 1201 964.992 C 1209.604 954.062, 1211 951.399, 1211 945.921 C 1211 938.564, 1205.961 936.129, 1197.500 939.397 M 919.500 943.152 C 901.125 949.241, 872.535 975.279, 854.336 1002.500 C 845.164 1016.218, 836.721 1029.842, 831.967 1038.597 C 829.607 1042.943, 825.787 1049.650, 823.479 1053.500 C 817.869 1062.858, 814.941 1068.171, 807.225 1083 C 803.648 1089.875, 797.849 1100.782, 794.338 1107.238 C 787.459 1119.887, 764.240 1166.046, 753.714 1188 C 744.200 1207.840, 738 1221.048, 738 1221.472 C 738 1221.677, 735.750 1226.640, 733 1232.500 C 730.250 1238.360, 728 1243.331, 728 1243.548 C 728 1243.764, 726.826 1246.542, 725.392 1249.720 C 719.930 1261.826, 712 1280.848, 712 1281.845 C 712 1282.275, 710.922 1284.849, 709.605 1287.564 C 707.035 1292.860, 707.621 1294.134, 711.468 1291.613 C 712.791 1290.746, 715.364 1289.187, 717.186 1288.147 C 719.009 1287.107, 724.775 1283.779, 730 1280.751 C 748.221 1270.192, 801.598 1242.917, 820 1234.762 C 831.072 1229.856, 833.999 1228.550, 838.780 1226.388 C 841.683 1225.075, 844.258 1224, 844.500 1224 C 844.742 1224, 847.324 1222.910, 850.238 1221.577 C 853.151 1220.245, 857.994 1218.185, 861 1217 C 864.006 1215.815, 868.723 1213.834, 871.483 1212.596 C 874.242 1211.359, 879.200 1209.325, 882.500 1208.076 C 885.800 1206.827, 889.400 1205.441, 890.500 1204.996 C 894.815 1203.249, 919.805 1193.695, 925 1191.805 C 928.025 1190.705, 931.400 1189.422, 932.500 1188.953 C 933.600 1188.484, 936.525 1187.427, 939 1186.603 C 941.475 1185.779, 948.675 1183.253, 955 1180.990 C 961.325 1178.728, 970.550 1175.596, 975.500 1174.032 C 980.450 1172.468, 986.525 1170.532, 989 1169.730 C 1002.717 1165.284, 1027.182 1157.777, 1037.500 1154.847 C 1039.700 1154.223, 1043.401 1153.111, 1045.725 1152.376 C 1053.959 1149.773, 1100.043 1137.827, 1109 1135.973 C 1111.475 1135.461, 1117.775 1134.115, 1123 1132.983 C 1128.225 1131.851, 1136.100 1130.257, 1140.500 1129.440 C 1144.900 1128.623, 1150.525 1127.552, 1153 1127.059 C 1178.898 1121.904, 1205.883 1118.279, 1243.611 1114.888 L 1256.722 1113.710 1263.093 1105.105 C 1266.597 1100.372, 1272.809 1091.775, 1276.897 1086 C 1280.985 1080.225, 1285.997 1073.250, 1288.033 1070.500 C 1296.094 1059.616, 1336.229 998.896, 1335.707 998.374 C 1335.513 998.180, 1334.483 998.804, 1333.417 999.761 C 1304.999 1025.277, 1284.974 1037.021, 1272.007 1035.775 C 1261.718 1034.786, 1254.091 1025.917, 1253.691 1014.478 C 1253.586 1011.467, 1253.208 1009.115, 1252.852 1009.252 C 1252.495 1009.388, 1249.159 1012.200, 1245.437 1015.500 C 1218.508 1039.382, 1201.840 1050, 1191.278 1050 C 1185.374 1050, 1179.357 1046.465, 1176.257 1041.175 C 1173.814 1037.007, 1173.551 1035.630, 1173.638 1027.454 C 1173.691 1022.433, 1174.277 1017.350, 1174.948 1016.097 C 1176.810 1012.618, 1175.344 1012.352, 1172.168 1015.592 C 1154.008 1034.117, 1132.633 1051.376, 1121.316 1056.651 C 1101.600 1065.841, 1085.701 1055.636, 1087.211 1034.761 C 1087.440 1031.592, 1087.487 1029, 1087.314 1029 C 1087.142 1029, 1081.488 1034.365, 1074.750 1040.921 C 1048.423 1066.541, 1035.755 1075, 1023.714 1075 C 1014.240 1075, 1006.751 1068.537, 1003.578 1057.621 C 1001.749 1051.330, 1001.459 1032.335, 1002.989 1019.031 C 1003.627 1013.477, 1003.623 1010.223, 1002.976 1009.576 C 1001.683 1008.283, 997.553 1013.188, 991.322 1023.414 C 988.670 1027.767, 985.150 1033.489, 983.500 1036.129 C 979.200 1043.009, 964.142 1068.038, 958.393 1077.861 C 952.304 1088.266, 948.292 1092.002, 943.215 1091.995 C 934.936 1091.984, 931.246 1084.742, 934.446 1074.782 C 938.023 1063.646, 954.807 1029.766, 967.157 1008.750 C 968.692 1006.138, 969.718 1004, 969.436 1004 C 969.154 1004, 965.003 1006.607, 960.212 1009.794 C 952.315 1015.046, 948.566 1017.316, 931.137 1027.398 C 927.369 1029.577, 924.566 1032.284, 921.713 1036.500 C 917.290 1043.036, 905.845 1058.423, 897.168 1069.500 C 889.138 1079.752, 866.797 1101.714, 857 1108.986 C 838.064 1123.044, 822.484 1126.452, 813.331 1118.540 C 809.529 1115.253, 809.500 1115.174, 809.532 1107.864 C 809.570 1098.984, 811.792 1094.107, 821.032 1082.620 C 828.916 1072.821, 839.262 1063.955, 855.744 1052.875 C 868.873 1044.050, 871.360 1042.517, 882 1036.696 C 885.025 1035.041, 888.334 1033.120, 889.354 1032.427 C 893.934 1029.312, 919.202 981.197, 924.936 964.670 C 928.679 953.884, 929.159 944.691, 926.066 943.035 C 923.810 941.828, 923.477 941.834, 919.500 943.152 M 615 948.552 C 614.175 948.728, 608.775 949.596, 603 950.481 C 597.225 951.365, 590.250 952.502, 587.500 953.008 C 548.457 960.182, 536.557 962.572, 512 968.171 C 509.525 968.735, 505.925 969.549, 504 969.980 C 461.144 979.574, 389.238 1003.013, 353 1019.201 C 350.525 1020.306, 346.925 1021.897, 345 1022.734 C 329.871 1029.318, 299.532 1044.954, 281 1055.718 C 221.193 1090.457, 173.550 1137.134, 158.229 1176 C 149.223 1198.846, 149.240 1220.261, 158.279 1237.813 C 171.065 1262.643, 210.377 1278.176, 247.308 1272.990 C 270.878 1269.681, 285.598 1265.241, 308.500 1254.534 C 332.040 1243.528, 351.670 1230.762, 386.895 1203.552 C 402.925 1191.170, 426.653 1169.418, 454.547 1141.535 C 484.494 1111.601, 488.693 1107.211, 508.049 1085.594 C 520.379 1071.824, 528.059 1062.966, 544.994 1042.983 C 548.015 1039.417, 550.732 1036.275, 551.030 1036 C 551.329 1035.725, 555.380 1030.775, 560.034 1025 C 564.687 1019.225, 568.753 1014.275, 569.069 1014 C 570.387 1012.854, 619.021 951.464, 620.300 949.333 C 621.086 948.023, 618.953 947.709, 615 948.552 M 1809 976.986 C 1808.175 977.463, 1804.350 979.049, 1800.500 980.511 C 1793.350 983.225, 1791.076 984.170, 1782.761 987.884 C 1780.154 989.048, 1777.805 990, 1777.541 990 C 1777.276 990, 1774.683 991.075, 1771.780 992.388 C 1765.830 995.079, 1760.476 997.446, 1751 1001.575 C 1737.789 1007.330, 1697.192 1028.312, 1679 1038.787 C 1673.775 1041.795, 1667.927 1045.153, 1666.005 1046.249 C 1664.083 1047.345, 1660.708 1049.472, 1658.505 1050.976 C 1656.302 1052.481, 1651.361 1055.611, 1647.523 1057.931 C 1621.753 1073.518, 1584.916 1102.069, 1566.277 1120.902 C 1541.830 1145.604, 1531.110 1164.255, 1532.186 1180.211 C 1533.044 1192.929, 1539.557 1200.339, 1553.899 1204.915 C 1558.716 1206.452, 1579.282 1206.261, 1587 1204.608 C 1633.861 1194.569, 1686.331 1149.913, 1748.234 1067.384 C 1762.990 1047.713, 1776.517 1029.083, 1785.546 1016 C 1790.929 1008.200, 1796.044 1000.888, 1807.678 984.361 C 1812.936 976.891, 1813.373 974.455, 1809 976.986 M 865.500 1061.284 C 841.185 1077.231, 825.011 1094.021, 826.166 1102.114 C 827.329 1110.260, 846.317 1094.526, 864.842 1070.068 C 877.575 1053.256, 877.566 1053.370, 865.500 1061.284" stroke="none" fill="currentColor" fill-rule="evenodd"/>
</svg>