<svg role="img" aria-label="Аркадий Амелин" xmlns="http://www.w3.org/2000/svg" width="1480" height="610" viewBox="80 400 2960 1220" version="1.1">
	<path d="M 979.066 423.763 C 975.586 425.516, 968.934 431.018, 960.566 439.065 C 953.380 445.976, 942.775 455.387, 937 459.979 C 931.225 464.570, 926.275 468.591, 926 468.914 C 925.725 469.236, 921.675 472.863, 917 476.973 C 912.325 481.083, 905.575 487.186, 902 490.534 C 898.425 493.882, 891.633 500.194, 886.907 504.561 C 876.971 513.740, 810.124 580.632, 799 592.526 C 781.731 610.992, 756.829 638.588, 745.784 651.500 C 744.373 653.150, 739.681 658.550, 735.357 663.500 C 726.761 673.341, 710.661 692.389, 702 702.966 C 645.221 772.302, 617.678 808.021, 562 884.520 C 555.675 893.211, 549.150 902.127, 547.500 904.335 C 545.218 907.390, 542.826 909.027, 537.500 911.179 C 533.650 912.735, 529.600 914.418, 528.500 914.919 C 527.400 915.419, 522.450 917.516, 517.500 919.579 C 506.846 924.018, 486.439 933.076, 471.250 940.107 C 467.813 941.698, 461.962 944.405, 458.250 946.121 C 438.675 955.173, 385.020 981.666, 373.500 987.968 C 370.750 989.472, 364 993.086, 358.500 995.999 C 349.056 1001.001, 346.396 1002.447, 335.500 1008.500 C 297.401 1029.666, 264.095 1049.911, 238.105 1067.700 C 223.169 1077.923, 208.628 1088.201, 208 1088.977 C 207.725 1089.318, 205.925 1090.678, 204 1092 C 181.921 1107.163, 140.240 1146.038, 127.759 1163.108 C 113.331 1182.839, 106.308 1201.549, 108.982 1213.125 C 114.101 1235.282, 138.842 1244.873, 158.651 1232.379 C 162.709 1229.820, 173.365 1221.688, 174.218 1220.500 C 175.423 1218.822, 173.386 1218.812, 169.402 1220.477 C 164.354 1222.586, 151.539 1223.681, 150.554 1222.087 C 148.615 1218.950, 166.124 1199.070, 187 1180.705 C 227.597 1144.992, 283.967 1104.650, 350.500 1063.694 C 372.326 1050.259, 417.083 1024.194, 431.500 1016.524 C 436.450 1013.890, 440.950 1011.406, 441.500 1011.004 C 442.050 1010.602, 451.050 1005.877, 461.500 1000.503 C 471.950 995.130, 481.963 989.857, 483.750 988.785 C 487.558 986.503, 487.945 987.689, 484.693 991.673 C 482.619 994.215, 442.648 1050.090, 430.449 1067.500 C 408.221 1099.226, 397.595 1114.837, 368.159 1159.019 C 317.271 1235.397, 281.876 1291.221, 251.507 1343 C 235.962 1369.505, 235.134 1370.937, 227.514 1384.500 C 207.109 1420.819, 201.456 1431.434, 185.175 1464 C 169.854 1494.644, 160.900 1515.063, 155.572 1531.500 C 153.611 1537.550, 151.568 1543.850, 151.032 1545.500 C 149.676 1549.668, 148.603 1562.282, 149.350 1565.259 C 150.167 1568.515, 159.953 1577.993, 162.500 1577.996 C 166.118 1577.999, 176.390 1566.695, 175.803 1563.356 C 175.610 1562.258, 176.321 1561.427, 177.762 1561.066 C 179.006 1560.755, 180.993 1558.925, 182.177 1557 C 187.398 1548.511, 196 1532.533, 196 1531.325 C 196 1529.676, 194.779 1529.621, 193.200 1531.200 C 190.416 1533.984, 192.934 1528.160, 198.798 1518.250 C 202.992 1511.163, 204.433 1509.800, 205.225 1512.174 C 205.762 1513.786, 208.620 1509.677, 215.432 1497.500 C 216.048 1496.400, 217.777 1493.596, 219.276 1491.270 C 220.774 1488.943, 222 1486.852, 222 1486.622 C 222 1486.173, 227.749 1476.610, 232.861 1468.554 C 236.339 1463.074, 237.127 1459.820, 234.434 1462.055 C 232.511 1463.651, 225.034 1475.185, 222.728 1480.112 C 220.944 1483.923, 218 1487.070, 218 1485.166 C 218 1484.028, 220.381 1479.876, 228.993 1466 C 231.894 1461.325, 238.320 1450.750, 243.273 1442.500 C 257.037 1419.574, 264 1409.643, 264 1412.941 C 264 1413.523, 264.450 1414, 265 1414 C 265.550 1414, 266 1412.383, 266 1410.406 C 266 1407.654, 266.468 1406.690, 268 1406.290 C 269.100 1406.002, 270 1405.091, 270 1404.265 C 270 1403.440, 271.350 1401.226, 273 1399.347 C 274.650 1397.468, 276 1395.046, 276 1393.965 C 276 1392.884, 276.436 1392, 276.970 1392 C 277.890 1392, 288 1377.771, 288 1376.475 C 288 1376.137, 289.463 1373.808, 291.250 1371.300 C 293.038 1368.792, 295.400 1365.285, 296.500 1363.507 C 301.474 1355.467, 315.349 1334.231, 337.500 1300.754 C 350.700 1280.805, 363.828 1260.886, 366.674 1256.491 C 369.519 1252.096, 379.527 1237.250, 388.914 1223.500 C 398.300 1209.750, 411.806 1189.950, 418.926 1179.500 C 426.046 1169.050, 436.258 1154.200, 441.619 1146.500 C 446.980 1138.800, 454.547 1127.922, 458.433 1122.326 C 462.320 1116.730, 471.535 1103.680, 478.910 1093.326 C 486.286 1082.972, 496.762 1068.200, 502.190 1060.500 C 515.601 1041.477, 524.169 1029.518, 532.566 1018.105 C 536.453 1012.822, 543.428 1003.170, 548.066 996.656 C 552.705 990.142, 558.186 982.492, 560.246 979.656 C 562.307 976.820, 567.590 969.325, 571.987 963 C 585.864 943.037, 586.905 941.881, 594.522 937.975 C 598.360 936.007, 610.500 929.740, 621.500 924.050 C 674.505 896.628, 744.569 861.902, 745.338 862.671 C 745.585 862.918, 745.192 864.331, 744.466 865.810 C 743.739 867.290, 741.352 873, 739.162 878.500 C 736.971 884, 733.753 891.650, 732.011 895.500 C 730.268 899.350, 725.911 909.925, 722.328 919 C 718.744 928.075, 712.904 942.846, 709.350 951.825 C 705.795 960.804, 701.147 972.954, 699.020 978.825 C 696.894 984.696, 693.742 993.325, 692.017 998 C 684.345 1018.784, 670.458 1059.950, 665.029 1078 C 663.292 1083.775, 661.502 1089.625, 661.051 1091 C 660.601 1092.375, 659.678 1095.525, 659 1098 C 658.322 1100.475, 657.379 1103.625, 656.903 1105 C 656.427 1106.375, 655.318 1110.200, 654.438 1113.500 C 650.179 1129.475, 646.712 1142.928, 645.805 1147 C 645.254 1149.475, 644.373 1153.300, 643.847 1155.500 C 640.924 1167.725, 637.001 1188.519, 635.263 1201 C 634.337 1207.652, 633.627 1219.877, 633.581 1230 C 633.501 1247.267, 633.536 1247.561, 636.192 1252.080 C 637.673 1254.599, 639.586 1257.241, 640.442 1257.952 C 641.299 1258.663, 642 1260.315, 642 1261.622 C 642 1265.759, 643.800 1264.200, 645.407 1258.670 C 646.467 1255.027, 647.675 1253.007, 649.228 1252.286 C 650.478 1251.706, 652.260 1249.716, 653.189 1247.865 C 655.748 1242.769, 658.680 1235.799, 659.444 1233 C 659.819 1231.625, 660.519 1229.600, 661.001 1228.500 C 661.482 1227.400, 664.179 1219.975, 666.995 1212 C 672.099 1197.543, 673.789 1193.108, 677.104 1185.465 C 678.066 1183.246, 679.174 1180.096, 679.565 1178.465 C 679.956 1176.834, 680.589 1175.050, 680.971 1174.500 C 682.002 1173.016, 695 1139.577, 695 1138.408 C 695 1138.075, 695.635 1136.384, 696.412 1134.651 C 697.189 1132.918, 698.954 1128.350, 700.336 1124.500 C 701.717 1120.650, 704.426 1113.675, 706.357 1109 C 708.287 1104.325, 712.170 1094.425, 714.985 1087 C 717.801 1079.575, 720.794 1071.700, 721.637 1069.500 C 722.479 1067.300, 724.256 1063.409, 725.585 1060.853 C 726.913 1058.297, 727.988 1054.922, 727.973 1053.353 L 727.946 1050.500 725 1054 C 721.450 1058.217, 720.875 1056.021, 724.099 1050.557 C 726.566 1046.375, 726.803 1046.293, 727.893 1049.241 C 728.654 1051.297, 728.929 1051.070, 731.232 1046.491 C 732.612 1043.746, 734.075 1040.375, 734.483 1039 C 734.891 1037.625, 736.524 1033.656, 738.113 1030.180 C 741.362 1023.069, 741.565 1022, 739.671 1022 C 738.940 1022, 737.319 1024.362, 736.068 1027.250 C 730.922 1039.131, 728.875 1043.208, 728.327 1042.661 C 727.578 1041.911, 730.439 1034.647, 736.768 1021.232 C 738.814 1016.893, 739.451 1016.228, 740.376 1017.463 C 742.114 1019.783, 744.680 1016.762, 746.505 1010.250 C 747.566 1006.460, 744.566 1007.598, 742.549 1011.750 C 741.547 1013.813, 740.536 1014.968, 740.303 1014.317 C 740.069 1013.666, 741.650 1009.391, 743.817 1004.817 C 745.983 1000.243, 748.020 995.715, 748.344 994.756 C 748.704 993.690, 749.778 993.107, 751.106 993.256 C 752.302 993.390, 753.503 992.866, 753.776 992.091 C 754.120 991.117, 753.768 990.875, 752.636 991.309 C 750.358 992.184, 750.537 989.882, 753.191 984.195 C 754.681 981.004, 755.505 980.061, 755.765 981.250 C 756.554 984.866, 758.169 982.962, 757.529 979.171 C 757.049 976.330, 757.284 975.009, 758.441 974.049 C 759.298 973.337, 760 972.129, 760 971.364 C 760 970.599, 760.424 969.191, 760.943 968.236 C 761.462 967.281, 764.645 960.650, 768.017 953.500 C 771.389 946.350, 775.690 937.330, 777.574 933.456 C 779.458 929.582, 781 926.046, 781 925.599 C 781 925.152, 782.302 922.022, 783.894 918.643 C 787.618 910.736, 790.866 903.564, 797.994 887.500 C 803.587 874.895, 805.531 870.674, 815.501 849.500 C 818.091 844, 821.523 836.654, 823.128 833.175 C 826.637 825.568, 825.743 826.054, 868.750 808.410 C 873.563 806.436, 878.850 804.235, 880.500 803.520 C 882.150 802.804, 889.575 799.878, 897 797.016 C 904.425 794.155, 911.400 791.448, 912.500 791 C 946.662 777.096, 980.720 770.429, 991.896 775.457 L 996.246 777.415 998.123 775.097 C 1004.170 767.629, 996.278 755.840, 982.212 751.331 C 975.161 749.071, 956.423 748.838, 947.500 750.900 C 927.704 755.474, 914.568 759.522, 892 768.004 C 887.325 769.761, 881.025 772.095, 878 773.190 C 874.975 774.286, 870.124 776.266, 867.220 777.591 C 864.317 778.916, 861.582 780, 861.143 780 C 860.704 780, 857.576 781.125, 854.192 782.500 C 850.808 783.875, 847.588 785, 847.036 785 C 846.484 785, 848.443 780.163, 851.390 774.250 C 854.336 768.337, 863.103 750.675, 870.872 735 C 886.972 702.513, 903.377 670.790, 912.500 654.500 C 913.732 652.300, 916.439 647.350, 918.516 643.500 C 926.028 629.571, 934.432 614.232, 941.800 601 C 945.934 593.575, 951.570 583.225, 954.325 578 C 960.658 565.986, 977.553 536.289, 984.761 524.500 C 987.788 519.550, 991.386 513.475, 992.756 511 C 994.126 508.525, 996.030 505.150, 996.987 503.500 C 1000.817 496.892, 1008.212 482.656, 1015.944 467 C 1020.426 457.925, 1024.522 449.719, 1025.047 448.764 C 1025.571 447.809, 1026 445.446, 1026 443.514 C 1026 437.228, 1014.616 427.871, 1001.690 423.532 C 991.791 420.209, 986.007 420.268, 979.066 423.763 M 2225.500 463.684 C 2220.883 464.673, 2217.293 466.504, 2214 469.547 C 2212.075 471.327, 2209.521 473.076, 2208.323 473.435 C 2204.522 474.576, 2183.262 499.342, 2162.545 526.764 C 2159.041 531.402, 2158.172 532, 2154.934 532 C 2147.776 532, 2141.337 537.617, 2122.266 560.500 C 2112.639 572.050, 2103.804 582.625, 2102.632 584.001 C 2101.459 585.376, 2093.544 594.826, 2085.043 605.001 C 2076.542 615.175, 2069.330 623.725, 2069.018 624 C 2068.462 624.490, 2040.024 658.672, 2027.005 674.500 C 2023.386 678.900, 2017.257 686.325, 2013.386 691 C 2009.515 695.675, 2001.674 705.350, 1995.961 712.500 C 1990.248 719.650, 1985.107 726.019, 1984.537 726.653 C 1983.967 727.287, 1980.125 732.203, 1976 737.577 C 1971.875 742.951, 1967.127 748.957, 1965.449 750.924 C 1953.560 764.860, 1879.485 862.562, 1860.500 889.349 C 1858.850 891.677, 1856.789 894.567, 1855.921 895.770 C 1854.450 897.808, 1841.021 902.843, 1802 915.990 C 1797.325 917.565, 1789.675 920.272, 1785 922.005 C 1780.325 923.739, 1774.025 925.973, 1771 926.970 C 1767.975 927.966, 1762.350 930.001, 1758.500 931.491 C 1754.650 932.981, 1744.525 936.896, 1736 940.192 C 1727.475 943.488, 1719.600 946.552, 1718.500 947.002 C 1717.400 947.451, 1711.325 949.864, 1705 952.364 C 1692.891 957.149, 1673.571 965.122, 1668.500 967.426 C 1666.850 968.176, 1663.250 969.787, 1660.500 971.006 C 1633.672 982.905, 1609.288 994.732, 1592.250 1004.110 C 1589.362 1005.700, 1584.412 1008.413, 1581.250 1010.140 C 1543.283 1030.872, 1503.548 1061.986, 1488.837 1082.500 C 1475.057 1101.718, 1472.992 1114.839, 1481.894 1126.618 C 1489.271 1136.379, 1503.914 1140.148, 1513.422 1134.734 C 1518.856 1131.639, 1519.139 1130, 1514.238 1130 C 1509.134 1130, 1506.172 1127.113, 1507.741 1123.669 C 1509.676 1119.423, 1520.863 1107.327, 1530.745 1098.798 C 1555.717 1077.243, 1583.836 1058.329, 1632 1030.693 C 1645.295 1023.064, 1697.801 996.375, 1714.500 988.759 C 1718.900 986.752, 1726.550 983.245, 1731.500 980.966 C 1750.928 972.022, 1754.567 970.441, 1777 961.201 C 1807.565 948.612, 1819.325 943.991, 1819.741 944.408 C 1819.953 944.620, 1813.944 953.502, 1806.387 964.147 C 1779.979 1001.344, 1775.595 1007.687, 1758.106 1034 C 1715.574 1097.993, 1686.478 1152.478, 1682.111 1176.308 C 1680.738 1183.797, 1680.580 1184, 1676.108 1184 C 1674.032 1184, 1669.896 1184.416, 1666.917 1184.924 C 1663.938 1185.433, 1657.900 1186.344, 1653.500 1186.949 C 1645.052 1188.111, 1635.793 1189.558, 1627.500 1191.014 C 1624.750 1191.496, 1619.125 1192.378, 1615 1192.972 C 1610.875 1193.567, 1605.025 1194.474, 1602 1194.988 C 1598.975 1195.502, 1593.350 1196.404, 1589.500 1196.993 C 1585.650 1197.582, 1580.250 1198.468, 1577.500 1198.964 C 1574.750 1199.459, 1569.350 1200.358, 1565.500 1200.962 C 1561.650 1201.566, 1556.250 1202.476, 1553.500 1202.985 C 1550.750 1203.493, 1545.575 1204.413, 1542 1205.030 C 1538.425 1205.647, 1533.475 1206.533, 1531 1207 C 1528.525 1207.467, 1523.575 1208.353, 1520 1208.970 C 1513.283 1210.129, 1510.749 1210.602, 1493 1214.007 C 1487.225 1215.116, 1479.800 1216.497, 1476.500 1217.078 C 1473.200 1217.659, 1468.700 1218.524, 1466.500 1219 C 1464.300 1219.476, 1459.800 1220.348, 1456.500 1220.937 C 1453.200 1221.526, 1444.650 1223.186, 1437.500 1224.625 C 1430.350 1226.065, 1423.375 1227.453, 1422 1227.710 C 1420.625 1227.966, 1416.125 1228.869, 1412 1229.717 C 1404.601 1231.237, 1401.820 1231.788, 1391 1233.876 C 1387.975 1234.460, 1381.225 1235.873, 1376 1237.017 C 1370.775 1238.160, 1365.150 1239.323, 1363.500 1239.601 C 1361.850 1239.878, 1358.925 1240.491, 1357 1240.962 C 1355.075 1241.433, 1351.025 1242.331, 1348 1242.958 C 1342.743 1244.047, 1339.900 1244.671, 1329.250 1247.070 C 1326.638 1247.658, 1322.588 1248.558, 1320.250 1249.070 C 1317.912 1249.581, 1314.088 1250.428, 1311.750 1250.951 C 1309.412 1251.474, 1305.025 1252.415, 1302 1253.042 C 1298.975 1253.669, 1294.925 1254.570, 1293 1255.044 C 1291.075 1255.517, 1285.563 1256.826, 1280.750 1257.953 C 1275.938 1259.079, 1268.175 1260.900, 1263.500 1262 C 1258.825 1263.100, 1251.287 1264.874, 1246.750 1265.941 C 1230.259 1269.822, 1212.420 1274.103, 1209 1275.001 C 1204.913 1276.074, 1194.133 1278.783, 1188.750 1280.090 C 1186.688 1280.590, 1183.313 1281.428, 1181.250 1281.951 C 1179.188 1282.474, 1175.475 1283.362, 1173 1283.924 C 1168.701 1284.900, 1161.662 1286.707, 1145.750 1290.919 C 1141.763 1291.974, 1133.325 1294.204, 1127 1295.875 C 1120.675 1297.545, 1112.125 1299.846, 1108 1300.989 C 1099.924 1303.226, 1090.913 1305.714, 1079 1308.998 C 1074.875 1310.135, 1068.350 1311.972, 1064.500 1313.082 C 1060.650 1314.191, 1054.125 1316.007, 1050 1317.118 C 1039.843 1319.854, 1037.624 1320.489, 1029.500 1322.989 C 1016.427 1327.012, 1002.518 1331.116, 997 1332.580 C 993.975 1333.382, 990.375 1334.446, 989 1334.945 C 987.625 1335.444, 980.650 1337.649, 973.500 1339.846 C 931.128 1352.865, 934.500 1351.783, 878.500 1370.326 C 860.900 1376.154, 843.125 1382.109, 839 1383.561 C 823.800 1388.908, 803.144 1396.341, 790.240 1401.104 C 777.693 1405.737, 771.328 1407.366, 775 1405.005 C 775.825 1404.475, 783.475 1401.290, 792 1397.927 C 800.525 1394.564, 810.031 1390.730, 813.125 1389.406 C 816.219 1388.083, 819.076 1387, 819.474 1387 C 819.872 1387, 821.616 1386.346, 823.349 1385.547 C 825.082 1384.747, 829.547 1382.964, 833.271 1381.583 C 836.996 1380.203, 841.496 1378.432, 843.271 1377.648 C 845.047 1376.865, 850.100 1374.868, 854.500 1373.211 C 858.900 1371.554, 867.450 1368.309, 873.500 1366 C 879.550 1363.691, 887.987 1360.496, 892.250 1358.901 C 902.078 1355.222, 913.832 1350.815, 923.750 1347.088 C 930.164 1344.678, 945.601 1339.057, 957 1334.980 C 958.375 1334.488, 966.250 1331.800, 974.500 1329.005 C 982.750 1326.211, 990.400 1323.533, 991.500 1323.053 C 992.600 1322.574, 998 1320.741, 1003.500 1318.980 C 1009 1317.220, 1019.800 1313.630, 1027.500 1311.003 C 1035.200 1308.376, 1052.975 1302.521, 1067 1297.991 C 1081.025 1293.462, 1097.675 1288.056, 1104 1285.978 C 1110.325 1283.900, 1118.875 1281.208, 1123 1279.996 C 1127.125 1278.784, 1131.625 1277.418, 1133 1276.961 C 1134.375 1276.503, 1140.225 1274.703, 1146 1272.960 C 1151.775 1271.217, 1159.200 1268.970, 1162.500 1267.967 C 1165.800 1266.964, 1171.875 1265.163, 1176 1263.965 C 1180.125 1262.767, 1186.425 1260.931, 1190 1259.885 C 1193.575 1258.839, 1198.075 1257.541, 1200 1257 C 1201.925 1256.459, 1206.537 1255.113, 1210.250 1254.008 C 1213.962 1252.904, 1219.812 1251.163, 1223.250 1250.140 C 1226.688 1249.116, 1233.325 1247.271, 1238 1246.039 C 1242.675 1244.807, 1247.625 1243.446, 1249 1243.015 C 1250.375 1242.584, 1253.300 1241.736, 1255.500 1241.129 C 1257.700 1240.523, 1264.225 1238.692, 1270 1237.061 C 1285.105 1232.796, 1292.018 1230.918, 1296 1230 C 1297.925 1229.556, 1302.200 1228.444, 1305.500 1227.529 C 1308.800 1226.614, 1316.450 1224.576, 1322.500 1223 C 1328.550 1221.424, 1336.200 1219.384, 1339.500 1218.467 C 1342.800 1217.551, 1346.625 1216.587, 1348 1216.325 C 1349.375 1216.063, 1351.400 1215.467, 1352.500 1215 C 1353.600 1214.533, 1355.850 1213.872, 1357.500 1213.531 C 1359.150 1213.190, 1362.075 1212.510, 1364 1212.020 C 1373.537 1209.593, 1384.919 1206.780, 1388.500 1205.964 C 1390.700 1205.464, 1396.100 1204.107, 1400.500 1202.950 C 1404.900 1201.793, 1410.525 1200.425, 1413 1199.911 C 1415.475 1199.397, 1424.025 1197.390, 1432 1195.450 C 1439.975 1193.510, 1448.300 1191.515, 1450.500 1191.016 C 1452.700 1190.517, 1458.325 1189.209, 1463 1188.109 C 1467.675 1187.009, 1474.425 1185.439, 1478 1184.620 C 1481.575 1183.801, 1489.450 1181.952, 1495.500 1180.510 C 1501.550 1179.069, 1508.750 1177.420, 1511.500 1176.847 C 1518.737 1175.339, 1523.420 1174.320, 1533 1172.171 C 1537.675 1171.122, 1544.200 1169.706, 1547.500 1169.025 C 1550.800 1168.343, 1554.625 1167.430, 1556 1166.995 C 1557.375 1166.560, 1561.875 1165.639, 1566 1164.948 C 1570.125 1164.257, 1573.928 1163.312, 1574.450 1162.846 C 1574.973 1162.381, 1577.200 1162, 1579.400 1162 C 1582.367 1162, 1583.109 1161.709, 1582.273 1160.873 C 1581.441 1160.041, 1579.425 1160.035, 1574.569 1160.850 C 1570.951 1161.458, 1564.956 1162.394, 1561.246 1162.931 C 1557.536 1163.468, 1550.450 1164.560, 1545.500 1165.357 C 1540.550 1166.155, 1536.288 1166.601, 1536.029 1166.349 C 1534.981 1165.330, 1538.576 1164.239, 1546.815 1163.078 C 1551.592 1162.404, 1557.300 1161.470, 1559.500 1161.002 C 1561.700 1160.534, 1566.875 1159.649, 1571 1159.037 C 1575.125 1158.424, 1581.200 1157.497, 1584.500 1156.976 C 1587.800 1156.456, 1596.800 1155.105, 1604.500 1153.975 C 1635.253 1149.461, 1640.973 1148.087, 1629.253 1148.030 C 1619.879 1147.985, 1538.564 1158.251, 1526.236 1161.036 C 1523.890 1161.566, 1520.662 1162, 1519.062 1162 C 1517.462 1162, 1513.981 1162.423, 1511.326 1162.939 C 1505.228 1164.126, 1495.767 1165.636, 1485.500 1167.061 C 1481.100 1167.672, 1475.925 1168.558, 1474 1169.031 C 1472.075 1169.504, 1466 1170.610, 1460.500 1171.489 C 1451.269 1172.965, 1434.571 1175.819, 1422.500 1177.984 C 1419.750 1178.478, 1415.925 1179.160, 1414 1179.500 C 1412.075 1179.841, 1408.700 1180.512, 1406.500 1180.993 C 1404.300 1181.473, 1399.575 1182.367, 1396 1182.980 C 1392.425 1183.592, 1385 1184.979, 1379.500 1186.062 C 1359.161 1190.069, 1323.376 1197.262, 1319.500 1198.123 C 1317.300 1198.612, 1313.475 1199.403, 1311 1199.881 C 1306.917 1200.669, 1300.872 1201.885, 1285 1205.112 C 1281.975 1205.727, 1278.150 1206.576, 1276.500 1207 C 1274.850 1207.424, 1270.800 1208.299, 1267.500 1208.945 C 1264.200 1209.592, 1260.118 1210.543, 1258.429 1211.060 C 1256.740 1211.577, 1254.522 1212, 1253.500 1212 C 1252.478 1212, 1250.260 1212.433, 1248.571 1212.962 C 1245.747 1213.846, 1233.742 1216.585, 1221.500 1219.139 C 1218.750 1219.713, 1214.925 1220.581, 1213 1221.068 C 1211.075 1221.556, 1203.425 1223.342, 1196 1225.039 C 1188.575 1226.735, 1180.700 1228.582, 1178.500 1229.144 C 1172.425 1230.695, 1168.005 1231.760, 1162.500 1233 C 1159.750 1233.619, 1155.925 1234.530, 1154 1235.023 C 1145.492 1237.203, 1137.158 1239.252, 1133 1240.186 C 1130.525 1240.742, 1126.925 1241.582, 1125 1242.053 C 1123.075 1242.523, 1119.700 1243.339, 1117.500 1243.865 C 1107.537 1246.246, 1098.818 1248.502, 1089.500 1251.110 C 1087.850 1251.572, 1083.575 1252.666, 1080 1253.543 C 1073.167 1255.218, 1055.505 1259.795, 1043.250 1263.065 C 1039.262 1264.129, 1032.737 1265.863, 1028.750 1266.918 C 1024.763 1267.972, 1018.350 1269.711, 1014.500 1270.781 C 1010.650 1271.851, 1003 1273.935, 997.500 1275.411 C 992 1276.887, 986.150 1278.524, 984.500 1279.049 C 981.309 1280.065, 964.154 1284.916, 955 1287.391 C 951.975 1288.209, 944.775 1290.293, 939 1292.022 C 933.225 1293.750, 927.038 1295.578, 925.250 1296.082 C 923.462 1296.587, 920.538 1297.413, 918.750 1297.918 C 910.210 1300.329, 887.504 1307.134, 879 1309.830 C 873.775 1311.486, 867.025 1313.605, 864 1314.539 C 834.910 1323.516, 753.234 1350.290, 734.500 1356.989 C 730.100 1358.562, 721.100 1361.719, 714.500 1364.004 C 698.010 1369.712, 676.568 1377.434, 664 1382.191 C 638.498 1391.843, 632.394 1394.209, 630.764 1395.076 C 629.809 1395.584, 628.584 1396, 628.043 1396 C 627.502 1396, 624.676 1397.090, 621.762 1398.423 C 618.849 1399.755, 614.034 1401.804, 611.063 1402.975 C 608.092 1404.146, 603.789 1405.957, 601.500 1407 C 599.211 1408.043, 595.125 1409.775, 592.419 1410.850 C 589.714 1411.925, 584.125 1414.368, 580 1416.280 C 575.875 1418.192, 567.325 1422.111, 561 1424.991 C 541.756 1433.751, 513.840 1448.030, 493 1459.774 C 490.525 1461.169, 487.600 1462.803, 486.500 1463.405 C 478.156 1467.974, 457.012 1481.146, 451.381 1485.284 C 436.496 1496.222, 433.850 1498.426, 427.293 1505.352 C 418.923 1514.194, 413 1525.883, 413 1533.560 C 413 1536.485, 416.586 1547.114, 417.850 1547.934 C 418.329 1548.245, 419.455 1549.933, 420.352 1551.684 C 424.571 1559.920, 442.597 1575.050, 453.586 1579.578 C 455.739 1580.465, 458.850 1581.764, 460.500 1582.466 C 468.675 1585.941, 484.231 1588.300, 493.612 1587.488 C 510.154 1586.055, 531.187 1580.661, 534.499 1577.002 C 536.702 1574.567, 535.943 1573.425, 533.124 1574.934 C 527.365 1578.016, 498.838 1581.688, 500.410 1579.146 C 500.700 1578.676, 503.764 1578.001, 507.219 1577.647 C 513.544 1576.998, 516.218 1576.331, 534.500 1570.840 C 544.466 1567.847, 546.795 1567.056, 563.100 1561.127 C 567.830 1559.407, 572.223 1558, 572.861 1558 C 573.500 1558, 575.929 1557.135, 578.261 1556.078 C 580.592 1555.021, 587 1552.581, 592.500 1550.655 C 611.767 1543.908, 622.517 1540.021, 624.500 1539.084 C 625.600 1538.564, 633.700 1535.374, 642.500 1531.995 C 651.300 1528.617, 660.525 1525.018, 663 1523.999 C 665.475 1522.979, 678.075 1518.029, 691 1512.999 C 703.925 1507.969, 715.400 1503.478, 716.500 1503.020 C 717.600 1502.561, 724.575 1499.852, 732 1497 C 739.425 1494.148, 746.513 1491.406, 747.750 1490.907 C 748.987 1490.408, 751.013 1489.592, 752.250 1489.094 C 753.487 1488.596, 759.225 1486.390, 765 1484.194 C 770.775 1481.997, 781.575 1477.860, 789 1475.001 C 796.425 1472.142, 806.100 1468.446, 810.500 1466.789 C 814.900 1465.131, 820.408 1462.925, 822.739 1461.887 C 825.071 1460.849, 827.321 1459.995, 827.739 1459.988 C 828.158 1459.982, 835.025 1457.475, 843 1454.418 C 850.975 1451.360, 859.525 1448.193, 862 1447.379 C 864.475 1446.565, 867.400 1445.514, 868.500 1445.043 C 871.982 1443.551, 879.309 1440.849, 885 1438.958 C 888.025 1437.953, 895.675 1435.280, 902 1433.018 C 908.325 1430.757, 917.325 1427.549, 922 1425.890 C 932.662 1422.107, 993.892 1401.963, 1003.500 1399.077 C 1010.460 1396.987, 1033.924 1389.608, 1039 1387.913 C 1042.025 1386.903, 1046.975 1385.412, 1050 1384.599 C 1053.025 1383.786, 1058.650 1382.157, 1062.500 1380.978 C 1066.350 1379.800, 1070.850 1378.461, 1072.500 1378.004 C 1074.150 1377.547, 1080.932 1375.574, 1087.571 1373.620 C 1094.210 1371.666, 1102.085 1369.405, 1105.071 1368.595 C 1108.057 1367.784, 1113.650 1366.168, 1117.500 1365.003 C 1121.350 1363.837, 1127.650 1362.025, 1131.500 1360.977 C 1135.350 1359.928, 1141.875 1358.132, 1146 1356.986 C 1150.125 1355.839, 1156.650 1354.059, 1160.500 1353.029 C 1164.350 1352, 1169.975 1350.481, 1173 1349.653 C 1191.730 1344.533, 1217.743 1337.697, 1225 1335.990 C 1226.925 1335.537, 1233.675 1333.804, 1240 1332.139 C 1254.384 1328.353, 1253.016 1328.695, 1268.500 1325.011 C 1275.650 1323.310, 1283.075 1321.502, 1285 1320.994 C 1292.589 1318.992, 1341.153 1307.314, 1352 1304.882 C 1354.475 1304.328, 1358.075 1303.453, 1360 1302.940 C 1361.925 1302.426, 1367.550 1301.087, 1372.500 1299.964 C 1377.450 1298.841, 1383.525 1297.461, 1386 1296.898 C 1388.475 1296.335, 1392.075 1295.457, 1394 1294.947 C 1395.925 1294.437, 1401.100 1293.286, 1405.500 1292.389 C 1409.900 1291.493, 1415.075 1290.409, 1417 1289.980 C 1418.925 1289.552, 1422.975 1288.662, 1426 1288.002 C 1435.099 1286.018, 1439.160 1285.118, 1446.500 1283.464 C 1466.186 1279.025, 1481.165 1275.757, 1487 1274.628 C 1490.575 1273.937, 1494.175 1273.093, 1495 1272.754 C 1495.825 1272.414, 1498.075 1271.947, 1500 1271.715 C 1501.925 1271.483, 1507.100 1270.553, 1511.500 1269.650 C 1515.900 1268.746, 1521.975 1267.518, 1525 1266.922 C 1528.025 1266.326, 1532.300 1265.454, 1534.500 1264.986 C 1536.700 1264.517, 1541.425 1263.624, 1545 1263 C 1548.575 1262.376, 1553.300 1261.471, 1555.500 1260.988 C 1562.128 1259.531, 1565.258 1258.905, 1570.500 1257.984 C 1575.400 1257.124, 1578.949 1256.406, 1590 1254.043 C 1593.025 1253.396, 1598.200 1252.408, 1601.500 1251.848 C 1604.800 1251.287, 1609.750 1250.400, 1612.500 1249.875 C 1622.665 1247.936, 1628.638 1246.914, 1634 1246.193 C 1637.025 1245.787, 1640.029 1245.121, 1640.677 1244.713 C 1641.324 1244.306, 1644.305 1243.764, 1647.302 1243.509 C 1650.298 1243.254, 1654.024 1242.561, 1655.580 1241.969 C 1657.137 1241.378, 1660.134 1241.185, 1662.240 1241.541 C 1664.346 1241.896, 1666.616 1241.750, 1667.285 1241.216 C 1667.953 1240.682, 1670.975 1239.992, 1674 1239.684 C 1677.025 1239.376, 1682.425 1238.663, 1686 1238.100 C 1692.565 1237.066, 1695.382 1236.606, 1713.500 1233.615 C 1725.970 1231.557, 1746.111 1228.441, 1756 1227.042 C 1760.125 1226.458, 1766.425 1225.542, 1770 1225.007 C 1780.734 1223.400, 1806.322 1219.804, 1809 1219.526 C 1811.466 1219.270, 1813.222 1219.048, 1830 1216.865 C 1838.557 1215.752, 1844 1214.155, 1844 1212.756 C 1844 1212.340, 1842.987 1212.019, 1841.750 1212.043 C 1838.625 1212.103, 1798.189 1217.159, 1785.500 1219.075 C 1781.650 1219.657, 1777.375 1220.275, 1776 1220.449 C 1766.492 1221.650, 1755.067 1223.225, 1746.587 1224.504 C 1741.135 1225.327, 1735.773 1226, 1734.670 1226 C 1730.991 1226, 1733.720 1224.888, 1739.644 1223.974 C 1742.865 1223.477, 1748.200 1222.632, 1751.500 1222.096 C 1768.749 1219.294, 1821.853 1211.785, 1837 1210.006 C 1841.675 1209.457, 1848.650 1208.553, 1852.500 1207.997 C 1856.350 1207.441, 1862.650 1206.703, 1866.500 1206.357 C 1874.040 1205.679, 1877.773 1204.373, 1876.321 1202.921 C 1875.796 1202.396, 1868.637 1202.816, 1858.963 1203.940 C 1835.067 1206.716, 1826.140 1207.326, 1828.172 1206.043 C 1829.092 1205.462, 1833.817 1204.529, 1838.672 1203.968 C 1843.528 1203.407, 1851.100 1202.495, 1855.500 1201.941 C 1859.900 1201.387, 1867.100 1200.517, 1871.500 1200.008 C 1875.900 1199.498, 1883.100 1198.597, 1887.500 1198.006 C 1897.109 1196.714, 1904.270 1195.904, 1909 1195.573 C 1914.791 1195.167, 1923.281 1193.961, 1927 1193.015 C 1928.925 1192.526, 1935.900 1191.632, 1942.500 1191.028 C 1949.100 1190.424, 1958.100 1189.494, 1962.500 1188.963 C 1969.861 1188.073, 2000.033 1185.331, 2028 1183.009 C 2041.608 1181.880, 2060.773 1180.446, 2081.500 1179.008 C 2089.750 1178.435, 2102.800 1177.526, 2110.500 1176.987 C 2124.553 1176.004, 2147.696 1175.640, 2146.917 1176.414 C 2146.687 1176.641, 2139.525 1177.356, 2131 1178.003 C 2122.475 1178.650, 2110.775 1179.587, 2105 1180.084 C 2099.225 1180.582, 2093.600 1181.056, 2092.500 1181.138 C 2065.248 1183.167, 2062.181 1183.586, 2063.677 1185.071 C 2064.130 1185.521, 2069.225 1185.465, 2075 1184.947 C 2080.775 1184.429, 2089.325 1183.819, 2094 1183.592 C 2105.780 1183.020, 2134.825 1181.163, 2151 1179.947 C 2170.922 1178.450, 2199.616 1177.618, 2198.724 1178.563 C 2198.298 1179.015, 2190.423 1179.736, 2181.224 1180.165 C 2146.398 1181.791, 2113.341 1183.993, 2039.500 1189.610 C 2034.550 1189.986, 2028.475 1190.425, 2026 1190.584 C 2018.025 1191.098, 2008.605 1191.965, 2004.500 1192.563 C 2002.300 1192.884, 1998.475 1193.344, 1996 1193.585 C 1993.525 1193.826, 1983.625 1194.903, 1974 1195.977 C 1964.375 1197.052, 1954.025 1198.155, 1951 1198.429 C 1947.975 1198.702, 1941.450 1199.382, 1936.500 1199.938 C 1931.550 1200.494, 1923.225 1201.387, 1918 1201.923 C 1912.775 1202.459, 1904.900 1203.374, 1900.500 1203.956 C 1896.100 1204.539, 1890.390 1205.229, 1887.810 1205.490 C 1885.231 1205.751, 1881.181 1206.378, 1878.810 1206.884 C 1876.440 1207.390, 1869.213 1208.388, 1862.750 1209.102 C 1856.287 1209.816, 1851 1210.775, 1851 1211.232 C 1851 1212.293, 1855.233 1213.923, 1856.321 1213.280 C 1856.772 1213.013, 1860.372 1212.592, 1864.321 1212.344 C 1868.269 1212.096, 1873.660 1211.467, 1876.299 1210.947 C 1878.939 1210.426, 1882.737 1210, 1884.739 1210 C 1886.741 1210, 1890.882 1209.567, 1893.940 1209.038 C 1896.998 1208.508, 1904.450 1207.559, 1910.500 1206.927 C 1916.550 1206.296, 1922.057 1205.329, 1922.737 1204.778 C 1923.417 1204.227, 1925.029 1204.041, 1926.318 1204.365 C 1927.607 1204.689, 1938.751 1204.041, 1951.081 1202.927 C 1963.411 1201.812, 1978 1200.508, 1983.500 1200.029 C 1989 1199.549, 2000.700 1198.448, 2009.500 1197.581 C 2036.261 1194.944, 2046.746 1194.076, 2065 1192.987 C 2074.625 1192.413, 2084.975 1191.697, 2088 1191.397 C 2096.538 1190.548, 2145.751 1188.094, 2195 1186.061 C 2288.323 1182.210, 2412.823 1182.674, 2458 1187.041 C 2495.557 1190.672, 2500.487 1191.224, 2520 1193.981 C 2535.179 1196.126, 2554.776 1201.376, 2557.401 1204.001 C 2558.091 1204.691, 2557.708 1205.517, 2556.209 1206.566 C 2552.668 1209.047, 2553.543 1210.691, 2559.117 1212.028 C 2569.518 1214.523, 2580.924 1211.091, 2588.001 1203.336 C 2593.067 1197.786, 2594 1195.662, 2594 1189.685 C 2594 1183.115, 2590.510 1177.293, 2583.317 1171.865 C 2577.362 1167.371, 2571.526 1164.352, 2558.798 1159.184 C 2554.873 1157.590, 2536.414 1152.449, 2530 1151.163 C 2498.942 1144.936, 2482.406 1142.879, 2432.500 1139.036 C 2384.735 1135.358, 2238.616 1134.098, 2172.500 1136.795 C 2156 1137.468, 2137.325 1138.197, 2131 1138.415 L 2119.500 1138.811 2124.546 1136.514 C 2127.321 1135.251, 2131.596 1133.528, 2134.046 1132.685 C 2136.496 1131.842, 2143.675 1129.294, 2150 1127.022 C 2156.325 1124.750, 2163.525 1122.218, 2166 1121.395 C 2168.475 1120.572, 2171.400 1119.500, 2172.500 1119.012 C 2173.600 1118.524, 2184.400 1114.898, 2196.500 1110.954 C 2208.600 1107.010, 2220.975 1102.956, 2224 1101.947 C 2227.025 1100.937, 2236.700 1098.028, 2245.500 1095.483 C 2254.300 1092.938, 2269.825 1088.443, 2280 1085.494 C 2313.367 1075.823, 2340.055 1068.931, 2390.221 1057.028 C 2395.018 1055.890, 2401.318 1054.473, 2404.221 1053.879 C 2407.124 1053.285, 2411.075 1052.442, 2413 1052.006 C 2429.967 1048.166, 2440.732 1045.967, 2466.500 1041.081 C 2482.478 1038.051, 2509.776 1033.392, 2520.500 1031.865 C 2524.350 1031.317, 2530.425 1030.446, 2534 1029.931 C 2574.923 1024.030, 2625.302 1020, 2658.146 1020 C 2754.892 1020.001, 2827.052 1044.375, 2844.659 1083 C 2847.959 1090.241, 2848.499 1093.063, 2848.484 1103 C 2848.467 1113.881, 2848.023 1115.922, 2842.727 1129.500 C 2825.692 1173.172, 2764.221 1227.140, 2679.745 1272.588 C 2671.108 1277.235, 2633.225 1296, 2632.480 1296 C 2632.244 1296, 2629.103 1297.350, 2625.500 1299 C 2621.897 1300.650, 2618.750 1302, 2618.505 1302 C 2618.260 1302, 2615.683 1303.085, 2612.780 1304.412 C 2606.730 1307.175, 2587.725 1314.846, 2584 1316.028 C 2582.625 1316.464, 2577.675 1318.239, 2573 1319.973 C 2561.406 1324.271, 2545.261 1329.685, 2538.822 1331.433 C 2535.895 1332.228, 2530.350 1333.843, 2526.500 1335.022 C 2516.040 1338.224, 2514.122 1338.749, 2501.250 1341.925 C 2494.695 1343.543, 2478.664 1347.091, 2474 1347.955 C 2460.700 1350.422, 2447.003 1352.700, 2431.754 1354.981 C 2416.982 1357.192, 2379.192 1359.990, 2364.034 1359.996 C 2348.726 1360.002, 2309.969 1357.064, 2296.500 1354.878 C 2283.489 1352.765, 2278.356 1351.845, 2275 1351.022 C 2273.075 1350.550, 2266.550 1348.996, 2260.500 1347.569 C 2247.067 1344.400, 2236.817 1341.578, 2231.500 1339.586 C 2229.300 1338.762, 2226.213 1338.068, 2224.640 1338.044 C 2223.067 1338.020, 2219.121 1336.583, 2215.872 1334.851 C 2210.068 1331.758, 2206.788 1331.561, 2210.573 1334.534 C 2214.629 1337.720, 2220.887 1342, 2221.489 1342 C 2221.834 1342, 2223.778 1343.307, 2225.809 1344.905 C 2241.032 1356.883, 2291.373 1374.877, 2326.500 1380.894 C 2365.901 1387.644, 2375.564 1388.425, 2419.500 1388.415 C 2461.861 1388.404, 2476.835 1387.310, 2507.250 1382.003 C 2510.412 1381.451, 2515.363 1380.593, 2518.250 1380.095 C 2522.977 1379.280, 2537.874 1376.113, 2547 1373.983 C 2550.818 1373.092, 2572.376 1367.450, 2578 1365.870 C 2579.925 1365.330, 2582.850 1364.507, 2584.500 1364.043 C 2591.229 1362.149, 2624.690 1350.726, 2633.284 1347.388 C 2638.353 1345.420, 2644.975 1342.874, 2648 1341.732 C 2651.025 1340.589, 2656.324 1338.382, 2659.775 1336.827 C 2663.226 1335.272, 2666.219 1334, 2666.426 1334 C 2667.070 1334, 2683.828 1326.111, 2699.500 1318.432 C 2713.425 1311.608, 2718.497 1308.928, 2733 1300.729 C 2807.627 1258.542, 2862.026 1207.981, 2886.025 1158.500 C 2894.215 1141.613, 2896.270 1134.841, 2899.149 1115.247 C 2900.182 1108.216, 2900.112 1105.458, 2898.681 1096.613 C 2895.059 1074.233, 2888.954 1061.899, 2874.052 1046.847 C 2851.604 1024.174, 2823.992 1010.459, 2778 999.136 C 2743.586 990.663, 2677.666 986.180, 2628.650 988.979 C 2595.941 990.847, 2551.850 994.675, 2536.500 996.980 C 2533.200 997.476, 2526.900 998.385, 2522.500 999 C 2500.083 1002.135, 2481.205 1005.237, 2449.750 1010.954 C 2446.863 1011.479, 2441.575 1012.409, 2438 1013.021 C 2434.425 1013.633, 2429.700 1014.517, 2427.500 1014.986 C 2425.300 1015.454, 2421.025 1016.326, 2418 1016.922 C 2408.152 1018.864, 2396.577 1021.224, 2393 1022.020 C 2383.986 1024.025, 2378.172 1025.286, 2374.500 1026.031 C 2362.313 1028.503, 2345.571 1032.298, 2335 1034.984 C 2333.075 1035.474, 2329.250 1036.381, 2326.500 1037 C 2323.750 1037.619, 2319.925 1038.519, 2318 1039 C 2316.075 1039.481, 2312.475 1040.324, 2310 1040.875 C 2307.525 1041.426, 2304.375 1042.164, 2303 1042.516 C 2301.625 1042.868, 2298.925 1043.528, 2297 1043.983 C 2293.414 1044.832, 2280.526 1048.212, 2266.750 1051.916 C 2262.488 1053.062, 2255.512 1054.922, 2251.250 1056.049 C 2246.988 1057.177, 2242.150 1058.532, 2240.500 1059.061 C 2238.850 1059.590, 2228.950 1062.459, 2218.500 1065.437 C 2187.690 1074.215, 2182.678 1075.750, 2157.500 1084.119 C 2134.322 1091.823, 2114.400 1099.062, 2099.748 1105.104 C 2095.885 1106.697, 2092.332 1108, 2091.852 1108 C 2091.371 1108, 2088.958 1108.900, 2086.489 1110 C 2084.020 1111.100, 2079.980 1112.900, 2077.511 1114 C 2075.042 1115.100, 2072.833 1116, 2072.603 1116 C 2071.954 1116, 2053.784 1124.563, 2042.582 1130.148 C 2031.077 1135.884, 2026.614 1138.459, 2022.861 1141.527 C 2020.718 1143.279, 2018.368 1143.806, 2010.361 1144.329 C 1996.673 1145.225, 1961.240 1148.280, 1945 1149.965 C 1939.775 1150.507, 1931 1151.397, 1925.500 1151.943 C 1920 1152.488, 1911.450 1153.380, 1906.500 1153.924 C 1901.550 1154.468, 1889.175 1155.818, 1879 1156.925 C 1868.825 1158.032, 1856.675 1159.402, 1852 1159.970 C 1847.325 1160.538, 1839.675 1161.468, 1835 1162.037 C 1830.325 1162.605, 1822.900 1163.505, 1818.500 1164.036 C 1814.100 1164.567, 1807.350 1165.437, 1803.500 1165.970 C 1799.650 1166.504, 1792.900 1167.403, 1788.500 1167.969 C 1770.726 1170.256, 1764.676 1171.043, 1757.750 1171.969 C 1731.413 1175.491, 1718.644 1176.938, 1718.142 1176.458 C 1717.720 1176.056, 1773.248 1092.975, 1785.617 1075.500 C 1790.289 1068.900, 1796.323 1060.350, 1799.027 1056.500 C 1801.730 1052.650, 1805.897 1046.800, 1808.287 1043.500 C 1810.677 1040.200, 1816.596 1031.875, 1821.441 1025 C 1826.286 1018.125, 1832.224 1009.800, 1834.637 1006.500 C 1837.050 1003.200, 1842.623 995.550, 1847.021 989.500 C 1886.034 935.837, 1900.544 917.196, 1904.500 915.658 C 1906.700 914.802, 1914.575 911.880, 1922 909.163 C 1937.254 903.583, 1951.727 898.231, 1963.500 893.819 C 1967.900 892.171, 1972.625 890.452, 1974 890 C 1975.375 889.548, 1980.325 887.760, 1985 886.026 C 2002.349 879.592, 2002.862 879.490, 2000.950 882.858 C 1999.557 885.310, 1991.996 903.486, 1982.924 926.190 C 1963.350 975.177, 1953.876 1003.739, 1946.996 1034.500 C 1946.504 1036.700, 1945.530 1040.975, 1944.831 1044 C 1944.111 1047.115, 1943.564 1055.788, 1943.569 1064 C 1943.577 1076.637, 1943.849 1079.078, 1945.683 1083 C 1948.424 1088.858, 1955.239 1095.345, 1961.419 1097.978 L 1966.338 1100.074 1971.574 1097.595 C 1976.910 1095.068, 1982 1089.695, 1982 1086.588 C 1982 1085.320, 1981.472 1085.033, 1980 1085.500 C 1978.238 1086.059, 1978 1085.680, 1978.003 1082.317 C 1978.010 1073.290, 1992.053 1028.407, 2007.044 989.500 C 2010.434 980.700, 2014.099 971.025, 2015.189 968 C 2016.278 964.975, 2017.806 961.038, 2018.585 959.250 C 2021.947 951.528, 2023.214 948.568, 2030.458 931.500 C 2034.660 921.600, 2039.250 911.025, 2040.658 908 C 2042.067 904.975, 2044.105 900.250, 2045.187 897.500 C 2047.561 891.471, 2048.400 889.585, 2054.921 875.629 C 2057.714 869.650, 2060.010 864.475, 2060.022 864.129 C 2060.121 861.321, 2064.746 858.422, 2074.580 855.004 C 2080.586 852.916, 2090.675 849.344, 2097 847.067 C 2103.325 844.790, 2116.150 840.276, 2125.500 837.037 C 2148.223 829.164, 2170.086 821.442, 2172.293 820.510 C 2175.367 819.212, 2175.359 820.756, 2172.271 824.704 C 2170.638 826.792, 2163.983 836.375, 2157.483 846 C 2150.983 855.625, 2143.190 867.100, 2140.165 871.500 C 2127.133 890.459, 2115.581 907.089, 2109.949 915 C 2106.622 919.675, 2101.243 927.325, 2097.997 932 C 2094.751 936.675, 2088.465 945.450, 2084.027 951.500 C 2079.590 957.550, 2074.089 965.200, 2071.803 968.500 C 2066.798 975.725, 2049.228 997.741, 2047.727 998.668 C 2047.029 999.100, 2046.915 998.667, 2047.398 997.414 C 2047.804 996.361, 2048.605 993.475, 2049.179 991 C 2049.752 988.525, 2051.072 984.575, 2052.111 982.223 C 2053.150 979.871, 2053.998 977.396, 2053.995 976.723 C 2053.990 975.563, 2057.252 966.746, 2062.589 953.500 C 2063.918 950.200, 2065.010 946.600, 2065.015 945.500 C 2065.020 944.400, 2066.144 941.542, 2067.512 939.148 C 2070.420 934.061, 2070.433 934, 2068.585 934 C 2065.233 934, 2039.701 973.355, 2028.558 995.699 C 2016.821 1019.232, 2014.785 1029.116, 2019.986 1037.317 C 2023.665 1043.118, 2033.750 1050, 2038.572 1050 C 2050.475 1050, 2067.790 1034.317, 2091.568 1002 C 2093.793 998.975, 2097.439 994.025, 2099.669 991 C 2110.453 976.372, 2140.958 930.872, 2167.358 890.037 C 2171.680 883.352, 2175.368 878.035, 2175.554 878.221 C 2175.740 878.406, 2173.259 886.645, 2170.041 896.529 C 2160.571 925.614, 2156.435 938.964, 2154.095 948 C 2152.884 952.675, 2151.467 957.882, 2150.947 959.571 C 2148.649 967.024, 2149.604 970.740, 2155.250 976.315 C 2158.137 979.167, 2162.153 982.371, 2164.174 983.436 C 2172.148 987.639, 2176.734 983.309, 2210.500 939.690 C 2245.315 894.716, 2257.116 879.392, 2258.712 877.083 C 2258.870 876.854, 2259.201 876.868, 2259.447 877.114 C 2259.693 877.360, 2257.853 882.948, 2255.358 889.531 C 2235.709 941.369, 2230.973 979.073, 2241.427 1000.441 C 2244.737 1007.206, 2251.489 1013.317, 2257.520 1015.006 C 2261.512 1016.123, 2262.548 1016.057, 2266.103 1014.454 C 2272.270 1011.673, 2274.737 1007, 2270.039 1007 C 2266.293 1007, 2264.661 993.819, 2267.101 983.264 C 2276.078 944.435, 2285.835 916.713, 2305.100 875.306 C 2307.353 870.463, 2309.913 864.700, 2310.789 862.500 C 2313.927 854.613, 2334.673 813.988, 2342.451 800.500 C 2343.720 798.300, 2346.670 792.900, 2349.008 788.500 C 2351.346 784.100, 2353.907 779.455, 2354.700 778.177 C 2360.082 769.505, 2367 754.534, 2367 751.558 C 2367 746.840, 2363.340 742.855, 2355.561 739.104 C 2346.790 734.873, 2344.573 735.063, 2336.899 740.704 C 2330.308 745.548, 2327.283 748.779, 2318.252 760.619 C 2315.366 764.404, 2308.616 773.170, 2303.252 780.100 C 2297.888 787.029, 2292.375 794.189, 2291 796.010 C 2278.662 812.351, 2215.903 890.697, 2210.504 896.500 C 2207.945 899.250, 2206.162 900.600, 2206.541 899.500 C 2206.920 898.400, 2209.012 892.550, 2211.189 886.500 C 2213.366 880.450, 2216.279 872.125, 2217.662 868 C 2220.008 861.006, 2222.201 855.112, 2231.985 829.500 C 2234.086 824, 2240.800 806.900, 2246.904 791.500 C 2253.009 776.100, 2258.003 762.739, 2258.002 761.809 C 2258.001 760.879, 2258.450 759.840, 2259 759.500 C 2260.689 758.456, 2260.102 751.680, 2258.028 748.279 C 2255.592 744.283, 2243.663 738, 2238.511 738 C 2233.594 738, 2229.144 741.241, 2224.240 748.396 C 2221.939 751.753, 2213.161 764.625, 2204.733 777 C 2187.767 801.913, 2189.760 800.140, 2175.500 802.993 C 2169.234 804.246, 2146.687 809.572, 2141.500 811.025 C 2139.850 811.487, 2136.700 812.343, 2134.500 812.927 C 2132.300 813.512, 2123.300 816.046, 2114.500 818.559 C 2105.700 821.072, 2096.025 823.794, 2093 824.608 C 2089.975 825.422, 2085.363 826.719, 2082.750 827.490 C 2078.745 828.672, 2078 828.677, 2078 827.523 C 2078 825.695, 2124.556 733.287, 2134.186 716 C 2135.565 713.525, 2139.749 705.650, 2143.485 698.500 C 2147.221 691.350, 2150.599 685.050, 2150.993 684.500 C 2151.387 683.950, 2153.409 680.350, 2155.487 676.500 C 2157.564 672.650, 2160.617 667.025, 2162.271 664 C 2163.925 660.975, 2166.627 656.025, 2168.276 653 C 2169.925 649.975, 2172.283 645.700, 2173.516 643.500 C 2174.748 641.300, 2177.096 637.025, 2178.733 634 C 2180.370 630.975, 2182.844 626.475, 2184.232 624 C 2185.620 621.525, 2189 615.450, 2191.745 610.500 C 2194.489 605.550, 2200.771 594.300, 2205.705 585.500 C 2210.639 576.700, 2216.161 566.800, 2217.975 563.500 C 2219.790 560.200, 2222.283 555.700, 2223.516 553.500 C 2242.853 518.988, 2256 490.582, 2256 483.311 C 2256 474.650, 2247.066 468.053, 2229.500 463.745 C 2228.400 463.476, 2226.600 463.448, 2225.500 463.684 M 1870.245 563.250 C 1863.226 572.352, 1838.501 592.921, 1818 606.714 C 1792.736 623.711, 1753.206 643.933, 1732.509 650.449 C 1722.006 653.756, 1720.167 654.121, 1715.500 653.821 L 1710.500 653.500 1710.357 648.232 C 1710.189 642.023, 1709.400 640.878, 1703.322 638.021 L 1698.747 635.871 1693.360 638.057 C 1680.208 643.395, 1673.137 661.905, 1679.202 675.115 C 1684.305 686.227, 1695.762 693.948, 1707.201 693.985 C 1728.098 694.052, 1766.507 674.468, 1802.892 645.193 C 1830.156 623.257, 1857.905 591.965, 1869.066 570.567 C 1873.699 561.686, 1874.293 558.002, 1870.245 563.250 M 846.829 622.864 C 819.717 651.305, 801.938 670.987, 774.500 702.933 C 770.100 708.056, 766.041 712.754, 765.481 713.374 C 764.920 713.993, 759.747 720.125, 753.985 727 C 748.224 733.875, 743.256 739.725, 742.947 740 C 742.637 740.275, 737.838 746.125, 732.281 753 C 726.724 759.875, 713.925 775.691, 703.839 788.146 C 678.400 819.559, 672.674 826.892, 647.100 860.810 C 638.678 871.981, 631.947 881.265, 632.143 881.443 C 632.340 881.620, 638.125 879.076, 645 875.789 C 651.875 872.502, 660.200 868.558, 663.500 867.023 C 666.800 865.489, 676.180 861.031, 684.345 857.117 C 692.510 853.203, 699.319 850, 699.476 850 C 699.633 850, 705.552 847.249, 712.631 843.887 C 725.895 837.587, 751.723 826, 752.501 826 C 753.808 826, 763.834 820.892, 764.684 819.793 C 765.234 819.082, 768.193 812.650, 771.260 805.500 C 777.006 792.103, 779.868 785.696, 789.952 763.651 C 792.178 758.784, 794 754.677, 794 754.525 C 794 754.236, 802.479 736.140, 809.006 722.500 C 812.884 714.395, 819.756 699.889, 827.481 683.500 C 838.158 660.848, 840.989 655.026, 852.279 632.500 C 858.895 619.300, 864.961 607.234, 865.758 605.688 C 866.556 604.141, 867.049 602.730, 866.854 602.552 C 866.659 602.374, 857.648 611.514, 846.829 622.864 M 1398.500 615.651 C 1395.750 615.848, 1391.700 616.438, 1389.500 616.961 C 1387.300 617.484, 1382.499 618.619, 1378.831 619.483 C 1346.475 627.101, 1291.789 658.393, 1266.680 683.657 C 1264.579 685.771, 1259.239 691.100, 1254.814 695.500 C 1250.388 699.900, 1245.190 705.975, 1243.263 709 C 1241.335 712.025, 1238.913 715.305, 1237.879 716.289 C 1236.846 717.273, 1236 718.602, 1236 719.242 C 1236 720.813, 1243.840 713.078, 1244.566 710.791 C 1245.176 708.870, 1255.381 698.756, 1257.342 698.130 C 1257.979 697.927, 1256.051 700.278, 1253.059 703.355 C 1246.028 710.585, 1247.164 711.622, 1255.208 705.317 C 1283.917 682.814, 1341.162 651.671, 1372.479 641.517 C 1395.336 634.106, 1413.902 630.725, 1420.022 632.858 C 1421.824 633.486, 1424.275 634, 1425.469 634 C 1428.714 634, 1435.531 640.371, 1437.469 645.215 C 1440.782 653.495, 1442.271 666.558, 1441.035 676.500 C 1438.656 695.628, 1437.730 700.953, 1434.429 714.500 C 1415.941 790.370, 1360.691 894.612, 1311 947.377 C 1303.735 955.091, 1294.956 961.547, 1293.948 959.916 C 1293.118 958.573, 1293.795 949.768, 1295.173 944 C 1298.952 928.178, 1313.253 895.195, 1324.161 877.148 C 1326.272 873.654, 1328 870.652, 1328 870.477 C 1328 869.702, 1344.661 843.820, 1349.229 837.500 C 1367.127 812.736, 1386.759 792, 1392.306 792 C 1398.840 792, 1400.098 783.811, 1394.559 777.340 C 1391.787 774.101, 1389.536 772.782, 1382.980 770.554 L 1374.843 767.789 1368.672 770.034 C 1350.299 776.717, 1322.479 805.184, 1297.364 843 C 1288.986 855.615, 1287.096 858.878, 1275.353 881 C 1272.825 885.762, 1266.005 900.962, 1263.366 907.716 C 1261.477 912.549, 1220 954.750, 1220 951.839 C 1220 950.918, 1225.386 936.813, 1228.670 929.132 C 1232.390 920.433, 1245.615 894.034, 1258.842 868.900 C 1262.779 861.420, 1266 854.367, 1266 853.227 C 1266 850.172, 1261.400 845.237, 1256.005 842.503 C 1245.643 837.252, 1241.316 841.350, 1213.249 883 C 1208.245 890.425, 1203.329 897.400, 1202.325 898.500 C 1201.320 899.600, 1199.204 902.075, 1197.623 904 C 1181.394 923.760, 1132.038 974.615, 1131.285 972.354 C 1130.800 970.899, 1140.197 952.865, 1148.926 938.500 C 1157.718 924.031, 1164.145 914.694, 1177.147 897.500 C 1190.426 879.940, 1192.860 876.943, 1202.326 866.500 C 1217.199 850.092, 1222.419 844.832, 1231 837.602 C 1245.656 825.255, 1248 824.136, 1248 829.488 C 1248 830.791, 1248.706 832.563, 1249.569 833.427 C 1252.262 836.119, 1255.971 833.041, 1260.326 824.500 C 1266.542 812.308, 1263.976 804.891, 1251.355 798.575 C 1243.450 794.619, 1237.430 795.512, 1223.826 802.661 C 1190.343 820.255, 1131.091 886.209, 1098.888 941.730 C 1081.927 970.971, 1075.901 993.900, 1081.912 1006.318 C 1085.933 1014.625, 1098.578 1024, 1105.762 1024 C 1116.999 1024, 1136.880 1007.194, 1168.462 971 C 1174.461 964.125, 1179.662 958.375, 1180.021 958.221 C 1180.380 958.068, 1180.081 960.768, 1179.357 964.221 C 1176.122 979.663, 1178.221 987.184, 1187.651 993.936 C 1193.911 998.419, 1197.390 998.988, 1203.339 996.503 C 1207.121 994.923, 1223.218 979.622, 1231.747 969.500 C 1234.528 966.200, 1240.222 959.483, 1244.402 954.574 C 1248.581 949.664, 1252 945.277, 1252 944.824 C 1252 944.371, 1252.450 944, 1253 944 C 1253.601 944, 1254 948.060, 1254 954.179 C 1254 968.916, 1256.911 976.837, 1265.164 984.556 C 1276.405 995.072, 1291.373 997.595, 1305.104 991.290 C 1349.445 970.931, 1413.836 886.595, 1445.046 808 C 1450.106 795.259, 1456.229 778.023, 1458.101 771.250 C 1458.596 769.462, 1459.411 766.538, 1459.913 764.750 C 1462.945 753.961, 1464.021 749.369, 1465.827 739.500 C 1470.404 714.493, 1471.421 689.173, 1468.538 672 C 1461.698 631.260, 1438.715 612.769, 1398.500 615.651 M 2926.256 650.158 C 2923.667 651.414, 2920.546 654.213, 2918.256 657.333 C 2914.538 662.397, 2908 672.825, 2908 673.691 C 2908 673.938, 2906.729 676.021, 2905.176 678.320 C 2902.342 682.514, 2884.348 713.826, 2877.776 726 C 2869.454 741.415, 2860.963 757.698, 2852.508 774.453 L 2843.450 792.405 2837.475 794.077 C 2834.189 794.996, 2827.225 796.957, 2822 798.435 C 2806.335 802.864, 2803 803.725, 2803 803.338 C 2803 803.136, 2804.292 800.614, 2805.870 797.735 C 2807.449 794.856, 2811.899 786.425, 2815.758 779 C 2823.533 764.044, 2831.698 748.919, 2840.613 732.961 C 2853.697 709.538, 2866.085 683.620, 2866.642 678.500 C 2867.386 671.664, 2864.584 667.640, 2855.978 663.185 C 2849.862 660.019, 2849.306 659.909, 2845.608 661.129 C 2838.844 663.362, 2828.379 679.183, 2805.145 722.301 C 2802.833 726.591, 2798.781 734.016, 2796.140 738.801 C 2791.800 746.665, 2781.019 767.212, 2770.063 788.500 C 2767.798 792.900, 2764.495 797.861, 2762.723 799.525 C 2760.950 801.189, 2754.334 808.164, 2748.021 815.025 C 2735.393 828.749, 2724.157 840.191, 2713.621 850.058 C 2708.144 855.187, 2706.890 855.990, 2707.467 854 C 2708.367 850.893, 2731.427 804.201, 2737.099 794 C 2744.143 781.331, 2761.030 751.901, 2765.636 744.267 C 2768.036 740.289, 2770 736.821, 2770 736.561 C 2770 736.301, 2771.350 733.798, 2773 731 C 2778.294 722.022, 2775.892 715.907, 2765.341 711.498 C 2755.488 707.381, 2752.872 709.801, 2720.164 753.282 C 2699.052 781.348, 2688.927 793.787, 2667.513 817.965 C 2654.459 832.705, 2638.861 849.195, 2638.404 848.738 C 2637.905 848.238, 2662.145 801.336, 2673.929 780 C 2691.617 747.975, 2698 734.564, 2698 729.421 C 2698 725.292, 2697.708 724.847, 2692.438 720.954 C 2687.331 717.182, 2686.533 716.903, 2682.688 717.549 C 2678.312 718.284, 2672.180 723.563, 2665.274 732.538 C 2659.255 740.361, 2634.485 780.710, 2623.246 801 C 2621.875 803.475, 2619.949 806.850, 2618.966 808.500 C 2605.057 831.856, 2584.603 872.476, 2580.558 884.774 C 2579.056 889.341, 2577.730 890.955, 2570.662 896.819 C 2560.435 905.302, 2556.051 908.384, 2555.291 907.624 C 2554.702 907.036, 2558.732 893.676, 2562.114 885 C 2563.079 882.525, 2565.270 876.450, 2566.983 871.500 C 2568.696 866.550, 2570.525 861.719, 2571.049 860.764 C 2571.572 859.809, 2572 858.566, 2572 858.003 C 2572 857.439, 2572.952 854.846, 2574.116 852.239 C 2575.280 849.633, 2576.810 846.150, 2577.517 844.500 C 2578.223 842.850, 2581.593 834.975, 2585.006 827 C 2588.420 819.025, 2592.335 810.025, 2593.707 807 C 2604.036 784.232, 2607.239 777.379, 2615.103 761.230 C 2619.996 751.181, 2624 742.752, 2624 742.498 C 2624 742.119, 2627.913 733.561, 2633.203 722.369 C 2635.234 718.073, 2631.327 712.213, 2623.935 708.467 C 2621.257 707.110, 2618.178 706, 2617.092 706 C 2616.006 706, 2614.840 705.550, 2614.500 705 C 2612.647 702.002, 2606.291 705.231, 2601.785 711.461 C 2600.178 713.682, 2597.432 716.179, 2595.682 717.008 C 2592.342 718.591, 2586.778 725.521, 2574.811 743 C 2570.857 748.775, 2564.444 757.833, 2560.561 763.128 C 2556.677 768.424, 2549.675 778.054, 2545 784.529 C 2540.325 791.004, 2533.329 800.622, 2529.453 805.901 C 2525.577 811.181, 2517.715 822.025, 2511.982 830 C 2506.249 837.975, 2492.757 856.200, 2482 870.500 C 2471.244 884.800, 2460.234 899.623, 2457.535 903.441 C 2452.517 910.536, 2450.223 911.058, 2453.880 904.272 C 2462.327 888.598, 2465.150 875.470, 2457.449 887.674 C 2455.827 890.245, 2454.026 892.832, 2453.446 893.424 C 2446.258 900.764, 2423.152 934.147, 2419.421 942.582 C 2415.050 952.467, 2417.028 958.108, 2427.234 964.862 C 2433.881 969.260, 2438.027 969.093, 2445.595 964.120 C 2458.379 955.720, 2475.502 934.706, 2514.957 879 C 2524.501 865.525, 2533.202 853.600, 2534.294 852.500 L 2536.278 850.500 2535.528 852.500 C 2530.982 864.626, 2523.868 886.409, 2522.124 893.543 C 2520.920 898.469, 2519.499 903.882, 2518.967 905.571 C 2517.341 910.734, 2517.806 919.704, 2519.912 923.790 C 2523.103 929.980, 2531.856 937.179, 2537.741 938.453 C 2545.560 940.146, 2559.105 929.516, 2573 910.781 C 2576.432 906.154, 2579 904.681, 2579 907.341 C 2579 908.079, 2581.850 911.420, 2585.334 914.765 C 2591.868 921.039, 2596.248 922.908, 2601.395 921.616 C 2606.216 920.406, 2619.295 907.952, 2630.331 894.063 C 2631.888 892.103, 2635.048 888.475, 2637.354 886 C 2639.660 883.525, 2642.886 879.876, 2644.523 877.891 C 2646.160 875.906, 2651.558 869.606, 2656.519 863.891 C 2661.479 858.176, 2667.280 851.351, 2669.410 848.725 C 2671.540 846.098, 2673.482 844.149, 2673.726 844.393 C 2673.970 844.637, 2672.504 849.485, 2670.468 855.168 C 2660.552 882.851, 2661.138 890.680, 2673.808 899.769 C 2682.271 905.840, 2687.105 904.219, 2700.852 890.698 C 2710.436 881.272, 2730.580 858.444, 2738.080 848.511 C 2740.390 845.451, 2742.502 843.169, 2742.773 843.439 C 2743.044 843.710, 2740.753 849.910, 2737.682 857.216 C 2728.173 879.840, 2722.066 896.943, 2718.037 912.232 C 2715.622 921.396, 2715.516 924.163, 2717.435 927.875 C 2718.765 930.447, 2726.312 938, 2727.553 938 C 2728.779 938, 2734 934.892, 2734 934.163 C 2734 933.731, 2734.800 932.505, 2735.777 931.439 C 2739.833 927.015, 2742.910 921.342, 2763.472 880.389 L 2785.005 837.500 2789.753 835.823 C 2801.385 831.713, 2827.146 823.812, 2827.560 824.227 C 2827.973 824.639, 2825.782 829.945, 2819.810 843 C 2800.844 884.460, 2784.033 933.664, 2784.009 947.790 C 2783.996 955.532, 2789.463 965, 2793.946 965 C 2796.595 965, 2803.044 956.876, 2807.839 947.500 C 2812.678 938.038, 2826 909.951, 2826 909.211 C 2826 908.380, 2871.747 816.802, 2873.863 813.398 C 2875.169 811.296, 2876.873 810.089, 2879.145 809.656 C 2880.990 809.304, 2884.300 808.587, 2886.500 808.064 C 2898.705 805.162, 2912.154 802.290, 2924.500 799.952 C 2927.800 799.326, 2932.525 798.425, 2935 797.948 C 2950.921 794.880, 2986.303 791.488, 2992.798 792.406 C 2995.384 792.772, 3000.767 793.495, 3004.761 794.013 C 3019.518 795.925, 3025.837 800.874, 3024.643 809.584 C 3024.018 814.150, 3019.880 823.025, 3017.428 825.060 C 3015.492 826.667, 3015.562 829.382, 3017.520 828.631 C 3021.062 827.271, 3031.101 819.734, 3033.422 816.691 C 3045.597 800.728, 3037.979 784.558, 3014.500 776.525 C 2995.417 769.996, 2952.054 770.585, 2911.500 777.924 C 2902.903 779.480, 2893.556 780.959, 2892.188 780.980 C 2890.953 780.999, 2895.653 771.460, 2903.116 758.803 C 2904.702 756.113, 2906 753.786, 2906 753.631 C 2906 753.477, 2908.630 748.659, 2911.845 742.925 C 2915.059 737.191, 2918.950 730.250, 2920.491 727.500 C 2922.032 724.750, 2926.818 716.347, 2931.126 708.826 C 2954.794 667.510, 2955.477 659.749, 2936.290 650.114 C 2931.251 647.584, 2931.567 647.582, 2926.256 650.158 M 2102.447 665.726 C 2099.786 668.902, 2095.559 673.750, 2093.054 676.500 C 2090.549 679.250, 2086.414 683.975, 2083.865 687 C 2081.316 690.025, 2076.141 696.128, 2072.365 700.561 C 2064.922 709.301, 2061.435 713.470, 2049.408 728 C 2045.084 733.225, 2041.286 737.725, 2040.968 738 C 2040.241 738.630, 2021.629 761.557, 2013 772.451 C 2009.425 776.965, 1998.400 790.765, 1988.500 803.118 C 1956.006 843.664, 1933.912 872.425, 1934.969 872.803 C 1935.435 872.969, 1942.046 871.074, 1949.658 868.591 C 1969.232 862.206, 1993.279 854.486, 2001.500 851.947 C 2005.350 850.758, 2010.300 849.220, 2012.500 848.530 C 2016.792 847.182, 2018.209 845.105, 2024.456 831 C 2027.136 824.948, 2030.961 816.769, 2042.227 793 C 2044.703 787.775, 2047.745 781.250, 2048.985 778.500 C 2053.085 769.413, 2091.728 691.791, 2099.961 676.104 C 2104.405 667.637, 2107.871 660.538, 2107.663 660.330 C 2107.455 660.122, 2105.108 662.550, 2102.447 665.726 M 1756 710.356 C 1750.403 713.216, 1747.386 717.074, 1726.558 748 C 1702.832 783.230, 1694.237 794.714, 1668.554 825.500 C 1650.977 846.569, 1621.805 878, 1619.827 878 C 1619.436 878, 1621.162 873.612, 1623.663 868.250 C 1626.163 862.888, 1629.547 855.600, 1631.183 852.055 C 1636.512 840.501, 1648.366 819.309, 1668.398 785.522 C 1672.304 778.934, 1675.677 773.084, 1675.893 772.522 C 1676.109 771.960, 1677.052 770.375, 1677.989 769 C 1682.065 763.018, 1687 752.852, 1687 750.436 C 1687 746.046, 1684.119 742.572, 1677.532 739.017 L 1671.256 735.630 1666.878 737.337 C 1657.973 740.807, 1645.096 755.496, 1626.086 783.871 C 1615.006 800.411, 1601.071 823.806, 1594.270 837.288 C 1588.645 848.439, 1588.495 848.620, 1566.885 870.495 C 1554.934 882.592, 1544.885 892.218, 1544.553 891.886 C 1542.967 890.301, 1571.700 831.012, 1586.418 805.500 C 1587.687 803.300, 1590.202 798.800, 1592.006 795.500 C 1593.811 792.200, 1597.337 785.925, 1599.843 781.555 C 1606.624 769.733, 1605.647 764.797, 1595.562 759.909 C 1585.100 754.837, 1579.560 759.257, 1552.211 794.495 C 1531.243 821.513, 1513.934 842.025, 1493.591 863.969 C 1481.189 877.345, 1463.714 895.047, 1463.309 894.643 C 1462.677 894.010, 1482.190 856.476, 1491.977 839.500 C 1493.245 837.300, 1495.411 833.475, 1496.790 831 C 1498.168 828.525, 1503.665 818.850, 1509.003 809.500 C 1527.478 777.144, 1527.802 776.093, 1521.250 769.809 C 1517.045 765.775, 1510.151 762, 1506.990 762 C 1503.831 762, 1498.831 764.810, 1495.706 768.342 C 1482.241 783.562, 1453.511 827.387, 1435.945 859.500 C 1431.519 867.592, 1418 894.722, 1418 895.512 C 1418 895.748, 1416.924 898.317, 1415.609 901.220 C 1407.639 918.819, 1403.769 937.108, 1406.584 943.867 C 1409.398 950.622, 1419.099 958.739, 1426.383 960.434 C 1433.343 962.053, 1445.617 951.607, 1469.139 924.046 C 1472.637 919.947, 1478.220 913.647, 1481.544 910.046 C 1484.868 906.446, 1490.493 900.126, 1494.044 896.001 C 1497.595 891.877, 1501.069 887.901, 1501.765 887.165 C 1502.461 886.429, 1504.202 884.291, 1505.634 882.413 C 1509.948 876.757, 1510.049 878.492, 1506.002 888.750 C 1499.236 905.901, 1495.095 922.278, 1496.311 927.083 C 1498.278 934.860, 1508.949 944.004, 1516.049 943.996 C 1522.484 943.989, 1528.891 938.327, 1549.997 913.991 C 1553.570 909.871, 1557.170 905.748, 1557.997 904.829 C 1558.824 903.909, 1562.425 899.551, 1566 895.144 C 1572.257 887.431, 1575.021 885.069, 1573.483 888.750 C 1571.288 894.001, 1568.934 905.377, 1568.774 911.500 C 1568.526 920.986, 1570.132 924.145, 1578.500 930.627 C 1588.219 938.156, 1592.367 938.518, 1601.259 932.616 C 1609.585 927.089, 1630.533 904.847, 1656.054 874.436 C 1662.758 866.447, 1668.415 860.081, 1668.624 860.290 C 1668.833 860.499, 1668.327 862.882, 1667.501 865.585 C 1665.146 873.286, 1661.999 889.793, 1662.015 894.358 C 1662.045 903.156, 1665.967 910.276, 1674.270 916.608 C 1679.103 920.293, 1679.748 920.498, 1686.437 920.468 C 1695.071 920.430, 1699.906 918.164, 1711.538 908.709 C 1730.696 893.135, 1763.665 854.190, 1773.513 835.500 C 1774.672 833.300, 1776.251 830.508, 1777.022 829.295 C 1780.069 824.505, 1776.597 825.945, 1770.222 832.117 C 1743.939 857.559, 1705.756 888.090, 1703.296 885.630 C 1702.710 885.043, 1705.707 875.200, 1708.944 867.081 C 1712.397 858.420, 1717.840 846.449, 1725.349 831 C 1730.951 819.476, 1739.937 802.414, 1742.562 798.314 C 1743.332 797.111, 1744.815 794.636, 1745.857 792.814 C 1756.718 773.814, 1764.241 760.893, 1769.149 752.813 C 1776.569 740.598, 1783 727.069, 1783 723.676 C 1783 719.711, 1777.519 714.255, 1770.204 710.939 C 1762.463 707.429, 1761.783 707.401, 1756 710.356 M 1107.300 736.631 C 1096.584 741.890, 1082.287 766.087, 1025.543 875 C 1014.135 896.898, 978.258 968.649, 974.292 977.500 C 972.566 981.350, 968.932 989.225, 966.214 995 C 963.497 1000.775, 959.689 1009.100, 957.753 1013.500 C 955.817 1017.900, 953.099 1023.975, 951.714 1027 C 937.216 1058.667, 930.092 1080.347, 931.999 1086.997 C 933.162 1091.051, 942.014 1100, 944.862 1100 C 951.277 1100, 954.186 1096.123, 969.996 1066.500 C 975.576 1056.045, 980.606 1046.704, 983.997 1040.500 C 985.500 1037.750, 989.747 1029.745, 993.434 1022.711 C 1004.762 1001.101, 1003.976 1001.990, 1006.641 1007.750 C 1013.982 1023.616, 1029.800 1045.781, 1043.998 1060.097 C 1070.318 1086.635, 1101.363 1103.091, 1136 1108.861 C 1162.634 1113.298, 1181.600 1113.114, 1213 1108.112 C 1223.135 1106.498, 1248.269 1099.878, 1255.500 1096.919 C 1256.600 1096.469, 1259.704 1095.386, 1262.398 1094.512 C 1265.092 1093.638, 1269.817 1091.761, 1272.898 1090.340 C 1275.979 1088.919, 1280.481 1086.897, 1282.903 1085.848 C 1297.558 1079.497, 1315.927 1067.134, 1335.994 1050.117 C 1341.731 1045.251, 1338.812 1045.597, 1330.383 1050.783 C 1321.453 1056.276, 1301.763 1066, 1299.570 1066 C 1298.771 1066, 1297.873 1066.396, 1297.574 1066.881 C 1297.274 1067.365, 1296.010 1068.009, 1294.765 1068.311 C 1292.475 1068.867, 1287.203 1070.328, 1281.250 1072.056 C 1268.399 1075.788, 1267.163 1076.057, 1241.500 1080.709 C 1226.809 1083.372, 1187.320 1083.027, 1170.500 1080.089 C 1149.242 1076.376, 1136.911 1072.560, 1121.871 1065.040 C 1087.169 1047.689, 1063.445 1022.712, 1043.418 982.440 C 1039.299 974.157, 1035.832 966.209, 1035.714 964.779 C 1035.542 962.691, 1037.674 959.940, 1046.517 950.839 C 1052.576 944.603, 1063.600 932.975, 1071.014 925 C 1078.428 917.025, 1086.587 908.250, 1089.144 905.500 C 1126.802 865.005, 1166.076 817.359, 1172.480 804.400 C 1175.481 798.328, 1175.544 797.344, 1173.160 793.730 C 1169.709 788.496, 1165.345 786.057, 1161.699 787.324 C 1158.334 788.494, 1127.702 818.842, 1086 862.320 C 1073.625 875.223, 1063.368 885.659, 1063.207 885.513 C 1062.926 885.258, 1073.793 863.699, 1101.020 810.500 C 1115.216 782.762, 1125.979 758.576, 1126.778 752.617 C 1127.475 747.424, 1125.116 743.346, 1119.123 739.382 C 1112.783 735.189, 1111.057 734.787, 1107.300 736.631 M 2449 739.686 C 2443.792 740.546, 2425.849 750.460, 2415.681 758.094 C 2391.981 775.889, 2360.028 810.239, 2341.351 838 C 2318.950 871.295, 2307.731 897.672, 2306.260 920.500 C 2304.361 949.965, 2329.393 970.454, 2357.033 962.059 C 2369.819 958.175, 2391.295 944.814, 2406 931.596 C 2413.848 924.541, 2436.436 901.733, 2441.747 895.500 C 2460.656 873.309, 2471.994 858.547, 2472.011 856.099 C 2472.016 855.220, 2473.812 852.250, 2476 849.500 C 2482.462 841.380, 2481.373 839.571, 2474.044 846.250 C 2453.706 864.784, 2413.403 896.215, 2393.087 909.384 C 2372.782 922.546, 2355.423 930.221, 2349.915 928.473 C 2345.209 926.979, 2348.472 910.120, 2357.122 891.233 C 2359.615 885.791, 2360.396 884.870, 2362.137 885.326 C 2368.236 886.920, 2385.279 881.134, 2399.635 872.594 C 2433.772 852.288, 2470.268 811.704, 2479.754 783.500 C 2484.018 770.825, 2484.395 768.326, 2482.966 762.193 C 2479.376 746.773, 2464.750 737.082, 2449 739.686 M 2436.904 786.130 C 2426.450 794.785, 2419.138 801.981, 2409.093 813.500 C 2394.946 829.724, 2375.984 855.318, 2377.206 856.540 C 2377.881 857.215, 2397.215 842.622, 2404.142 836.208 C 2416.957 824.343, 2433.255 803.913, 2441.635 789.208 C 2448.200 777.687, 2447.585 777.287, 2436.904 786.130 M 903.399 816.996 C 901.143 818.595, 897.486 822.737, 895.270 826.202 C 890.087 834.307, 882 847.837, 882 848.404 C 882 848.645, 879.836 852.590, 877.191 857.171 C 874.546 861.752, 870.654 868.650, 868.543 872.500 C 866.432 876.350, 862.595 883.325, 860.016 888 C 855.573 896.056, 851.209 904.225, 839.718 926 C 836.961 931.225, 833.576 937.525, 832.198 940 C 828.392 946.830, 788.061 1027.238, 783.293 1037.500 C 780.994 1042.450, 776.594 1051.900, 773.516 1058.500 C 770.438 1065.100, 767.503 1071.400, 766.994 1072.500 C 766.485 1073.600, 763.353 1080.291, 760.034 1087.369 C 756.715 1094.448, 754 1100.375, 754 1100.542 C 754 1100.709, 751.750 1105.640, 749 1111.500 C 746.250 1117.360, 744 1122.331, 744 1122.548 C 744 1122.764, 742.929 1125.317, 741.621 1128.220 C 714.306 1188.834, 687.024 1258.590, 676.002 1296 C 674.787 1300.125, 673.432 1304.625, 672.992 1306 C 672.551 1307.375, 671.670 1310.750, 671.032 1313.500 C 670.395 1316.250, 669.488 1320.075, 669.017 1322 C 665.579 1336.040, 664.963 1348.649, 667.473 1353.596 C 668.283 1355.193, 670.741 1358.525, 672.936 1361 L 676.925 1365.500 680.494 1361.500 C 683.376 1358.269, 698 1330.846, 698 1328.672 C 698 1327.867, 706.436 1308.087, 710.587 1299.161 C 712.464 1295.124, 714 1291.648, 714 1291.436 C 714 1291.224, 715.350 1288.103, 717 1284.500 C 718.650 1280.897, 720 1277.778, 720 1277.567 C 720 1277.357, 721.962 1272.981, 724.360 1267.842 C 726.757 1262.704, 730.198 1255.125, 732.004 1251 C 736.374 1241.024, 746.714 1218.867, 756.739 1198 C 760.041 1191.125, 763.664 1183.475, 764.789 1181 C 767.247 1175.592, 776.177 1156.831, 785.731 1137 C 789.573 1129.025, 794.202 1119.350, 796.017 1115.500 C 800.757 1105.445, 828.024 1050.643, 828.548 1050.119 C 828.790 1049.877, 829.800 1050.414, 830.794 1051.313 C 836.424 1056.408, 852.818 1057.701, 864.392 1053.962 C 883.817 1047.686, 903.199 1034.057, 927.500 1009.585 C 964.042 972.785, 993.269 924.661, 998 893.500 C 998.418 890.750, 999.104 886.334, 999.524 883.687 C 1002.798 863.088, 982.188 844.914, 963.096 851.563 C 951.038 855.762, 928.236 873.340, 910.786 891.889 C 906.590 896.350, 902.927 900, 902.648 900 C 902.368 900, 904.522 894.938, 907.435 888.750 C 910.348 882.563, 914.633 873.450, 916.957 868.500 C 924.907 851.566, 931 834.966, 931 830.238 C 931 824.442, 925.213 818.792, 916 815.592 C 909.830 813.449, 908.137 813.638, 903.399 816.996 M 947.820 890.270 C 929.324 903.546, 907.138 925.906, 883.840 954.751 C 867.702 974.733, 864.543 979.962, 840.361 1026.737 C 832.271 1042.384, 831.931 1043.434, 835.250 1042.505 C 868.107 1033.311, 938.737 946.508, 956.558 893.422 C 960.506 881.661, 960.046 881.495, 947.820 890.270 M 2218.294 1176.957 C 2210.480 1177.299, 2203.730 1177.962, 2203.294 1178.430 C 2202.857 1178.897, 2205.379 1178.992, 2208.897 1178.640 C 2212.415 1178.288, 2220.402 1178, 2226.647 1178 C 2233.549 1178, 2238 1177.608, 2238 1177 C 2238 1176.450, 2236.762 1176.075, 2235.250 1176.167 C 2233.738 1176.259, 2226.107 1176.614, 2218.294 1176.957 M 249.817 1436.215 C 248.904 1436.922, 247.286 1439.075, 246.220 1441 C 245.155 1442.925, 243.074 1446.525, 241.597 1449 C 240.121 1451.475, 238.654 1454.287, 238.339 1455.250 C 238.024 1456.213, 237.369 1457, 236.883 1457 C 236.398 1457, 236 1457.675, 236 1458.500 C 236 1462.251, 237.559 1460.322, 247.224 1444.614 C 252.054 1436.765, 252.979 1433.768, 249.817 1436.215 M 553.500 1569 C 553.160 1569.550, 551.928 1570, 550.762 1570 C 547.394 1570, 542 1572.278, 542 1573.701 C 542 1575.383, 544.396 1575.352, 548.349 1573.617 C 550.082 1572.857, 552.962 1571.677, 554.750 1570.996 C 556.538 1570.315, 558 1569.362, 558 1568.879 C 558 1567.667, 554.261 1567.768, 553.500 1569" stroke="none" fill="currentColor" fill-rule="evenodd"/>
</svg>